<?xml version="1.0" encoding="UTF-8" standalone="no"?>
<svg
   xmlns:dc="http://purl.org/dc/elements/1.1/"
   xmlns:cc="http://creativecommons.org/ns#"
   xmlns:rdf="http://www.w3.org/1999/02/22-rdf-syntax-ns#"
   xmlns:svg="http://www.w3.org/2000/svg"
   xmlns="http://www.w3.org/2000/svg"
   viewBox="0 0 1200.88 "
   height="281.34668"
   width="1200.88"
   xml:space="preserve"
   id="svg2"
   version="1.1"><metadata
     id="metadata8"><rdf:RDF><cc:Work
         rdf:about=""><dc:format>image/svg+xml</dc:format><dc:type
           rdf:resource="http://purl.org/dc/dcmitype/StillImage" /></cc:Work></rdf:RDF></metadata><defs
     id="defs6"><clipPath
       id="clipPath38"
       clipPathUnits="userSpaceOnUse"><path
         id="path36"
         d="M 0,0 H 9007 V 2110 H 0 Z" /></clipPath><clipPath
       id="clipPath44"
       clipPathUnits="userSpaceOnUse"><path
         id="path42"
         d="m 7706.47,1881.83 c 0,-111.67 91.43,-168.12 91.43,-168.12 0,0 -235,-92.03 -235,-339.91 0,-209.25 158.3,-366.92 362.62,-366.92 90.82,0 125.79,28.83 125.79,28.83 0,0 -29.45,-43.569 -66.89,-103.69 L 7823.05,681.07 h 139.9 c 0,0 134.13,206.77 243.37,380.18 80.34,127.53 116.19,222.2 116.19,312.55 0,247.88 -236.22,339.91 -236.22,339.91 0,0 90.79,56.45 90.79,168.12 0,124.56 -105.53,228.26 -234.99,228.26 -128.86,0 -235.62,-103.7 -235.62,-228.26 m 119.05,-2.45 c 0,65.66 51.53,117.19 116.57,117.19 66.27,0 116.58,-51.53 116.58,-117.19 0,-63.2 -50.31,-117.81 -116.58,-117.81 -65.04,0 -116.57,54.61 -116.57,117.81 M 7689.9,1373.8 c 0,138.04 111.68,251.56 252.19,251.56 141.12,0 249.73,-113.52 249.73,-251.56 0,-138.68 -108.61,-252.19 -249.73,-252.19 -140.51,0 -252.19,113.51 -252.19,252.19 m 706.24,381.63 v -118.42 h 397.59 l -397.59,-621.55 h 138.05 l 472.46,739.97 z m -1200.78,0 v -118.42 h 100.02 v -621.55 h 118.41 v 739.97 z" /></clipPath><clipPath
       id="clipPath50"
       clipPathUnits="userSpaceOnUse"><path
         id="path48"
         d="M 7195.36,681.07 H 9006.64 V 2110.09 H 7195.36 Z" /></clipPath><clipPath
       id="clipPath56"
       clipPathUnits="userSpaceOnUse"><path
         id="path54"
         d="M 7195.36,681.07 H 9006.64 V 2110.09 H 7195.36 Z" /></clipPath><clipPath
       id="clipPath62"
       clipPathUnits="userSpaceOnUse"><path
         id="path60"
         d="m 7823,681 v 2 h 1 v 2 h 1 v 1 h 1 v 2 h 1 v 1 h 1 v 2 h 1 v 1 h 1 v 2 h 1 v 1 h 1 v 2 h 1 v 2 h 1 v 1 h 1 v 2 h 1 v 1 h 1 v 2 h 1 v 1 h 1 v 2 h 1 v 1 h 1 v 2 h 1 v 2 h 1 v 1 h 1 v 2 h 1 v 1 h 1 v 2 h 1 v 1 h 1 v 2 h 1 v 1 h 1 v 2 h 1 v 2 h 1 v 1 h 1 v 2 h 1 v 1 h 1 v 2 h 1 v 1 h 1 v 2 h 1 v 1 h 1 v 2 h 1 v 2 h 1 v 1 h 1 v 2 h 1 v 1 h 1 v 2 h 1 v 1 h 1 v 2 h 1 v 1 h 1 v 2 h 1 v 2 h 1 v 1 h 1 v 2 h 1 v 1 h 1 v 2 h 1 v 1 h 1 v 2 h 1 v 1 h 1 v 2 h 1 v 2 h 1 v 1 h 1 v 2 h 1 v 1 h 1 v 2 h 1 v 1 h 1 v 2 h 1 v 1 h 1 v 2 h 1 v 2 h 1 v 1 h 1 v 2 h 1 v 1 h 1 v 2 h 1 v 1 h 1 v 2 h 1 v 1 h 1 v 2 h 1 v 2 h 1 v 1 h 1 v 2 h 1 v 1 h 1 v 2 h 1 v 1 h 1 v 2 h 1 v 1 h 1 v 2 h 1 v 2 h 1 v 1 h 1 v 2 h 1 v 1 h 1 v 2 h 1 v 1 h 1 v 2 h 1 v 1 h 1 v 2 h 1 v 2 h 1 v 1 h 1 v 2 h 1 v 1 h 1 v 2 h 1 v 1 h 1 v 2 h 1 v 1 h 1 v 2 h 1 v 2 h 1 v 1 h 1 v 2 h 1 v 1 h 1 v 2 h 1 v 1 h 1 v 2 h 1 v 1 h 1 v 2 h 1 v 2 h 1 v 1 h 1 v 2 h 1 v 1 h 1 v 2 h 1 v 1 h 1 v 2 h 1 v 1 h 1 v 2 h 1 v 2 h 1 v 1 h 1 v 2 h 1 v 1 h 1 v 2 h 1 v 1 h 1 v 2 h 1 v 1 h 1 v 2 h 1 v 2 h 1 v 1 h 1 v 2 h 1 v 1 h 1 v 2 h 1 v 1 h 1 v 2 h 1 v 1 h 1 v 2 h 1 v 2 h 1 v 1 h 1 v 2 h 1 v 1 h 1 v 2 h 1 v 1 h 1 v 2 h 1 v 1 h 1 v 2 h 1 v 2 h 1 v 1 h 1 v 2 h 1 v 1 h 1 v 2 h 1 v 1 h 1 v 2 h 1 v 1 h 1 v 2 h 1 v 2 h 1 v 1 h 1 v 2 h 1 v 1 h 1 v 2 h 1 v 1 h 1 v 2 h 1 v 1 h 1 v 2 h 1 v 2 h 1 v 1 h 1 v 2 h 1 v 1 h 1 v 2 h 1 v 2 h 1 v 1 h 1 v 2 h 1 v 1 h 1 v 2 h 1 v 2 h 1 v 1 h 1 v 2 h 1 v 1 h 1 v 2 h 1 v 1 h 1 v 2 h 1 v 2 h 1 v 1 h 1 v 2 h 1 v 1 h 1 v 2 h 1 v 1 h 1 v 2 h 1 v 2 h 1 v 1 h 1 v 2 h 1 v 1 h 1 v 2 h 1 v 1 h 1 v 2 h 1 v 1 h 1 v 2 h 1 v 2 h 1 v 1 h 1 v 2 h 1 v 1 h 1 v 2 h 1 v 1 h 1 v 2 h 1 v 1 h 1 v 2 h 1 v 1 h 1 v 2 h 1 v 2 h 1 v 1 h 1 v 2 h 1 v 1 h 1 v 2 h 1 v 1 h 1 v 2 h 1 v 1 h 1 v 2 h 1 v 1 h 1 v 2 h 1 v 1 h 1 v 2 h 1 v 1 h 1 v 2 h 1 v 1 h 1 v 2 h 1 v 1 h 1 v 1 h -2 v -1 h -1 v -1 h -2 v -1 h -2 v -1 h -2 v -1 h -2 v -1 h -2 v -1 h -3 v -1 h -2 v -1 h -3 v -1 h -2 v -1 h -3 v -1 h -3 v -1 h -4 v -1 h -3 v -1 h -3 v -1 h -3 v -1 h -5 v -1 h -5 v -1 h -4 v -1 h -5 v -1 h -6 v -1 h -8 v -1 h -8 v -1 h -10 v -1 h -19 v -1 h -22 v 1 h -16 v 1 h -13 v 1 h -7 v 1 h -6 v 1 h -7 v 1 h -7 v 1 h -7 v 1 h -4 v 1 h -4 v 1 h -4 v 1 h -4 v 1 h -4 v 1 h -4 v 1 h -4 v 1 h -4 v 1 h -4 v 1 h -3 v 1 h -2 v 1 h -3 v 1 h -3 v 1 h -3 v 1 h -3 v 1 h -2 v 1 h -3 v 1 h -3 v 1 h -3 v 1 h -3 v 1 h -2 v 1 h -2 v 1 h -3 v 1 h -2 v 1 h -2 v 1 h -2 v 1 h -2 v 1 h -2 v 1 h -2 v 1 h -2 v 1 h -2 v 1 h -3 v 1 h -2 v 1 h -2 v 1 h -2 v 1 h -2 v 1 h -2 v 1 h -1 v 1 h -2 v 1 h -2 v 1 h -1 v 1 h -2 v 1 h -2 v 1 h -1 v 1 h -2 v 1 h -2 v 1 h -1 v 1 h -2 v 1 h -2 v 1 h -1 v 1 h -2 v 1 h -2 v 1 h -1 v 1 h -2 v 1 h -1 v 1 h -1 v 1 h -2 v 1 h -1 v 1 h -1 v 1 h -2 v 1 h -1 v 1 h -2 v 1 h -1 v 1 h -1 v 1 h -2 v 1 h -1 v 1 h -1 v 1 h -2 v 1 h -1 v 1 h -1 v 1 h -2 v 1 h -1 v 1 h -1 v 1 h -2 v 1 h -1 v 1 h -1 v 1 h -1 v 1 h -1 v 1 h -1 v 1 h -1 v 1 h -1 v 1 h -2 v 1 h -1 v 1 h -1 v 1 h -1 v 1 h -1 v 1 h -1 v 1 h -1 v 1 h -1 v 1 h -1 v 1 h -1 v 1 h -1 v 1 h -2 v 1 h -1 v 1 h -1 v 1 h -1 v 1 h -1 v 1 h -1 v 1 h -1 v 1 h -1 v 1 h -1 v 1 h -1 v 1 h -1 v 2 h -1 v 1 h -1 v 1 h -1 v 1 h -1 v 1 h -1 v 1 h -1 v 1 h -1 v 1 h -1 v 1 h -1 v 2 h -1 v 1 h -1 v 1 h -1 v 1 h -1 v 1 h -1 v 1 h -1 v 1 h -1 v 1 h -1 v 1 h -1 v 2 h -1 v 1 h -1 v 1 h -1 v 2 h -1 v 1 h -1 v 2 h -1 v 1 h -1 v 1 h -1 v 2 h -1 v 1 h -1 v 1 h -1 v 2 h -1 v 1 h -1 v 1 h -1 v 2 h -1 v 1 h -1 v 1 h -1 v 2 h -1 v 1 h -1 v 2 h -1 v 1 h -1 v 2 h -1 v 1 h -1 v 2 h -1 v 2 h -1 v 1 h -1 v 2 h -1 v 2 h -1 v 1 h -1 v 2 h -1 v 2 h -1 v 1 h -1 v 2 h -1 v 2 h -1 v 1 h -1 v 2 h -1 v 2 h -1 v 2 h -1 v 1 h -1 v 2 h -1 v 2 h -1 v 3 h -1 v 2 h -1 v 2 h -1 v 2 h -1 v 2 h -1 v 2 h -1 v 2 h -1 v 3 h -1 v 2 h -1 v 2 h -1 v 2 h -1 v 2 h -1 v 2 h -1 v 3 h -1 v 3 h -1 v 3 h -1 v 3 h -1 v 2 h -1 v 3 h -1 v 3 h -1 v 3 h -1 v 3 h -1 v 3 h -1 v 2 h -1 v 3 h -1 v 4 h -1 v 4 h -1 v 4 h -1 v 4 h -1 v 5 h -1 v 4 h -1 v 4 h -1 v 4 h -1 v 4 h -1 v 7 h -1 v 7 h -1 v 7 h -1 v 7 h -1 v 7 h -1 v 13 h -1 v 16 h -1 v 20 h 1 v 20 h 1 v 11 h 1 v 9 h 1 v 7 h 1 v 6 h 1 v 6 h 1 v 5 h 1 v 5 h 1 v 4 h 1 v 5 h 1 v 4 h 1 v 3 h 1 v 4 h 1 v 4 h 1 v 3 h 1 v 3 h 1 v 3 h 1 v 3 h 1 v 3 h 1 v 3 h 1 v 3 h 1 v 3 h 1 v 2 h 1 v 3 h 1 v 2 h 1 v 3 h 1 v 2 h 1 v 3 h 1 v 2 h 1 v 2 h 1 v 2 h 1 v 2 h 1 v 2 h 1 v 2 h 1 v 3 h 1 v 2 h 1 v 2 h 1 v 2 h 1 v 1 h 1 v 2 h 1 v 2 h 1 v 2 h 1 v 2 h 1 v 2 h 1 v 1 h 1 v 2 h 1 v 2 h 1 v 1 h 1 v 2 h 1 v 2 h 1 v 1 h 1 v 2 h 1 v 2 h 1 v 1 h 1 v 2 h 1 v 1 h 1 v 2 h 1 v 1 h 1 v 2 h 1 v 1 h 1 v 2 h 1 v 1 h 1 v 2 h 1 v 1 h 1 v 1 h 1 v 2 h 1 v 1 h 1 v 1 h 1 v 2 h 1 v 1 h 1 v 1 h 1 v 2 h 1 v 1 h 1 v 1 h 1 v 2 h 1 v 1 h 1 v 1 h 1 v 1 h 1 v 2 h 1 v 1 h 1 v 1 h 1 v 1 h 1 v 1 h 1 v 2 h 1 v 1 h 1 v 1 h 1 v 1 h 1 v 1 h 1 v 1 h 1 v 1 h 1 v 1 h 1 v 2 h 1 v 1 h 1 v 1 h 1 v 1 h 1 v 1 h 1 v 1 h 1 v 1 h 1 v 1 h 1 v 1 h 1 v 1 h 1 v 1 h 1 v 1 h 1 v 1 h 1 v 1 h 1 v 1 h 1 v 1 h 1 v 1 h 1 v 1 h 1 v 1 h 1 v 1 h 1 v 1 h 1 v 1 h 1 v 1 h 1 v 1 h 1 v 1 h 1 v 1 h 1 v 1 h 1 v 1 h 1 v 1 h 2 v 1 h 1 v 1 h 1 v 1 h 1 v 1 h 1 v 1 h 1 v 1 h 1 v 1 h 2 v 1 h 1 v 1 h 1 v 1 h 1 v 1 h 1 v 1 h 2 v 1 h 1 v 1 h 1 v 1 h 1 v 1 h 1 v 1 h 2 v 1 h 1 v 1 h 1 v 1 h 2 v 1 h 1 v 1 h 1 v 1 h 1 v 1 h 2 v 1 h 1 v 1 h 1 v 1 h 2 v 1 h 1 v 1 h 2 v 1 h 1 v 1 h 1 v 1 h 2 v 1 h 1 v 1 h 2 v 1 h 1 v 1 h 2 v 1 h 1 v 1 h 1 v 1 h 2 v 1 h 2 v 1 h 1 v 1 h 2 v 1 h 1 v 1 h 2 v 1 h 1 v 1 h 2 v 1 h 1 v 1 h 2 v 1 h 2 v 1 h 1 v 1 h 2 v 1 h 2 v 1 h 1 v 1 h 2 v 1 h 2 v 1 h 2 v 1 h 1 v 1 h 2 v 1 h 2 v 1 h 2 v 1 h 2 v 1 h 2 v 1 h 2 v 1 h 2 v 1 h 2 v 1 h 2 v 1 h 2 v 1 h 2 v 1 h 2 v 1 h 2 v 1 h 2 v 1 h 2 v 1 h 3 v 1 h -1 v 1 h -1 v 1 h -1 v 1 h -2 v 1 h -1 v 1 h -1 v 1 h -2 v 1 h -1 v 1 h -1 v 1 h -2 v 1 h -1 v 1 h -1 v 1 h -1 v 1 h -1 v 1 h -1 v 1 h -2 v 1 h -1 v 1 h -1 v 1 h -1 v 1 h -1 v 1 h -1 v 1 h -1 v 1 h -1 v 1 h -1 v 1 h -1 v 1 h -1 v 1 h -1 v 1 h -1 v 1 h -1 v 1 h -1 v 1 h -1 v 1 h -1 v 1 h -1 v 2 h -1 v 1 h -1 v 1 h -1 v 1 h -1 v 1 h -1 v 1 h -1 v 1 h -1 v 2 h -1 v 1 h -1 v 1 h -1 v 2 h -1 v 1 h -1 v 1 h -1 v 2 h -1 v 1 h -1 v 1 h -1 v 2 h -1 v 1 h -1 v 2 h -1 v 1 h -1 v 2 h -1 v 1 h -1 v 2 h -1 v 1 h -1 v 2 h -1 v 2 h -1 v 1 h -1 v 2 h -1 v 2 h -1 v 2 h -1 v 1 h -1 v 2 h -1 v 2 h -1 v 3 h -1 v 2 h -1 v 2 h -1 v 2 h -1 v 2 h -1 v 2 h -1 v 3 h -1 v 3 h -1 v 3 h -1 v 2 h -1 v 3 h -1 v 3 h -1 v 4 h -1 v 4 h -1 v 4 h -1 v 4 h -1 v 5 h -1 v 6 h -1 v 7 h -1 v 10 h -1 v 28 h 1 v 11 h 1 v 7 h 1 v 6 h 1 v 6 h 1 v 4 h 1 v 4 h 1 v 4 h 1 v 4 h 1 v 3 h 1 v 4 h 1 v 3 h 1 v 2 h 1 v 3 h 1 v 3 h 1 v 2 h 1 v 3 h 1 v 2 h 1 v 3 h 1 v 2 h 1 v 2 h 1 v 2 h 1 v 2 h 1 v 2 h 1 v 2 h 1 v 2 h 1 v 2 h 1 v 2 h 1 v 2 h 1 v 2 h 1 v 1 h 1 v 2 h 1 v 2 h 1 v 1 h 1 v 2 h 1 v 1 h 1 v 2 h 1 v 1 h 1 v 2 h 1 v 2 h 1 v 1 h 1 v 2 h 1 v 1 h 1 v 1 h 1 v 1 h 1 v 2 h 1 v 1 h 1 v 1 h 1 v 2 h 1 v 1 h 1 v 1 h 1 v 1 h 1 v 2 h 1 v 1 h 1 v 1 h 1 v 1 h 1 v 1 h 1 v 1 h 1 v 1 h 1 v 2 h 1 v 1 h 1 v 1 h 1 v 1 h 1 v 1 h 1 v 1 h 1 v 1 h 1 v 1 h 1 v 1 h 1 v 1 h 1 v 1 h 1 v 1 h 1 v 1 h 1 v 1 h 1 v 1 h 1 v 1 h 2 v 1 h 1 v 1 h 1 v 1 h 1 v 1 h 1 v 1 h 1 v 1 h 1 v 1 h 1 v 1 h 2 v 1 h 1 v 1 h 1 v 1 h 1 v 1 h 2 v 1 h 1 v 1 h 1 v 1 h 2 v 1 h 1 v 1 h 2 v 1 h 1 v 1 h 1 v 1 h 2 v 1 h 1 v 1 h 1 v 1 h 2 v 1 h 2 v 1 h 1 v 1 h 2 v 1 h 2 v 1 h 1 v 1 h 2 v 1 h 2 v 1 h 1 v 1 h 2 v 1 h 2 v 1 h 1 v 1 h 2 v 1 h 3 v 1 h 2 v 1 h 2 v 1 h 2 v 1 h 2 v 1 h 2 v 1 h 2 v 1 h 2 v 1 h 3 v 1 h 2 v 1 h 3 v 1 h 3 v 1 h 3 v 1 h 2 v 1 h 3 v 1 h 3 v 1 h 3 v 1 h 4 v 1 h 4 v 1 h 4 v 1 h 4 v 1 h 4 v 1 h 6 v 1 h 6 v 1 h 7 v 1 h 7 v 1 h 46 v -1 h 8 v -1 h 6 v -1 h 7 v -1 h 5 v -1 h 4 v -1 h 4 v -1 h 4 v -1 h 4 v -1 h 4 v -1 h 3 v -1 h 3 v -1 h 3 v -1 h 3 v -1 h 2 v -1 h 3 v -1 h 3 v -1 h 3 v -1 h 2 v -1 h 2 v -1 h 2 v -1 h 2 v -1 h 2 v -1 h 2 v -1 h 3 v -1 h 2 v -1 h 2 v -1 h 2 v -1 h 2 v -1 h 1 v -1 h 2 v -1 h 2 v -1 h 1 v -1 h 2 v -1 h 2 v -1 h 1 v -1 h 2 v -1 h 2 v -1 h 1 v -1 h 2 v -1 h 1 v -1 h 2 v -1 h 1 v -1 h 1 v -1 h 2 v -1 h 1 v -1 h 1 v -1 h 2 v -1 h 1 v -1 h 1 v -1 h 2 v -1 h 1 v -1 h 1 v -1 h 2 v -1 h 1 v -1 h 1 v -1 h 1 v -1 h 1 v -1 h 1 v -1 h 1 v -1 h 1 v -1 h 2 v -1 h 1 v -1 h 1 v -1 h 1 v -1 h 1 v -1 h 1 v -1 h 1 v -1 h 1 v -1 h 1 v -1 h 1 v -1 h 1 v -1 h 1 v -1 h 1 v -1 h 1 v -1 h 1 v -1 h 1 v -1 h 1 v -1 h 1 v -2 h 1 v -1 h 1 v -1 h 1 v -1 h 1 v -1 h 1 v -1 h 1 v -2 h 1 v -1 h 1 v -1 h 1 v -1 h 1 v -2 h 1 v -1 h 1 v -1 h 1 v -2 h 1 v -1 h 1 v -1 h 1 v -2 h 1 v -1 h 1 v -2 h 1 v -1 h 1 v -2 h 1 v -1 h 1 v -2 h 1 v -2 h 1 v -1 h 1 v -2 h 1 v -1 h 1 v -2 h 1 v -1 h 1 v -2 h 1 v -2 h 1 v -2 h 1 v -2 h 1 v -2 h 1 v -2 h 1 v -2 h 1 v -2 h 1 v -2 h 1 v -2 h 1 v -3 h 1 v -2 h 1 v -3 h 1 v -3 h 1 v -2 h 1 v -3 h 1 v -2 h 1 v -3 h 1 v -3 h 1 v -4 h 1 v -4 h 1 v -4 h 1 v -3 h 1 v -4 h 1 v -6 h 1 v -6 h 1 v -6 h 1 v -8 h 1 v -14 h 1 v -14 h -1 v -14 h -1 v -7 h -1 v -7 h -1 v -6 h -1 v -4 h -1 v -4 h -1 v -4 h -1 v -3 h -1 v -4 h -1 v -2 h -1 v -3 h -1 v -3 h -1 v -3 h -1 v -3 h -1 v -2 h -1 v -2 h -1 v -2 h -1 v -3 h -1 v -2 h -1 v -2 h -1 v -2 h -1 v -2 h -1 v -2 h -1 v -2 h -1 v -1 h -1 v -2 h -1 v -2 h -1 v -2 h -1 v -1 h -1 v -2 h -1 v -2 h -1 v -1 h -1 v -2 h -1 v -1 h -1 v -2 h -1 v -1 h -1 v -2 h -1 v -1 h -1 v -1 h -1 v -2 h -1 v -1 h -1 v -1 h -1 v -2 h -1 v -1 h -1 v -1 h -1 v -1 h -1 v -2 h -1 v -1 h -1 v -1 h -1 v -1 h -1 v -1 h -1 v -1 h -1 v -2 h -1 v -1 h -1 v -1 h -1 v -1 h -1 v -1 h -1 v -1 h -1 v -1 h -1 v -1 h -1 v -1 h -1 v -1 h -1 v -1 h -1 v -1 h -1 v -1 h -1 v -1 h -1 v -1 h -1 v -1 h -1 v -1 h -1 v -1 h -2 v -1 h -1 v -1 h -1 v -1 h -1 v -1 h -1 v -1 h -1 v -1 h -2 v -1 h -1 v -1 h -1 v -1 h -1 v -1 h -2 v -1 h -1 v -1 h -1 v -1 h -2 v -1 h -1 v -2 h 2 v -1 h 2 v -1 h 2 v -1 h 3 v -1 h 2 v -1 h 2 v -1 h 2 v -1 h 2 v -1 h 2 v -1 h 2 v -1 h 2 v -1 h 2 v -1 h 1 v -1 h 2 v -1 h 2 v -1 h 2 v -1 h 2 v -1 h 1 v -1 h 2 v -1 h 2 v -1 h 2 v -1 h 1 v -1 h 2 v -1 h 2 v -1 h 1 v -1 h 2 v -1 h 2 v -1 h 1 v -1 h 2 v -1 h 1 v -1 h 2 v -1 h 1 v -1 h 2 v -1 h 2 v -1 h 1 v -1 h 2 v -1 h 1 v -1 h 1 v -1 h 2 v -1 h 1 v -1 h 2 v -1 h 1 v -1 h 2 v -1 h 1 v -1 h 1 v -1 h 2 v -1 h 1 v -1 h 2 v -1 h 1 v -1 h 1 v -1 h 1 v -1 h 2 v -1 h 1 v -1 h 1 v -1 h 2 v -1 h 1 v -1 h 1 v -1 h 1 v -1 h 2 v -1 h 1 v -1 h 1 v -1 h 1 v -1 h 2 v -1 h 1 v -1 h 1 v -1 h 1 v -1 h 1 v -1 h 2 v -1 h 1 v -1 h 1 v -1 h 1 v -1 h 1 v -1 h 1 v -1 h 1 v -1 h 1 v -1 h 2 v -1 h 1 v -1 h 1 v -1 h 1 v -1 h 1 v -1 h 1 v -1 h 1 v -1 h 1 v -1 h 1 v -1 h 1 v -1 h 1 v -1 h 1 v -1 h 1 v -1 h 1 v -1 h 1 v -1 h 1 v -1 h 1 v -1 h 1 v -1 h 1 v -1 h 1 v -1 h 1 v -1 h 1 v -1 h 1 v -1 h 1 v -1 h 1 v -1 h 1 v -1 h 1 v -2 h 1 v -1 h 1 v -1 h 1 v -1 h 1 v -1 h 1 v -1 h 1 v -1 h 1 v -1 h 1 v -2 h 1 v -1 h 1 v -1 h 1 v -1 h 1 v -1 h 1 v -2 h 1 v -1 h 1 v -1 h 1 v -1 h 1 v -2 h 1 v -1 h 1 v -1 h 1 v -2 h 1 v -1 h 1 v -1 h 1 v -1 h 1 v -2 h 1 v -1 h 1 v -1 h 1 v -2 h 1 v -1 h 1 v -2 h 1 v -1 h 1 v -2 h 1 v -1 h 1 v -2 h 1 v -1 h 1 v -2 h 1 v -1 h 1 v -1 h 1 v -2 h 1 v -2 h 1 v -1 h 1 v -2 h 1 v -2 h 1 v -1 h 1 v -2 h 1 v -2 h 1 v -1 h 1 v -2 h 1 v -2 h 1 v -2 h 1 v -2 h 1 v -1 h 1 v -2 h 1 v -2 h 1 v -2 h 1 v -2 h 1 v -2 h 1 v -2 h 1 v -2 h 1 v -2 h 1 v -2 h 1 v -2 h 1 v -3 h 1 v -2 h 1 v -2 h 1 v -3 h 1 v -2 h 1 v -3 h 1 v -2 h 1 v -3 h 1 v -2 h 1 v -3 h 1 v -3 h 1 v -3 h 1 v -3 h 1 v -3 h 1 v -3 h 1 v -3 h 1 v -4 h 1 v -3 h 1 v -4 h 1 v -4 h 1 v -4 h 1 v -5 h 1 v -4 h 1 v -5 h 1 v -5 h 1 v -7 h 1 v -6 h 1 v -8 h 1 v -11 h 1 v -13 h 1 v -36 h -1 v -15 h -1 v -8 h -1 v -7 h -1 v -7 h -1 v -7 h -1 v -6 h -1 v -5 h -1 v -5 h -1 v -4 h -1 v -4 h -1 v -4 h -1 v -4 h -1 v -4 h -1 v -4 h -1 v -4 h -1 v -3 h -1 v -3 h -1 v -4 h -1 v -3 h -1 v -3 h -1 v -3 h -1 v -3 h -1 v -3 h -1 v -3 h -1 v -3 h -1 v -3 h -1 v -3 h -1 v -2 h -1 v -3 h -1 v -2 h -1 v -3 h -1 v -2 h -1 v -2 h -1 v -3 h -1 v -2 h -1 v -3 h -1 v -2 h -1 v -3 h -1 v -2 h -1 v -2 h -1 v -3 h -1 v -2 h -1 v -3 h -1 v -2 h -1 v -2 h -1 v -2 h -1 v -2 h -1 v -2 h -1 v -2 h -1 v -2 h -1 v -2 h -1 v -2 h -1 v -2 h -1 v -2 h -1 v -3 h -1 v -2 h -1 v -2 h -1 v -2 h -1 v -2 h -1 v -2 h -1 v -2 h -1 v -2 h -1 v -2 h -1 v -2 h -1 v -2 h -1 v -2 h -1 v -1 h -1 v -2 h -1 v -2 h -1 v -2 h -1 v -2 h -1 v -2 h -1 v -1 h -1 v -2 h -1 v -2 h -1 v -2 h -1 v -2 h -1 v -1 h -1 v -2 h -1 v -2 h -1 v -2 h -1 v -2 h -1 v -2 h -1 v -1 h -1 v -2 h -1 v -2 h -1 v -2 h -1 v -2 h -1 v -1 h -1 v -2 h -1 v -2 h -1 v -1 h -1 v -2 h -1 v -2 h -1 v -1 h -1 v -2 h -1 v -2 h -1 v -1 h -1 v -2 h -1 v -2 h -1 v -1 h -1 v -2 h -1 v -2 h -1 v -1 h -1 v -2 h -1 v -2 h -1 v -1 h -1 v -2 h -1 v -2 h -1 v -1 h -1 v -2 h -1 v -1 h -1 v -2 h -1 v -2 h -1 v -1 h -1 v -2 h -1 v -1 h -1 v -2 h -1 v -2 h -1 v -1 h -1 v -2 h -1 v -1 h -1 v -2 h -1 v -1 h -1 v -2 h -1 v -2 h -1 v -1 h -1 v -2 h -1 v -1 h -1 v -2 h -1 v -2 h -1 v -1 h -1 v -2 h -1 v -1 h -1 v -2 h -1 v -1 h -1 v -2 h -1 v -2 h -1 v -1 h -1 v -2 h -1 v -1 h -1 v -2 h -1 v -1 h -1 v -2 h -1 v -2 h -1 v -1 h -1 v -2 h -1 v -1 h -1 v -2 h -1 v -2 h -1 v -1 h -1 v -2 h -1 v -1 h -1 v -2 h -1 v -1 h -1 v -2 h -1 v -2 h -1 v -1 h -1 v -2 h -1 v -1 h -1 v -2 h -1 v -1 h -1 v -2 h -1 v -2 h -1 v -1 h -1 v -2 h -1 v -1 h -1 v -2 h -1 v -1 h -1 v -2 h -1 v -2 h -1 v -1 h -1 v -2 h -1 v -1 h -1 v -2 h -1 v -1 h -1 v -2 h -1 v -2 h -1 v -1 h -1 v -2 h -1 v -1 h -1 v -2 h -1 v -1 h -1 v -2 h -1 v -2 h -1 v -1 h -1 v -2 h -1 v -1 h -1 v -2 h -1 v -1 h -1 v -2 h -1 v -2 h -1 v -1 h -1 v -2 h -1 v -1 h -1 v -2 h -1 v -1 h -1 v -2 h -1 v -2 h -1 v -1 h -1 v -2 h -1 v -1 h -1 v -2 h -1 v -1 h -1 v -2 h -1 v -2 h -1 v -1 h -1 v -2 h -1 v -1 h -1 v -2 h -1 v -1 h -1 v -2 h -1 v -1 h -1 v -2 h -1 v -2 h -1 v -1 h -1 v -2 h -1 v -1 h -1 v -2 h -1 v -1 h -1 v -2 h -1 v -2 h -1 v -1 h -1 v -2 h -1 v -1 h -1 v -2 h -1 v -1 h -1 v -2 h -1 v -1 h -1 v -2 h -1 v -2 h -1 v -1 h -1 v -2 h -1 v -1 h -1 v -2 h -1 v -1 h -1 v -2 h -1 v -2 h -1 v -1 h -1 v -2 h -1 v -1 h -1 v -2 h -1 v -1 h -1 v -2 h -1 v -1 h -1 v -2 h -1 v -2 h -1 v -1 h -1 v -2 h -1 v -1 h -1 v -2 h -1 v -1 h -1 v -2 h -1 v -1 h -1 v -2 h -1 v -2 h -1 v -1 h -1 v -2 h -1 v -1 h -1 v -2 h -1 v -1 h -1 v -2 h -1 v -2 h -1 v -1 h -1 v -2 h -1 v -1 h -1 v -2 h -1 v -1 h -1 v -2 h -1 v -1 h -1 v -2 h -1 v -2 h -1 v -1 h -1 v -2 h -1 v -1 h -1 v -2 h -1 v -1 h -1 v -2 h -1 v -1 h -1 v -2 h -1 v -2 h -1 v -1 h -1 v -2 h -1 v -1 h -1 v -2 h -1 v -1 h -1 v -2 h -1 v -1 h -1 v -2 h -1 v -1 h -1 v -2 h -1 v -2 h -1 v -1 h -1 v -2 h -1 v -1 h -1 v -2 h -1 v -1 h -1 v -2 h -1 v -1 h -1 v -2 h -1 v -2 h -1 v -1 h -1 v -2 h -1 v -1 h -1 v -2 h -1 v -1 h -1 v -2 h -1 v -1 h -1 v -2 h -1 v -2 h -1 v -1 h -1 v -2 h -1 v -1 h -1 v -2 h -1 v -1 h -1 v -2 h -1 v -1 h -1 v -2 h -1 v -1 h -1 v -2 h -1 v -2 h -1 v -1 h -1 v -2 h -1 v -1 h -1 v -2 h -1 v -1 h -1 v -2 h -1 v -1 h -1 v -2 h -1 v -2 h -1 v -1 h -1 v -2 h -1 v -1 h -1 v -2 h -1 v -1 h -1 v -2 h -1 v -1 h -1 v -2 h -1 v -1 h -1 v -2 h -1 v -2 h -1 v -1 h -1 v -2 h -1 v -1 h -1 v -2 h -1 v -1 h -1 v -2 h -1 v -1 h -1 v -2 h -1 v -1 h -1 v -2 h -1 v -2 h -1 v -1 h -1 v -2 h -1 v -1 h -1 v -2 h -1 v -1 h -1 v -2 h -1 v -1 z m -528,334 v 622 h -100 v 119 h 219 v -741 z m 1101,0 v 2 h 1 v 2 h 1 v 1 h 1 v 2 h 1 v 2 h 1 v 1 h 1 v 2 h 1 v 1 h 1 v 2 h 1 v 1 h 1 v 2 h 1 v 1 h 1 v 2 h 1 v 2 h 1 v 1 h 1 v 2 h 1 v 1 h 1 v 2 h 1 v 1 h 1 v 2 h 1 v 2 h 1 v 1 h 1 v 2 h 1 v 1 h 1 v 2 h 1 v 1 h 1 v 2 h 1 v 2 h 1 v 1 h 1 v 2 h 1 v 1 h 1 v 2 h 1 v 1 h 1 v 2 h 1 v 1 h 1 v 2 h 1 v 2 h 1 v 1 h 1 v 2 h 1 v 1 h 1 v 2 h 1 v 1 h 1 v 2 h 1 v 2 h 1 v 1 h 1 v 2 h 1 v 1 h 1 v 2 h 1 v 1 h 1 v 2 h 1 v 1 h 1 v 2 h 1 v 2 h 1 v 1 h 1 v 2 h 1 v 1 h 1 v 2 h 1 v 1 h 1 v 2 h 1 v 2 h 1 v 1 h 1 v 2 h 1 v 1 h 1 v 2 h 1 v 1 h 1 v 2 h 1 v 1 h 1 v 2 h 1 v 2 h 1 v 1 h 1 v 2 h 1 v 1 h 1 v 2 h 1 v 1 h 1 v 2 h 1 v 2 h 1 v 1 h 1 v 2 h 1 v 1 h 1 v 2 h 1 v 1 h 1 v 2 h 1 v 1 h 1 v 2 h 1 v 2 h 1 v 1 h 1 v 2 h 1 v 1 h 1 v 2 h 1 v 1 h 1 v 2 h 1 v 2 h 1 v 1 h 1 v 2 h 1 v 1 h 1 v 2 h 1 v 1 h 1 v 2 h 1 v 2 h 1 v 1 h 1 v 2 h 1 v 1 h 1 v 2 h 1 v 1 h 1 v 2 h 1 v 1 h 1 v 2 h 1 v 2 h 1 v 1 h 1 v 2 h 1 v 1 h 1 v 2 h 1 v 1 h 1 v 2 h 1 v 2 h 1 v 1 h 1 v 2 h 1 v 1 h 1 v 2 h 1 v 1 h 1 v 2 h 1 v 1 h 1 v 2 h 1 v 2 h 1 v 1 h 1 v 2 h 1 v 1 h 1 v 2 h 1 v 1 h 1 v 2 h 1 v 2 h 1 v 1 h 1 v 2 h 1 v 1 h 1 v 2 h 1 v 1 h 1 v 2 h 1 v 1 h 1 v 2 h 1 v 2 h 1 v 1 h 1 v 2 h 1 v 1 h 1 v 2 h 1 v 1 h 1 v 2 h 1 v 2 h 1 v 1 h 1 v 2 h 1 v 1 h 1 v 2 h 1 v 1 h 1 v 2 h 1 v 1 h 1 v 2 h 1 v 2 h 1 v 1 h 1 v 2 h 1 v 1 h 1 v 2 h 1 v 1 h 1 v 2 h 1 v 2 h 1 v 1 h 1 v 2 h 1 v 1 h 1 v 2 h 1 v 1 h 1 v 2 h 1 v 1 h 1 v 2 h 1 v 2 h 1 v 1 h 1 v 2 h 1 v 1 h 1 v 2 h 1 v 1 h 1 v 2 h 1 v 2 h 1 v 1 h 1 v 2 h 1 v 1 h 1 v 2 h 1 v 1 h 1 v 2 h 1 v 2 h 1 v 1 h 1 v 2 h 1 v 1 h 1 v 2 h 1 v 1 h 1 v 2 h 1 v 1 h 1 v 2 h 1 v 2 h 1 v 1 h 1 v 2 h 1 v 1 h 1 v 2 h 1 v 1 h 1 v 2 h 1 v 2 h 1 v 1 h 1 v 2 h 1 v 1 h 1 v 2 h 1 v 1 h 1 v 2 h 1 v 1 h 1 v 2 h 1 v 2 h 1 v 1 h 1 v 2 h 1 v 1 h 1 v 2 h 1 v 1 h 1 v 2 h 1 v 2 h 1 v 1 h 1 v 2 h 1 v 1 h 1 v 2 h 1 v 1 h 1 v 2 h 1 v 1 h 1 v 2 h 1 v 2 h 1 v 1 h 1 v 2 h 1 v 1 h 1 v 2 h 1 v 1 h 1 v 2 h 1 v 2 h 1 v 1 h 1 v 2 h 1 v 1 h 1 v 2 h 1 v 1 h 1 v 2 h 1 v 1 h 1 v 2 h 1 v 2 h 1 v 1 h 1 v 2 h 1 v 1 h 1 v 2 h 1 v 1 h 1 v 2 h 1 v 2 h 1 v 1 h 1 v 2 h 1 v 1 h 1 v 2 h 1 v 1 h 1 v 2 h 1 v 2 h 1 v 1 h 1 v 2 h 1 v 1 h 1 v 2 h 1 v 1 h 1 v 2 h 1 v 1 h 1 v 2 h 1 v 2 h 1 v 1 h 1 v 2 h 1 v 1 h 1 v 2 h 1 v 1 h 1 v 2 h 1 v 2 h 1 v 1 h 1 v 2 h 1 v 1 h 1 v 2 h 1 v 1 h 1 v 2 h 1 v 1 h 1 v 2 h 1 v 2 h 1 v 1 h 1 v 2 h 1 v 1 h 1 v 2 h 1 v 1 h 1 v 2 h 1 v 2 h 1 v 1 h 1 v 2 h 1 v 1 h 1 v 2 h 1 v 1 h 1 v 2 h 1 v 1 h 1 v 2 h 1 v 2 h 1 v 1 h 1 v 2 h 1 v 1 h 1 v 2 h 1 v 1 h 1 v 2 h 1 v 2 h 1 v 1 h 1 v 2 h 1 v 1 h 1 v 2 h 1 v 1 h 1 v 2 h 1 v 1 h 1 v 2 h 1 v 2 h 1 v 1 h 1 v 2 h 1 v 1 h 1 v 2 h 1 v 1 h 1 v 2 h 1 v 2 h 1 v 1 h 1 v 2 h 1 v 1 h 1 v 2 h 1 v 1 h 1 v 2 h 1 v 1 h 1 v 2 h 1 v 2 h 1 v 1 h 1 v 2 h 1 v 1 h 1 v 2 h 1 v 1 h 1 v 2 h 1 v 2 h 1 v 1 h 1 v 2 h 1 v 1 h 1 v 2 h 1 v 1 h 1 v 2 h 1 v 2 h 1 v 1 h 1 v 2 h 1 v 1 h 1 v 2 h 1 v 1 h 1 v 2 h 1 v 1 h 1 v 2 h 1 v 2 h 1 v 1 h 1 v 2 h 1 v 1 h 1 v 2 h 1 v 1 h 1 v 2 h 1 v 2 h 1 v 1 h 1 v 2 h 1 v 1 h 1 v 2 h 1 v 1 h 1 v 2 h 1 v 1 h 1 v 2 h 1 v 2 h 1 v 1 h 1 v 2 h 1 v 1 h 1 v 2 h 1 v 1 h 1 v 2 h 1 v 2 h 1 v 1 h 1 v 2 h 1 v 1 h 1 v 2 h 1 v 1 h 1 v 2 h 1 v 1 h 1 v 2 h 1 v 2 h 1 v 1 h 1 v 2 h 1 v 1 h 1 v 2 h 1 v 1 h 1 v 2 h 1 v 2 h 1 v 1 h 1 v 2 h 1 v 1 h 1 v 2 h 1 v 1 h 1 v 1 h -397 v 119 h 611 v -2 h -1 v -2 h -1 v -1 h -1 v -2 h -1 v -1 h -1 v -2 h -1 v -1 h -1 v -2 h -1 v -2 h -1 v -1 h -1 v -2 h -1 v -1 h -1 v -2 h -1 v -1 h -1 v -2 h -1 v -2 h -1 v -1 h -1 v -2 h -1 v -1 h -1 v -2 h -1 v -1 h -1 v -2 h -1 v -2 h -1 v -1 h -1 v -2 h -1 v -1 h -1 v -2 h -1 v -1 h -1 v -2 h -1 v -1 h -1 v -2 h -1 v -2 h -1 v -1 h -1 v -2 h -1 v -1 h -1 v -2 h -1 v -1 h -1 v -2 h -1 v -2 h -1 v -1 h -1 v -2 h -1 v -1 h -1 v -2 h -1 v -1 h -1 v -2 h -1 v -2 h -1 v -1 h -1 v -2 h -1 v -1 h -1 v -2 h -1 v -1 h -1 v -2 h -1 v -2 h -1 v -1 h -1 v -2 h -1 v -1 h -1 v -2 h -1 v -1 h -1 v -2 h -1 v -1 h -1 v -2 h -1 v -2 h -1 v -1 h -1 v -2 h -1 v -1 h -1 v -2 h -1 v -1 h -1 v -2 h -1 v -2 h -1 v -1 h -1 v -2 h -1 v -1 h -1 v -2 h -1 v -1 h -1 v -2 h -1 v -2 h -1 v -1 h -1 v -2 h -1 v -1 h -1 v -2 h -1 v -1 h -1 v -2 h -1 v -2 h -1 v -1 h -1 v -2 h -1 v -1 h -1 v -2 h -1 v -1 h -1 v -2 h -1 v -1 h -1 v -2 h -1 v -2 h -1 v -1 h -1 v -2 h -1 v -1 h -1 v -2 h -1 v -1 h -1 v -2 h -1 v -2 h -1 v -1 h -1 v -2 h -1 v -1 h -1 v -2 h -1 v -1 h -1 v -2 h -1 v -2 h -1 v -1 h -1 v -2 h -1 v -1 h -1 v -2 h -1 v -1 h -1 v -2 h -1 v -1 h -1 v -2 h -1 v -2 h -1 v -1 h -1 v -2 h -1 v -1 h -1 v -2 h -1 v -1 h -1 v -2 h -1 v -2 h -1 v -1 h -1 v -2 h -1 v -1 h -1 v -2 h -1 v -1 h -1 v -2 h -1 v -2 h -1 v -1 h -1 v -2 h -1 v -1 h -1 v -2 h -1 v -1 h -1 v -2 h -1 v -2 h -1 v -1 h -1 v -2 h -1 v -1 h -1 v -2 h -1 v -1 h -1 v -2 h -1 v -1 h -1 v -2 h -1 v -2 h -1 v -1 h -1 v -2 h -1 v -1 h -1 v -2 h -1 v -1 h -1 v -2 h -1 v -2 h -1 v -1 h -1 v -2 h -1 v -1 h -1 v -2 h -1 v -1 h -1 v -2 h -1 v -2 h -1 v -1 h -1 v -2 h -1 v -1 h -1 v -2 h -1 v -1 h -1 v -2 h -1 v -2 h -1 v -1 h -1 v -2 h -1 v -1 h -1 v -2 h -1 v -1 h -1 v -2 h -1 v -1 h -1 v -2 h -1 v -2 h -1 v -1 h -1 v -2 h -1 v -1 h -1 v -2 h -1 v -1 h -1 v -2 h -1 v -2 h -1 v -1 h -1 v -2 h -1 v -1 h -1 v -2 h -1 v -1 h -1 v -2 h -1 v -2 h -1 v -1 h -1 v -2 h -1 v -1 h -1 v -2 h -1 v -1 h -1 v -2 h -1 v -1 h -1 v -2 h -1 v -2 h -1 v -1 h -1 v -2 h -1 v -1 h -1 v -2 h -1 v -1 h -1 v -2 h -1 v -2 h -1 v -1 h -1 v -2 h -1 v -1 h -1 v -2 h -1 v -1 h -1 v -2 h -1 v -2 h -1 v -1 h -1 v -2 h -1 v -1 h -1 v -2 h -1 v -1 h -1 v -2 h -1 v -2 h -1 v -1 h -1 v -2 h -1 v -1 h -1 v -2 h -1 v -1 h -1 v -2 h -1 v -1 h -1 v -2 h -1 v -2 h -1 v -1 h -1 v -2 h -1 v -1 h -1 v -2 h -1 v -1 h -1 v -2 h -1 v -2 h -1 v -1 h -1 v -2 h -1 v -1 h -1 v -2 h -1 v -1 h -1 v -2 h -1 v -2 h -1 v -1 h -1 v -2 h -1 v -1 h -1 v -2 h -1 v -1 h -1 v -2 h -1 v -2 h -1 v -1 h -1 v -2 h -1 v -1 h -1 v -2 h -1 v -1 h -1 v -2 h -1 v -1 h -1 v -2 h -1 v -2 h -1 v -1 h -1 v -2 h -1 v -1 h -1 v -2 h -1 v -1 h -1 v -2 h -1 v -2 h -1 v -1 h -1 v -2 h -1 v -1 h -1 v -2 h -1 v -1 h -1 v -2 h -1 v -2 h -1 v -1 h -1 v -2 h -1 v -1 h -1 v -2 h -1 v -1 h -1 v -2 h -1 v -1 h -1 v -2 h -1 v -2 h -1 v -1 h -1 v -2 h -1 v -1 h -1 v -2 h -1 v -1 h -1 v -2 h -1 v -2 h -1 v -1 h -1 v -2 h -1 v -1 h -1 v -2 h -1 v -1 h -1 v -2 h -1 v -2 h -1 v -1 h -1 v -2 h -1 v -1 h -1 v -2 h -1 v -1 h -1 v -2 h -1 v -2 h -1 v -1 h -1 v -2 h -1 v -1 h -1 v -2 h -1 v -1 h -1 v -2 h -1 v -1 h -1 v -2 h -1 v -2 h -1 v -1 h -1 v -2 h -1 v -1 h -1 v -2 h -1 v -1 h -1 v -2 h -1 v -2 h -1 v -1 h -1 v -2 h -1 v -1 h -1 v -2 h -1 v -1 h -1 v -2 h -1 v -2 h -1 v -1 h -1 v -2 h -1 v -1 h -1 v -2 h -1 v -1 h -1 v -2 h -1 v -1 h -1 v -2 h -1 v -2 h -1 v -1 h -1 v -2 h -1 v -1 h -1 v -2 h -1 v -1 h -1 v -2 h -1 v -2 h -1 v -1 h -1 v -2 h -1 v -1 h -1 v -2 h -1 v -1 h -1 v -2 h -1 v -2 h -1 v -1 h -1 v -2 h -1 v -1 h -1 v -2 h -1 v -1 h -1 v -2 h -1 v -2 h -1 v -1 h -1 v -2 h -1 v -1 h -1 v -2 h -1 v -1 h -1 v -2 h -1 v -1 h -1 v -2 h -1 v -2 h -1 v -1 h -1 v -2 h -1 v -1 h -1 v -2 h -1 v -1 h -1 v -2 h -1 v -2 h -1 v -1 h -1 v -2 h -1 v -1 h -1 v -2 h -1 v -1 h -1 v -2 h -1 v -2 h -1 v -1 h -1 v -2 h -1 v -1 h -1 v -2 h -1 v -1 h -1 v -2 h -1 v -2 h -1 v -1 h -1 v -2 h -1 v -1 h -1 v -2 h -1 v -1 h -1 v -2 h -1 v -1 h -1 v -2 h -1 v -2 h -1 v -1 h -1 v -2 h -1 v -1 h -1 v -2 h -1 v -1 h -1 v -2 h -1 v -2 h -1 v -1 h -1 v -2 h -1 v -1 h -1 v -2 h -1 v -1 h -1 v -2 h -1 v -2 h -1 v -1 h -1 v -2 h -1 v -1 h -1 v -2 h -1 v -1 h -1 v -2 h -1 v -1 h -1 v -2 h -1 v -2 h -1 v -1 h -1 v -2 h -1 v -1 h -1 v -2 h -1 v -1 h -1 v -2 h -1 v -2 h -1 v -1 h -1 v -2 h -1 v -1 h -1 v -2 h -1 v -1 h -1 v -2 h -1 v -2 h -1 v -1 h -1 v -2 h -1 v -1 h -1 v -2 h -1 v -1 h -1 v -2 h -1 v -2 h -1 v -1 h -1 v -2 h -1 v -1 h -1 v -2 h -1 v -1 h -1 v -2 h -1 v -1 h -1 v -2 h -1 v -2 h -1 v -1 h -1 v -2 h -1 v -1 h -1 v -2 h -1 v -1 h -1 v -2 h -1 v -2 h -1 v -1 h -1 v -2 h -1 v -1 h -1 v -2 h -1 v -1 h -1 v -2 h -1 v -2 h -1 v -1 h -1 v -2 h -1 v -1 h -1 v -2 h -1 v -1 h -1 v -2 h -1 v -2 h -1 v -1 h -1 v -2 h -1 v -1 h -1 v -2 h -1 v -1 z m -466,108 v -1 h 24 v 1 h 14 v 1 h 7 v 1 h 6 v 1 h 7 v 1 h 6 v 1 h 4 v 1 h 4 v 1 h 3 v 1 h 4 v 1 h 4 v 1 h 4 v 1 h 3 v 1 h 2 v 1 h 3 v 1 h 3 v 1 h 3 v 1 h 2 v 1 h 3 v 1 h 3 v 1 h 2 v 1 h 2 v 1 h 2 v 1 h 2 v 1 h 2 v 1 h 2 v 1 h 2 v 1 h 3 v 1 h 2 v 1 h 2 v 1 h 2 v 1 h 1 v 1 h 2 v 1 h 2 v 1 h 1 v 1 h 2 v 1 h 2 v 1 h 1 v 1 h 2 v 1 h 1 v 1 h 2 v 1 h 2 v 1 h 1 v 1 h 2 v 1 h 1 v 1 h 1 v 1 h 2 v 1 h 1 v 1 h 1 v 1 h 2 v 1 h 1 v 1 h 1 v 1 h 2 v 1 h 1 v 1 h 1 v 1 h 2 v 1 h 1 v 1 h 1 v 1 h 1 v 1 h 2 v 1 h 1 v 1 h 1 v 1 h 1 v 1 h 1 v 1 h 1 v 1 h 1 v 1 h 1 v 1 h 1 v 1 h 1 v 1 h 1 v 1 h 1 v 1 h 1 v 1 h 2 v 1 h 1 v 1 h 1 v 1 h 1 v 2 h 1 v 1 h 1 v 1 h 1 v 1 h 1 v 1 h 1 v 1 h 1 v 1 h 1 v 1 h 1 v 2 h 1 v 1 h 1 v 1 h 1 v 1 h 1 v 1 h 1 v 1 h 1 v 1 h 1 v 2 h 1 v 1 h 1 v 1 h 1 v 2 h 1 v 1 h 1 v 2 h 1 v 1 h 1 v 1 h 1 v 2 h 1 v 1 h 1 v 1 h 1 v 2 h 1 v 1 h 1 v 2 h 1 v 1 h 1 v 2 h 1 v 2 h 1 v 1 h 1 v 2 h 1 v 2 h 1 v 1 h 1 v 2 h 1 v 2 h 1 v 1 h 1 v 2 h 1 v 2 h 1 v 2 h 1 v 2 h 1 v 2 h 1 v 2 h 1 v 2 h 1 v 2 h 1 v 3 h 1 v 2 h 1 v 2 h 1 v 2 h 1 v 2 h 1 v 3 h 1 v 3 h 1 v 3 h 1 v 3 h 1 v 2 h 1 v 3 h 1 v 3 h 1 v 3 h 1 v 4 h 1 v 4 h 1 v 4 h 1 v 4 h 1 v 4 h 1 v 4 h 1 v 7 h 1 v 7 h 1 v 7 h 1 v 10 h 1 v 37 h -1 v 11 h -1 v 6 h -1 v 7 h -1 v 7 h -1 v 4 h -1 v 4 h -1 v 4 h -1 v 4 h -1 v 4 h -1 v 4 h -1 v 3 h -1 v 3 h -1 v 3 h -1 v 3 h -1 v 2 h -1 v 3 h -1 v 3 h -1 v 3 h -1 v 2 h -1 v 2 h -1 v 2 h -1 v 3 h -1 v 2 h -1 v 2 h -1 v 2 h -1 v 2 h -1 v 2 h -1 v 2 h -1 v 2 h -1 v 2 h -1 v 2 h -1 v 1 h -1 v 2 h -1 v 2 h -1 v 1 h -1 v 2 h -1 v 2 h -1 v 2 h -1 v 1 h -1 v 2 h -1 v 2 h -1 v 1 h -1 v 1 h -1 v 2 h -1 v 1 h -1 v 1 h -1 v 2 h -1 v 1 h -1 v 2 h -1 v 1 h -1 v 1 h -1 v 2 h -1 v 1 h -1 v 1 h -1 v 2 h -1 v 1 h -1 v 1 h -1 v 1 h -1 v 1 h -1 v 1 h -1 v 1 h -1 v 2 h -1 v 1 h -1 v 1 h -1 v 1 h -1 v 1 h -1 v 1 h -1 v 1 h -1 v 1 h -1 v 2 h -1 v 1 h -1 v 1 h -1 v 1 h -1 v 1 h -2 v 1 h -1 v 1 h -1 v 1 h -1 v 1 h -1 v 1 h -1 v 1 h -1 v 1 h -1 v 1 h -1 v 1 h -1 v 1 h -1 v 1 h -1 v 1 h -2 v 1 h -1 v 1 h -1 v 1 h -1 v 1 h -2 v 1 h -1 v 1 h -1 v 1 h -2 v 1 h -1 v 1 h -1 v 1 h -2 v 1 h -1 v 1 h -1 v 1 h -2 v 1 h -1 v 1 h -1 v 1 h -2 v 1 h -1 v 1 h -2 v 1 h -2 v 1 h -1 v 1 h -2 v 1 h -1 v 1 h -2 v 1 h -2 v 1 h -1 v 1 h -2 v 1 h -2 v 1 h -1 v 1 h -2 v 1 h -2 v 1 h -2 v 1 h -3 v 1 h -2 v 1 h -2 v 1 h -2 v 1 h -2 v 1 h -2 v 1 h -2 v 1 h -2 v 1 h -3 v 1 h -3 v 1 h -2 v 1 h -3 v 1 h -3 v 1 h -3 v 1 h -2 v 1 h -3 v 1 h -4 v 1 h -4 v 1 h -4 v 1 h -4 v 1 h -3 v 1 h -4 v 1 h -6 v 1 h -7 v 1 h -6 v 1 h -7 v 1 h -14 v 1 h -23 v -1 h -15 v -1 h -6 v -1 h -7 v -1 h -6 v -1 h -6 v -1 h -4 v -1 h -4 v -1 h -4 v -1 h -4 v -1 h -4 v -1 h -4 v -1 h -3 v -1 h -2 v -1 h -3 v -1 h -3 v -1 h -2 v -1 h -3 v -1 h -3 v -1 h -3 v -1 h -2 v -1 h -2 v -1 h -2 v -1 h -2 v -1 h -2 v -1 h -2 v -1 h -3 v -1 h -2 v -1 h -2 v -1 h -2 v -1 h -2 v -1 h -2 v -1 h -1 v -1 h -2 v -1 h -1 v -1 h -2 v -1 h -2 v -1 h -1 v -1 h -2 v -1 h -2 v -1 h -1 v -1 h -2 v -1 h -2 v -1 h -1 v -1 h -2 v -1 h -1 v -1 h -1 v -1 h -2 v -1 h -1 v -1 h -1 v -1 h -2 v -1 h -1 v -1 h -1 v -1 h -2 v -1 h -1 v -1 h -1 v -1 h -2 v -1 h -1 v -1 h -1 v -1 h -1 v -1 h -1 v -1 h -1 v -1 h -1 v -1 h -2 v -1 h -1 v -1 h -1 v -1 h -1 v -1 h -1 v -1 h -1 v -1 h -1 v -1 h -1 v -1 h -1 v -1 h -1 v -1 h -1 v -1 h -2 v -2 h -1 v -1 h -1 v -1 h -1 v -1 h -1 v -1 h -1 v -1 h -1 v -1 h -1 v -1 h -1 v -1 h -1 v -2 h -1 v -1 h -1 v -1 h -1 v -1 h -1 v -1 h -1 v -1 h -1 v -1 h -1 v -2 h -1 v -1 h -1 v -1 h -1 v -2 h -1 v -1 h -1 v -1 h -1 v -2 h -1 v -1 h -1 v -1 h -1 v -2 h -1 v -1 h -1 v -1 h -1 v -2 h -1 v -1 h -1 v -2 h -1 v -1 h -1 v -2 h -1 v -1 h -1 v -2 h -1 v -2 h -1 v -1 h -1 v -2 h -1 v -2 h -1 v -1 h -1 v -2 h -1 v -2 h -1 v -1 h -1 v -2 h -1 v -3 h -1 v -2 h -1 v -2 h -1 v -2 h -1 v -2 h -1 v -2 h -1 v -2 h -1 v -2 h -1 v -2 h -1 v -3 h -1 v -2 h -1 v -3 h -1 v -3 h -1 v -3 h -1 v -2 h -1 v -3 h -1 v -3 h -1 v -3 h -1 v -4 h -1 v -4 h -1 v -3 h -1 v -4 h -1 v -4 h -1 v -4 h -1 v -7 h -1 v -6 h -1 v -7 h -1 v -8 h -1 v -15 h -1 v -15 h 1 v -15 h 1 v -8 h 1 v -6 h 1 v -7 h 1 v -6 h 1 v -4 h 1 v -4 h 1 v -4 h 1 v -4 h 1 v -4 h 1 v -4 h 1 v -3 h 1 v -3 h 1 v -2 h 1 v -3 h 1 v -3 h 1 v -3 h 1 v -2 h 1 v -3 h 1 v -3 h 1 v -2 h 1 v -2 h 1 v -2 h 1 v -2 h 1 v -2 h 1 v -2 h 1 v -2 h 1 v -2 h 1 v -2 h 1 v -2 h 1 v -2 h 1 v -2 h 1 v -1 h 1 v -2 h 1 v -2 h 1 v -1 h 1 v -2 h 1 v -2 h 1 v -1 h 1 v -2 h 1 v -2 h 1 v -1 h 1 v -2 h 1 v -1 h 1 v -2 h 1 v -1 h 1 v -1 h 1 v -2 h 1 v -1 h 1 v -1 h 1 v -2 h 1 v -1 h 1 v -1 h 1 v -2 h 1 v -1 h 1 v -1 h 1 v -2 h 1 v -1 h 1 v -1 h 1 v -1 h 1 v -1 h 1 v -1 h 1 v -1 h 1 v -2 h 1 v -1 h 1 v -1 h 1 v -1 h 1 v -1 h 1 v -1 h 1 v -1 h 1 v -1 h 1 v -1 h 1 v -1 h 1 v -1 h 1 v -1 h 1 v -1 h 1 v -1 h 1 v -1 h 1 v -1 h 1 v -1 h 1 v -1 h 1 v -1 h 1 v -1 h 1 v -1 h 2 v -1 h 1 v -1 h 1 v -1 h 1 v -1 h 1 v -1 h 1 v -1 h 1 v -1 h 2 v -1 h 1 v -1 h 1 v -1 h 2 v -1 h 1 v -1 h 1 v -1 h 1 v -1 h 2 v -1 h 1 v -1 h 1 v -1 h 2 v -1 h 1 v -1 h 1 v -1 h 2 v -1 h 1 v -1 h 2 v -1 h 2 v -1 h 1 v -1 h 2 v -1 h 2 v -1 h 1 v -1 h 2 v -1 h 2 v -1 h 1 v -1 h 2 v -1 h 1 v -1 h 2 v -1 h 2 v -1 h 2 v -1 h 2 v -1 h 2 v -1 h 3 v -1 h 2 v -1 h 2 v -1 h 2 v -1 h 2 v -1 h 2 v -1 h 2 v -1 h 3 v -1 h 3 v -1 h 2 v -1 h 3 v -1 h 3 v -1 h 3 v -1 h 2 v -1 h 3 v -1 h 4 v -1 h 4 v -1 h 4 v -1 h 4 v -1 h 4 v -1 h 3 v -1 h 6 v -1 h 7 v -1 h 6 v -1 h 7 v -1 z m 3,640 v -1 h 18 v 1 h 8 v 1 h 6 v 1 h 4 v 1 h 4 v 1 h 4 v 1 h 3 v 1 h 2 v 1 h 3 v 1 h 3 v 1 h 2 v 1 h 2 v 1 h 2 v 1 h 2 v 1 h 2 v 1 h 1 v 1 h 2 v 1 h 2 v 1 h 1 v 1 h 2 v 1 h 1 v 1 h 2 v 1 h 1 v 1 h 1 v 1 h 2 v 1 h 1 v 1 h 1 v 1 h 1 v 1 h 2 v 1 h 1 v 1 h 1 v 1 h 1 v 1 h 1 v 1 h 1 v 1 h 1 v 1 h 1 v 1 h 1 v 1 h 1 v 1 h 1 v 2 h 1 v 1 h 1 v 1 h 1 v 1 h 1 v 1 h 1 v 2 h 1 v 1 h 1 v 1 h 1 v 2 h 1 v 1 h 1 v 1 h 1 v 2 h 1 v 2 h 1 v 1 h 1 v 2 h 1 v 2 h 1 v 2 h 1 v 2 h 1 v 2 h 1 v 2 h 1 v 2 h 1 v 2 h 1 v 3 h 1 v 3 h 1 v 3 h 1 v 3 h 1 v 4 h 1 v 4 h 1 v 6 h 1 v 7 h 1 v 24 h -1 v 7 h -1 v 5 h -1 v 4 h -1 v 4 h -1 v 4 h -1 v 3 h -1 v 2 h -1 v 3 h -1 v 3 h -1 v 2 h -1 v 2 h -1 v 2 h -1 v 2 h -1 v 2 h -1 v 2 h -1 v 1 h -1 v 2 h -1 v 2 h -1 v 1 h -1 v 2 h -1 v 1 h -1 v 1 h -1 v 2 h -1 v 1 h -1 v 1 h -1 v 2 h -1 v 1 h -1 v 1 h -1 v 1 h -1 v 1 h -1 v 1 h -1 v 1 h -1 v 1 h -1 v 1 h -1 v 1 h -1 v 1 h -1 v 1 h -1 v 1 h -1 v 1 h -1 v 1 h -1 v 1 h -2 v 1 h -1 v 1 h -1 v 1 h -2 v 1 h -1 v 1 h -1 v 1 h -2 v 1 h -1 v 1 h -2 v 1 h -2 v 1 h -1 v 1 h -2 v 1 h -2 v 1 h -2 v 1 h -2 v 1 h -2 v 1 h -2 v 1 h -3 v 1 h -2 v 1 h -3 v 1 h -3 v 1 h -3 v 1 h -4 v 1 h -4 v 1 h -7 v 1 h -7 v 1 h -22 v -1 h -7 v -1 h -6 v -1 h -4 v -1 h -4 v -1 h -3 v -1 h -3 v -1 h -3 v -1 h -3 v -1 h -2 v -1 h -2 v -1 h -2 v -1 h -2 v -1 h -2 v -1 h -2 v -1 h -2 v -1 h -2 v -1 h -1 v -1 h -2 v -1 h -2 v -1 h -1 v -1 h -1 v -1 h -2 v -1 h -1 v -1 h -1 v -1 h -2 v -1 h -1 v -1 h -1 v -1 h -1 v -1 h -1 v -1 h -1 v -1 h -1 v -1 h -2 v -1 h -1 v -1 h -1 v -1 h -1 v -2 h -1 v -1 h -1 v -1 h -1 v -1 h -1 v -1 h -1 v -1 h -1 v -1 h -1 v -2 h -1 v -1 h -1 v -1 h -1 v -2 h -1 v -1 h -1 v -2 h -1 v -1 h -1 v -2 h -1 v -2 h -1 v -1 h -1 v -2 h -1 v -2 h -1 v -2 h -1 v -2 h -1 v -2 h -1 v -2 h -1 v -3 h -1 v -3 h -1 v -2 h -1 v -3 h -1 v -4 h -1 v -4 h -1 v -4 h -1 v -6 h -1 v -8 h -1 v -19 h 1 v -8 h 1 v -6 h 1 v -4 h 1 v -4 h 1 v -3 h 1 v -3 h 1 v -3 h 1 v -3 h 1 v -2 h 1 v -2 h 1 v -2 h 1 v -2 h 1 v -3 h 1 v -1 h 1 v -2 h 1 v -2 h 1 v -1 h 1 v -2 h 1 v -2 h 1 v -1 h 1 v -2 h 1 v -1 h 1 v -1 h 1 v -2 h 1 v -1 h 1 v -1 h 1 v -1 h 1 v -2 h 1 v -1 h 1 v -1 h 1 v -1 h 1 v -1 h 1 v -1 h 1 v -1 h 1 v -1 h 1 v -1 h 1 v -1 h 1 v -1 h 1 v -1 h 1 v -1 h 1 v -1 h 1 v -1 h 2 v -1 h 1 v -1 h 1 v -1 h 1 v -1 h 2 v -1 h 1 v -1 h 1 v -1 h 2 v -1 h 2 v -1 h 1 v -1 h 2 v -1 h 1 v -1 h 2 v -1 h 2 v -1 h 2 v -1 h 2 v -1 h 2 v -1 h 2 v -1 h 3 v -1 h 2 v -1 h 3 v -1 h 3 v -1 h 4 v -1 h 3 v -1 h 4 v -1 h 6 v -1" /></clipPath></defs><g
     transform="matrix(1.3333333,0,0,-1.3333333,0,281.34667)"
     id="g10"><g
       transform="scale(0.1)"
       id="g12"><path
         id="path14"
         style="fill:#133a50;fill-opacity:1;fill-rule:nonzero;stroke:none"
         d="M 1127.47,420.141 H 995.293 V 728.93 h 132.177 c 111.08,0 174.39,-47.739 174.39,-153.27 0,-105.531 -62.19,-155.519 -174.39,-155.519 m 5.55,422.109 H 866.43 V 13.582 H 995.293 V 306.82 h 137.727 c 172.17,0 299.92,87.77 299.92,268.84 0,181.051 -127.75,266.59 -299.92,266.59" /><path
         id="path16"
         style="fill:#133a50;fill-opacity:1;fill-rule:nonzero;stroke:none"
         d="M 6594.86,420.141 H 6461.57 V 728.93 h 133.29 c 111.09,0 174.39,-47.739 174.39,-153.27 0,-105.531 -62.2,-155.519 -174.39,-155.519 m 4.46,422.109 h -266.6 V 13.582 h 128.85 V 306.82 h 137.75 c 173.27,0 301.01,87.77 301.01,268.84 0,181.051 -127.74,266.59 -301.01,266.59" /><path
         id="path18"
         style="fill:#133a50;fill-opacity:1;fill-rule:nonzero;stroke:none"
         d="m 5875.06,312.391 c 0,-134.411 -66.65,-193.27 -187.73,-193.27 -119.96,0 -185.51,58.859 -185.51,193.27 V 842.25 H 5372.97 V 304.609 c 0,-201.039 134.41,-302.14025 314.36,-302.14025 179.96,0 315.48,101.10125 315.48,302.14025 V 842.25 H 5875.06 V 312.391" /><path
         id="path20"
         style="fill:#133a50;fill-opacity:1;fill-rule:nonzero;stroke:none"
         d="m 1837.27,374.602 h 258.82 V 484.559 H 1837.27 V 728.93 h 396.56 V 842.25 H 1708.42 V 13.5898 H 2251.6 V 126.891 h -414.33 v 247.711" /><path
         id="path22"
         style="fill:#133a50;fill-opacity:1;fill-rule:nonzero;stroke:none"
         d="m 357.684,479 -121.082,26.672 c -64.43,14.449 -101.079,54.437 -101.079,113.297 0,74.429 65.54,129.961 152.176,129.961 82.196,0 142.184,-26.66 181.059,-65.532 l 57.769,91.09 C 473.211,821.148 406.559,857.801 285.484,857.801 137.75,857.801 12.2148,744.5 12.2148,610.09 c 0,-115.531 74.4258,-198.828 202.1642,-226.61 l 115.527,-25.539 c 74.434,-15.55 117.742,-61.101 117.742,-121.07 0,-61.101 -42.214,-125.539 -162.164,-125.539 -106.632,0 -174.398,44.438 -227.7145,93.316 L 0,113.559 C 59.9844,56.9102 146.621,0.25 286.59,0.25 c 163.285,0 285.48,105.531 285.48,245.48 0,117.758 -77.761,203.29 -214.386,233.27" /><path
         id="path24"
         style="fill:#133a50;fill-opacity:1;fill-rule:nonzero;stroke:none"
         d="m 3774.52,126.891 h -91.08 V 728.93 h 91.08 c 215.5,0 315.47,-124.391 315.47,-301.02 0,-176.621 -99.97,-301.019 -315.47,-301.019 m 7.78,715.359 H 3554.59 V 13.5898 h 227.71 c 266.59,0 442.1,165.5002 442.1,414.3202 0,248.828 -176.61,414.34 -442.1,414.34" /><path
         id="path26"
         style="fill:#133a50;fill-opacity:1;fill-rule:nonzero;stroke:none"
         d="m 4774.25,429.02 h -144.41 v 299.91 h 144.41 c 107.75,0 172.17,-43.309 172.17,-149.95 0,-104.41 -63.3,-149.96 -172.17,-149.96 m 305.46,149.96 c 0,182.168 -129.95,263.27 -301.02,263.27 H 4501 V 13.5898 h 128.84 V 321.281 H 4779.8 L 4958.64,13.5898 h 147.74 L 4911.99,341.281 c 101.07,35.539 167.72,114.399 167.72,237.699" /><path
         id="path28"
         style="fill:#133a50;fill-opacity:1;fill-rule:nonzero;stroke:none"
         d="m 3088.05,296.84 -529.87,555.41 h -9.99 V 13.5898 h 121.08 V 556.762 L 3199.12,1.35156 h 10 V 840.02 H 3088.05 V 296.84" /><path
         id="path30"
         style="fill:#133a50;fill-opacity:1;fill-rule:nonzero;stroke:none"
         d="m 7435.27,477.98 -120.86,26.372 c -63.82,14.117 -100.64,55.218 -100.64,113.507 0,74.243 65.65,130.09 152.17,130.09 82.22,0 141.12,-27 180.39,-66.277 l 57.68,90.816 c -53.38,47.242 -119.65,83.453 -240.52,83.453 -147.89,0 -272.43,-112.902 -272.43,-246.05 0,-116.582 73.63,-198.801 201.87,-227.02 l 115.35,-25.16 c 73.63,-15.961 117.19,-61.359 117.19,-121.492 0,-60.129 -42.33,-124.559 -161.98,-124.559 -106.15,0 -173.64,44.18 -227.02,93.27 l -58.29,-91.418 C 7138.31,57.0508 7225.44,0 7364.71,0 c 161.98,0 284.71,105.531 284.71,245.422 0,117.797 -77.93,203.098 -214.15,232.558" /><g
         id="g32"><g
           clip-path="url(#clipPath38)"
           id="g34"><g
             clip-path="url(#clipPath44)"
             id="g40"><g
               clip-path="url(#clipPath50)"
               id="g46"><g
                 clip-path="url(#clipPath56)"
                 id="g52"><g
                   clip-path="url(#clipPath62)"
                   id="g58"><g
                     transform="matrix(9.99744,0,0,-9.99744,7195.36,681.07)"
                     id="g64"><path
                       id="path66"
                       style="fill:#c0571f;fill-opacity:1;fill-rule:nonzero;stroke:none"
                       d="m -11.118226,3.488404 c 4.0546976,0 8.1084792,0 12.1621997,0 0,-3.17528726 0,-6.3505746 0,-9.5253733 -4.0537205,0 -8.1075021,0 -12.1621997,0 0,3.1747987 0,6.35008604 0,9.5253733 z" /><path
                       id="path68"
                       style="fill:#b8541e;fill-opacity:1;fill-rule:nonzero;stroke:none"
                       d="m -11.118226,-6.0369693 c 4.0546976,0 8.1084792,0 12.1621997,0 0,-3.1752873 0,-6.3505747 0,-9.5253737 -4.0537205,0 -8.1075021,0 -12.1621997,0 0,3.174799 0,6.3500864 0,9.5253737 z" /><path
                       id="path70"
                       style="fill:#c35c20;fill-opacity:1;fill-rule:nonzero;stroke:none"
                       d="m 1.0439737,3.488404 c 4.0537206,0 8.1074411,0 12.1612223,0 0,-3.17528726 0,-6.3505746 0,-9.5253733 -4.0537812,0 -8.1075017,0 -12.1612223,0 0,3.1747987 0,6.35008604 0,9.5253733 z" /><path
                       id="path72"
                       style="fill:#ba551f;fill-opacity:1;fill-rule:nonzero;stroke:none"
                       d="m 1.0439737,-6.0369693 c 4.0537206,0 8.1074411,0 12.1612223,0 0,-3.1752873 0,-6.3505747 0,-9.5253737 -4.0537812,0 -8.1075017,0 -12.1612223,0 0,3.174799 0,6.3500864 0,9.5253737 z" /><path
                       id="path74"
                       style="fill:#c55e20;fill-opacity:1;fill-rule:nonzero;stroke:none"
                       d="m 13.205196,3.488404 c 8.107442,0 16.214944,0 24.322385,0 0,-3.17528726 0,-6.3505746 0,-9.5253733 -8.107441,0 -16.214943,0 -24.322385,0 0,3.1747987 0,6.35008604 0,9.5253733 z" /><path
                       id="path76"
                       style="fill:#bc561f;fill-opacity:1;fill-rule:nonzero;stroke:none"
                       d="m 13.205196,-6.0369693 c 8.107442,0 16.214944,0 24.322385,0 0,-3.1752873 0,-6.3505747 0,-9.5253737 -8.107441,0 -16.214943,0 -24.322385,0 0,3.174799 0,6.3500864 0,9.5253737 z" /><path
                       id="path78"
                       style="fill:#cb6120;fill-opacity:1;fill-rule:nonzero;stroke:none"
                       d="m 37.527581,3.488404 c 8.108478,0 16.21592,0 24.323422,0 0,-3.17528726 0,-6.3505746 0,-9.5253733 -8.107502,0 -16.214944,0 -24.323422,0 0,3.1747987 0,6.35008604 0,9.5253733 z" /><path
                       id="path80"
                       style="fill:#c45d20;fill-opacity:1;fill-rule:nonzero;stroke:none"
                       d="m 37.527581,-6.0369693 c 8.108478,0 16.21592,0 24.323422,0 0,-3.1752873 0,-6.3505747 0,-9.5253737 -8.107502,0 -16.214944,0 -24.323422,0 0,3.174799 0,6.3500864 0,9.5253737 z" /><path
                       id="path82"
                       style="fill:#cf6921;fill-opacity:1;fill-rule:nonzero;stroke:none"
                       d="m 61.851003,3.488404 c 8.107441,0 16.214943,0 24.322384,0 0,-3.17528726 0,-6.3505746 0,-9.5253733 -8.107441,0 -16.214943,0 -24.322384,0 0,3.1747987 0,6.35008604 0,9.5253733 z" /><path
                       id="path84"
                       style="fill:#c96221;fill-opacity:1;fill-rule:nonzero;stroke:none"
                       d="m 61.851003,-6.0369693 c 8.107441,0 16.214943,0 24.322384,0 0,-3.1752873 0,-6.3505747 0,-9.5253737 -8.107441,0 -16.214943,0 -24.322384,0 0,3.174799 0,6.3500864 0,9.5253737 z" /><path
                       id="path86"
                       style="fill:#d67123;fill-opacity:1;fill-rule:nonzero;stroke:none"
                       d="m 86.173387,3.488404 c 4.053721,0 8.108479,0 12.1622,0 0,-3.17528726 0,-6.3505746 0,-9.5253733 -4.053721,0 -8.108479,0 -12.1622,0 0,3.1747987 0,6.35008604 0,9.5253733 z" /><path
                       id="path88"
                       style="fill:#ce6622;fill-opacity:1;fill-rule:nonzero;stroke:none"
                       d="m 86.173387,-6.0369693 c 4.053721,0 8.108479,0 12.1622,0 0,-3.1752873 0,-6.3505747 0,-9.5253737 -4.053721,0 -8.108479,0 -12.1622,0 0,3.174799 0,6.3500864 0,9.5253737 z" /><path
                       id="path90"
                       style="fill:#da7624;fill-opacity:1;fill-rule:nonzero;stroke:none"
                       d="m 98.335587,3.488404 c 4.053723,0 8.107443,0 12.161223,0 0,-3.17528726 0,-6.3505746 0,-9.5253733 -4.05378,0 -8.1075,0 -12.161223,0 0,3.1747987 0,6.35008604 0,9.5253733 z" /><path
                       id="path92"
                       style="fill:#d26b22;fill-opacity:1;fill-rule:nonzero;stroke:none"
                       d="m 98.335587,-6.0369693 c 4.053723,0 8.107443,0 12.161223,0 0,-3.1752873 0,-6.3505747 0,-9.5253737 -4.05378,0 -8.1075,0 -12.161223,0 0,3.174799 0,6.3500864 0,9.5253737 z" /><path
                       id="path94"
                       style="fill:#db7923;fill-opacity:1;fill-rule:nonzero;stroke:none"
                       d="m 110.49681,3.488404 c 8.10744,0 16.21488,0 24.32244,0 0,-6.3505746 0,-12.7006606 0,-19.050747 -8.10756,0 -16.215,0 -24.32244,0 0,6.3500864 0,12.7001724 0,19.050747 z" /><path
                       id="path96"
                       style="fill:#d97523;fill-opacity:1;fill-rule:nonzero;stroke:none"
                       d="m 134.81925,3.488404 c 8.10842,0 16.21586,0 24.3233,0 0,-6.3505746 0,-12.7006606 0,-19.050747 -8.10744,0 -16.21488,0 -24.3233,0 0,6.3500864 0,12.7001724 0,19.050747 z" /><path
                       id="path98"
                       style="fill:#d67123;fill-opacity:1;fill-rule:nonzero;stroke:none"
                       d="m 159.14255,3.488404 c 0,-6.3505746 0,-12.7006606 0,-19.050747 4.05373,0 8.10757,0 12.16129,0 0,6.3500864 0,12.7001724 0,19.050747 -4.05372,0 -8.10756,0 -12.16129,0 z" /><path
                       id="path100"
                       style="fill:#d77523;fill-opacity:1;fill-rule:nonzero;stroke:none"
                       d="m 171.30384,3.488404 c 0,-6.3505746 0,-12.7006606 0,-19.050747 4.05372,0 8.10744,0 12.16116,0 0,6.3500864 0,12.7001724 0,19.050747 -4.05372,0 -8.10744,0 -12.16116,0 z" /><path
                       id="path102"
                       style="fill:#b5521e;fill-opacity:1;fill-rule:nonzero;stroke:none"
                       d="m -11.118226,-15.562343 c 8.1084792,0 16.2159203,0 24.323422,0 0,-3.175257 0,-6.350544 0,-9.525831 -8.1075017,0 -16.2149428,0 -24.323422,0 0,3.175287 0,6.350574 0,9.525831 z" /><path
                       id="path104"
                       style="fill:#b6551f;fill-opacity:1;fill-rule:nonzero;stroke:none"
                       d="m -11.118226,-25.088174 c 8.1084792,0 16.2159203,0 24.323422,0 0,-3.174799 0,-6.350087 0,-9.525374 -8.1075017,0 -16.2149428,0 -24.323422,0 0,3.175287 0,6.350575 0,9.525374 z" /><path
                       id="path106"
                       style="fill:#b9541f;fill-opacity:1;fill-rule:nonzero;stroke:none"
                       d="m 13.205196,-15.562343 c 8.107442,0 16.214944,0 24.322385,0 0,-6.350544 0,-12.70063 0,-19.051205 -8.107441,0 -16.214943,0 -24.322385,0 0,6.350575 0,12.700661 0,19.051205 z" /><path
                       id="path108"
                       style="fill:#c05b20;fill-opacity:1;fill-rule:nonzero;stroke:none"
                       d="m 37.527581,-15.562343 c 8.108478,0 16.21592,0 24.323422,0 0,-6.350544 0,-12.70063 0,-19.051205 -8.107502,0 -16.214944,0 -24.323422,0 0,6.350575 0,12.700661 0,19.051205 z" /><path
                       id="path110"
                       style="fill:#c55e21;fill-opacity:1;fill-rule:nonzero;stroke:none"
                       d="m 61.851003,-15.562343 c 8.107441,0 16.214943,0 24.322384,0 0,-3.175257 0,-6.350544 0,-9.525831 -8.107441,0 -16.214943,0 -24.322384,0 0,3.175287 0,6.350574 0,9.525831 z" /><path
                       id="path112"
                       style="fill:#bf5c21;fill-opacity:1;fill-rule:nonzero;stroke:none"
                       d="m 61.851003,-25.088174 c 8.107441,0 16.214943,0 24.322384,0 0,-3.174799 0,-6.350087 0,-9.525374 -8.107441,0 -16.214943,0 -24.322384,0 0,3.175287 0,6.350575 0,9.525374 z" /><path
                       id="path114"
                       style="fill:#c86021;fill-opacity:1;fill-rule:nonzero;stroke:none"
                       d="m 86.173387,-15.562343 c 8.108479,0 16.215923,0 24.323423,0 0,-3.175257 0,-6.350544 0,-9.525831 -8.1075,0 -16.214944,0 -24.323423,0 0,3.175287 0,6.350574 0,9.525831 z" /><path
                       id="path116"
                       style="fill:#c35d21;fill-opacity:1;fill-rule:nonzero;stroke:none"
                       d="m 86.173387,-25.088174 c 8.108479,0 16.215923,0 24.323423,0 0,-3.174799 0,-6.350087 0,-9.525374 -8.1075,0 -16.214944,0 -24.323423,0 0,3.175287 0,6.350575 0,9.525374 z" /><path
                       id="path118"
                       style="fill:#ce6721;fill-opacity:1;fill-rule:nonzero;stroke:none"
                       d="m 110.49681,-15.562343 c 8.10744,0 16.21488,0 24.32244,0 0,-6.350544 0,-12.70063 0,-19.051205 -8.10756,0 -16.215,0 -24.32244,0 0,6.350575 0,12.700661 0,19.051205 z" /><path
                       id="path120"
                       style="fill:#d26c22;fill-opacity:1;fill-rule:nonzero;stroke:none"
                       d="m 134.81925,-15.562343 c 8.10842,0 16.21586,0 24.3233,0 0,-6.350544 0,-12.70063 0,-19.051205 -8.10744,0 -16.21488,0 -24.3233,0 0,6.350575 0,12.700661 0,19.051205 z" /><path
                       id="path122"
                       style="fill:#d16a22;fill-opacity:1;fill-rule:nonzero;stroke:none"
                       d="m 159.14255,-15.562343 c 0,-6.350544 0,-12.70063 0,-19.051205 4.05373,0 8.10757,0 12.16129,0 0,6.350575 0,12.700661 0,19.051205 -4.05372,0 -8.10756,0 -12.16129,0 z" /><path
                       id="path124"
                       style="fill:#d36e24;fill-opacity:1;fill-rule:nonzero;stroke:none"
                       d="m 171.30384,-15.562343 c 4.05372,0 8.10744,0 12.16116,0 0,-3.175257 0,-6.350544 0,-9.525831 -4.05372,0 -8.10744,0 -12.16116,0 0,3.175287 0,6.350574 0,9.525831 z" /><path
                       id="path126"
                       style="fill:#d16d23;fill-opacity:1;fill-rule:nonzero;stroke:none"
                       d="m 171.30384,-25.088174 c 4.05372,0 8.10744,0 12.16116,0 0,-3.174799 0,-6.350087 0,-9.525374 -4.05372,0 -8.10744,0 -12.16116,0 0,3.175287 0,6.350575 0,9.525374 z" /><path
                       id="path128"
                       style="fill:#b65920;fill-opacity:1;fill-rule:nonzero;stroke:none"
                       d="m -11.118226,-34.613548 c 8.1084792,0 16.2159203,0 24.323422,0 0,-6.350086 0,-12.700172 0,-19.050747 -8.1075017,0 -16.2149428,0 -24.323422,0 0,6.350575 0,12.700661 0,19.050747 z" /><path
                       id="path130"
                       style="fill:#b95821;fill-opacity:1;fill-rule:nonzero;stroke:none"
                       d="m 13.205196,-34.613548 c 8.107442,0 16.214944,0 24.322385,0 0,-6.350086 0,-12.700172 0,-19.050747 -8.107441,0 -16.214943,0 -24.322385,0 0,6.350575 0,12.700661 0,19.050747 z" /><path
                       id="path132"
                       style="fill:#bc5d21;fill-opacity:1;fill-rule:nonzero;stroke:none"
                       d="m 37.527581,-34.613548 c 8.108478,0 16.21592,0 24.323422,0 0,-3.174799 0,-6.350086 0,-9.525373 -8.107502,0 -16.214944,0 -24.323422,0 0,3.175287 0,6.350574 0,9.525373 z" /><path
                       id="path134"
                       style="fill:#be5f23;fill-opacity:1;fill-rule:nonzero;stroke:none"
                       d="m 37.527581,-44.138921 c 8.108478,0 16.21592,0 24.323422,0 0,-3.174799 0,-6.350087 0,-9.525374 -8.107502,0 -16.214944,0 -24.323422,0 0,3.175287 0,6.350575 0,9.525374 z" /><path
                       id="path136"
                       style="fill:#bd5a21;fill-opacity:1;fill-rule:nonzero;stroke:none"
                       d="m 61.851003,-34.613548 c 8.107441,0 16.214943,0 24.322384,0 0,-3.174799 0,-6.350086 0,-9.525373 -8.107441,0 -16.214943,0 -24.322384,0 0,3.175287 0,6.350574 0,9.525373 z" /><path
                       id="path138"
                       style="fill:#bf5f23;fill-opacity:1;fill-rule:nonzero;stroke:none"
                       d="m 61.851003,-44.138921 c 8.107441,0 16.214943,0 24.322384,0 0,-3.174799 0,-6.350087 0,-9.525374 -8.107441,0 -16.214943,0 -24.322384,0 0,3.175287 0,6.350575 0,9.525374 z" /><path
                       id="path140"
                       style="fill:#c15c21;fill-opacity:1;fill-rule:nonzero;stroke:none"
                       d="m 86.173387,-34.613548 c 8.108479,0 16.215923,0 24.323423,0 0,-3.174799 0,-6.350086 0,-9.525373 -8.1075,0 -16.214944,0 -24.323423,0 0,3.175287 0,6.350574 0,9.525373 z" /><path
                       id="path142"
                       style="fill:#c15e22;fill-opacity:1;fill-rule:nonzero;stroke:none"
                       d="m 86.173387,-44.138921 c 8.108479,0 16.215923,0 24.323423,0 0,-3.174799 0,-6.350087 0,-9.525374 -8.1075,0 -16.214944,0 -24.323423,0 0,3.175287 0,6.350575 0,9.525374 z" /><path
                       id="path144"
                       style="fill:#c55e21;fill-opacity:1;fill-rule:nonzero;stroke:none"
                       d="m 110.49681,-34.613548 c 8.10744,0 16.21488,0 24.32244,0 0,-3.174799 0,-6.350086 0,-9.525373 -8.10756,0 -16.215,0 -24.32244,0 0,3.175287 0,6.350574 0,9.525373 z" /><path
                       id="path146"
                       style="fill:#c05c21;fill-opacity:1;fill-rule:nonzero;stroke:none"
                       d="m 110.49681,-44.138921 c 8.10744,0 16.21488,0 24.32244,0 0,-3.174799 0,-6.350087 0,-9.525374 -8.10756,0 -16.215,0 -24.32244,0 0,3.175287 0,6.350575 0,9.525374 z" /><path
                       id="path148"
                       style="fill:#c96221;fill-opacity:1;fill-rule:nonzero;stroke:none"
                       d="m 134.81925,-34.613548 c 8.10842,0 16.21586,0 24.3233,0 0,-6.350086 0,-12.700172 0,-19.050747 -8.10744,0 -16.21488,0 -24.3233,0 0,6.350575 0,12.700661 0,19.050747 z" /><path
                       id="path150"
                       style="fill:#cb6621;fill-opacity:1;fill-rule:nonzero;stroke:none"
                       d="m 159.14255,-34.613548 c 8.10757,0 16.21501,0 24.32245,0 0,-6.350086 0,-12.700172 0,-19.050747 -8.10744,0 -16.21488,0 -24.32245,0 0,6.350575 0,12.700661 0,19.050747 z" /><path
                       id="path152"
                       style="fill:#ba5f25;fill-opacity:1;fill-rule:nonzero;stroke:none"
                       d="m -11.118226,-53.664295 c 8.1084792,0 16.2159203,0 24.323422,0 0,-6.350086 0,-12.700172 0,-19.050717 -8.1075017,0 -16.2149428,0 -24.323422,0 0,6.350545 0,12.700631 0,19.050717 z" /><path
                       id="path154"
                       style="fill:#c06726;fill-opacity:1;fill-rule:nonzero;stroke:none"
                       d="m 13.205196,-53.664295 c 8.107442,0 16.214944,0 24.322385,0 0,-6.350086 0,-12.700172 0,-19.050717 -8.107441,0 -16.214943,0 -24.322385,0 0,6.350545 0,12.700631 0,19.050717 z" /><path
                       id="path156"
                       style="fill:#c36425;fill-opacity:1;fill-rule:nonzero;stroke:none"
                       d="m 37.527581,-53.664295 c 8.108478,0 16.21592,0 24.323422,0 0,-6.350086 0,-12.700172 0,-19.050717 -8.107502,0 -16.214944,0 -24.323422,0 0,6.350545 0,12.700631 0,19.050717 z" /><path
                       id="path158"
                       style="fill:#c36726;fill-opacity:1;fill-rule:nonzero;stroke:none"
                       d="m 61.851003,-53.664295 c 8.107441,0 16.214943,0 24.322384,0 0,-6.350086 0,-12.700172 0,-19.050717 -8.107441,0 -16.214943,0 -24.322384,0 0,6.350545 0,12.700631 0,19.050717 z" /><path
                       id="path160"
                       style="fill:#c26324;fill-opacity:1;fill-rule:nonzero;stroke:none"
                       d="m 86.173387,-53.664295 c 8.108479,0 16.215923,0 24.323423,0 0,-6.350086 0,-12.700172 0,-19.050717 -8.1075,0 -16.214944,0 -24.323423,0 0,6.350545 0,12.700631 0,19.050717 z" /><path
                       id="path162"
                       style="fill:#be5c21;fill-opacity:1;fill-rule:nonzero;stroke:none"
                       d="m 110.49681,-53.664295 c 8.10744,0 16.21488,0 24.32244,0 0,-6.350086 0,-12.700172 0,-19.050717 -8.10756,0 -16.215,0 -24.32244,0 0,6.350545 0,12.700631 0,19.050717 z" /><path
                       id="path164"
                       style="fill:#c35f21;fill-opacity:1;fill-rule:nonzero;stroke:none"
                       d="m 134.81925,-53.664295 c 8.10842,0 16.21586,0 24.3233,0 0,-6.350086 0,-12.700172 0,-19.050717 -8.10744,0 -16.21488,0 -24.3233,0 0,6.350545 0,12.700631 0,19.050717 z" /><path
                       id="path166"
                       style="fill:#c86221;fill-opacity:1;fill-rule:nonzero;stroke:none"
                       d="m 159.14255,-53.664295 c 8.10757,0 16.21501,0 24.32245,0 0,-6.350086 0,-12.700172 0,-19.050717 -8.10744,0 -16.21488,0 -24.32245,0 0,6.350545 0,12.700631 0,19.050717 z" /><path
                       id="path168"
                       style="fill:#c9722a;fill-opacity:1;fill-rule:nonzero;stroke:none"
                       d="m -11.118226,-72.715012 c 0,-6.350086 0,-12.700172 0,-19.050747 4.0546976,0 8.1084792,0 12.1621997,0 0,6.350575 0,12.700661 0,19.050747 -4.0537205,0 -8.1075021,0 -12.1621997,0 z" /><path
                       id="path170"
                       style="fill:#cb742b;fill-opacity:1;fill-rule:nonzero;stroke:none"
                       d="m 1.0439737,-72.715012 c 0,-6.350086 0,-12.700172 0,-19.050747 4.0537206,0 8.1074411,0 12.1612223,0 0,6.350575 0,12.700661 0,19.050747 -4.0537812,0 -8.1075017,0 -12.1612223,0 z" /><path
                       id="path172"
                       style="fill:#cd772b;fill-opacity:1;fill-rule:nonzero;stroke:none"
                       d="m 13.205196,-72.715012 c 8.107442,0 16.214944,0 24.322385,0 0,-6.350086 0,-12.700172 0,-19.050747 -8.107441,0 -16.214943,0 -24.322385,0 0,6.350575 0,12.700661 0,19.050747 z" /><path
                       id="path174"
                       style="fill:#d07b2c;fill-opacity:1;fill-rule:nonzero;stroke:none"
                       d="m 37.527581,-72.715012 c 8.108478,0 16.21592,0 24.323422,0 0,-6.350086 0,-12.700172 0,-19.050747 -8.107502,0 -16.214944,0 -24.323422,0 0,6.350575 0,12.700661 0,19.050747 z" /><path
                       id="path176"
                       style="fill:#cc742b;fill-opacity:1;fill-rule:nonzero;stroke:none"
                       d="m 61.851003,-72.715012 c 0,-6.350086 0,-12.700172 0,-19.050747 4.05372,0 8.107441,0 12.161161,0 0,6.350575 0,12.700661 0,19.050747 -4.05372,0 -8.107441,0 -12.161161,0 z" /><path
                       id="path178"
                       style="fill:#c9722a;fill-opacity:1;fill-rule:nonzero;stroke:none"
                       d="m 74.012164,-72.715012 c 0,-6.350086 0,-12.700172 0,-19.050747 4.053782,0 8.107503,0 12.161223,0 0,6.350575 0,12.700661 0,19.050747 -4.05372,0 -8.107441,0 -12.161223,0 z" /><path
                       id="path180"
                       style="fill:#c87028;fill-opacity:1;fill-rule:nonzero;stroke:none"
                       d="m 86.173387,-72.715012 c 8.108479,0 16.215923,0 24.323423,0 0,-6.350086 0,-12.700172 0,-19.050747 -8.1075,0 -16.214944,0 -24.323423,0 0,6.350575 0,12.700661 0,19.050747 z" /><path
                       id="path182"
                       style="fill:#c46726;fill-opacity:1;fill-rule:nonzero;stroke:none"
                       d="m 110.49681,-72.715012 c 8.10744,0 16.21488,0 24.32244,0 0,-6.350086 0,-12.700172 0,-19.050747 -8.10756,0 -16.215,0 -24.32244,0 0,6.350575 0,12.700661 0,19.050747 z" /><path
                       id="path184"
                       style="fill:#c06023;fill-opacity:1;fill-rule:nonzero;stroke:none"
                       d="m 134.81925,-72.715012 c 0,-6.350086 0,-12.700172 0,-19.050747 4.05373,0 8.10842,0 12.16214,0 0,6.350575 0,12.700661 0,19.050747 -4.05372,0 -8.10841,0 -12.16214,0 z" /><path
                       id="path186"
                       style="fill:#c15e22;fill-opacity:1;fill-rule:nonzero;stroke:none"
                       d="m 146.98139,-72.715012 c 0,-6.350086 0,-12.700172 0,-19.050747 4.05372,0 8.10744,0 12.16116,0 0,6.350575 0,12.700661 0,19.050747 -4.05372,0 -8.10744,0 -12.16116,0 z" /><path
                       id="path188"
                       style="fill:#c45f22;fill-opacity:1;fill-rule:nonzero;stroke:none"
                       d="m 159.14255,-72.715012 c 0,-6.350086 0,-12.700172 0,-19.050747 4.05373,0 8.10757,0 12.16129,0 0,6.350575 0,12.700661 0,19.050747 -4.05372,0 -8.10756,0 -12.16129,0 z" /><path
                       id="path190"
                       style="fill:#c86222;fill-opacity:1;fill-rule:nonzero;stroke:none"
                       d="m 171.30384,-72.715012 c 0,-6.350086 0,-12.700172 0,-19.050747 4.05372,0 8.10744,0 12.16116,0 0,6.350575 0,12.700661 0,19.050747 -4.05372,0 -8.10744,0 -12.16116,0 z" /><path
                       id="path192"
                       style="fill:#d3812d;fill-opacity:1;fill-rule:nonzero;stroke:none"
                       d="m -11.118226,-91.765759 c 0,-6.350086 0,-12.700171 0,-19.050751 4.0546976,0 8.1084792,0 12.1621997,0 0,6.35058 0,12.700665 0,19.050751 -4.0537205,0 -8.1075021,0 -12.1621997,0 z" /><path
                       id="path194"
                       style="fill:#d88931;fill-opacity:1;fill-rule:nonzero;stroke:none"
                       d="m 1.0439737,-91.765759 c 0,-6.350086 0,-12.700171 0,-19.050751 4.0537206,0 8.1074411,0 12.1612223,0 0,6.35058 0,12.700665 0,19.050751 -4.0537812,0 -8.1075017,0 -12.1612223,0 z" /><path
                       id="path196"
                       style="fill:#dd9033;fill-opacity:1;fill-rule:nonzero;stroke:none"
                       d="m 13.205196,-91.765759 c 8.107442,0 16.214944,0 24.322385,0 0,-6.350086 0,-12.700171 0,-19.050751 -8.107441,0 -16.214943,0 -24.322385,0 0,6.35058 0,12.700665 0,19.050751 z" /><path
                       id="path198"
                       style="fill:#dd9235;fill-opacity:1;fill-rule:nonzero;stroke:none"
                       d="m 37.527581,-91.765759 c 8.108478,0 16.21592,0 24.323422,0 0,-6.350086 0,-12.700171 0,-19.050751 -8.107502,0 -16.214944,0 -24.323422,0 0,6.35058 0,12.700665 0,19.050751 z" /><path
                       id="path200"
                       style="fill:#db9033;fill-opacity:1;fill-rule:nonzero;stroke:none"
                       d="m 61.851003,-91.765759 c 0,-6.350086 0,-12.700171 0,-19.050751 4.05372,0 8.107441,0 12.161161,0 0,6.35058 0,12.700665 0,19.050751 -4.05372,0 -8.107441,0 -12.161161,0 z" /><path
                       id="path202"
                       style="fill:#d88931;fill-opacity:1;fill-rule:nonzero;stroke:none"
                       d="m 74.012164,-91.765759 c 0,-6.350086 0,-12.700171 0,-19.050751 4.053782,0 8.107503,0 12.161223,0 0,6.35058 0,12.700665 0,19.050751 -4.05372,0 -8.107441,0 -12.161223,0 z" /><path
                       id="path204"
                       style="fill:#d57f2f;fill-opacity:1;fill-rule:nonzero;stroke:none"
                       d="m 86.173387,-91.765759 c 8.108479,0 16.215923,0 24.323423,0 0,-6.350086 0,-12.700171 0,-19.050751 -8.1075,0 -16.214944,0 -24.323423,0 0,6.35058 0,12.700665 0,19.050751 z" /><path
                       id="path206"
                       style="fill:#cd752c;fill-opacity:1;fill-rule:nonzero;stroke:none"
                       d="m 110.49681,-91.765759 c 8.10744,0 16.21488,0 24.32244,0 0,-6.350086 0,-12.700171 0,-19.050751 -8.10756,0 -16.215,0 -24.32244,0 0,6.35058 0,12.700665 0,19.050751 z" /><path
                       id="path208"
                       style="fill:#c56827;fill-opacity:1;fill-rule:nonzero;stroke:none"
                       d="m 134.81925,-91.765759 c 0,-6.350086 0,-12.700171 0,-19.050751 4.05373,0 8.10842,0 12.16214,0 0,6.35058 0,12.700665 0,19.050751 -4.05372,0 -8.10841,0 -12.16214,0 z" /><path
                       id="path210"
                       style="fill:#c26225;fill-opacity:1;fill-rule:nonzero;stroke:none"
                       d="m 146.98139,-91.765759 c 0,-6.350086 0,-12.700171 0,-19.050751 4.05372,0 8.10744,0 12.16116,0 0,6.35058 0,12.700665 0,19.050751 -4.05372,0 -8.10744,0 -12.16116,0 z" /><path
                       id="path212"
                       style="fill:#c25f23;fill-opacity:1;fill-rule:nonzero;stroke:none"
                       d="m 159.14255,-91.765759 c 0,-6.350086 0,-12.700171 0,-19.050751 4.05373,0 8.10757,0 12.16129,0 0,6.35058 0,12.700665 0,19.050751 -4.05372,0 -8.10756,0 -12.16129,0 z" /><path
                       id="path214"
                       style="fill:#c36122;fill-opacity:1;fill-rule:nonzero;stroke:none"
                       d="m 171.30384,-91.765759 c 0,-6.350086 0,-12.700171 0,-19.050751 4.05372,0 8.10744,0 12.16116,0 0,6.35058 0,12.700665 0,19.050751 -4.05372,0 -8.10744,0 -12.16116,0 z" /><path
                       id="path216"
                       style="fill:#dd9233;fill-opacity:1;fill-rule:nonzero;stroke:none"
                       d="m -11.118226,-110.81651 c 8.1084792,0 16.2159203,0 24.323422,0 0,-6.35008 0,-12.70066 0,-19.05074 -8.1075017,0 -16.2149428,0 -24.323422,0 0,6.35008 0,12.70066 0,19.05074 z" /><path
                       id="path218"
                       style="fill:#e4a33e;fill-opacity:1;fill-rule:nonzero;stroke:none"
                       d="m 13.205196,-110.81651 c 0,-6.35008 0,-12.70066 0,-19.05074 4.053721,0 8.107442,0 12.161162,0 0,6.35008 0,12.70066 0,19.05074 -4.05372,0 -8.107441,0 -12.161162,0 z" /><path
                       id="path220"
                       style="fill:#e5a642;fill-opacity:1;fill-rule:nonzero;stroke:none"
                       d="m 25.366358,-110.81651 c 4.053782,0 8.107502,0 12.161223,0 0,-3.17528 0,-6.35008 0,-9.52537 -4.053721,0 -8.107441,0 -12.161223,0 0,3.17529 0,6.35009 0,9.52537 z" /><path
                       id="path222"
                       style="fill:#e6ac4d;fill-opacity:1;fill-rule:nonzero;stroke:none"
                       d="m 25.366358,-120.34188 c 4.053782,0 8.107502,0 12.161223,0 0,-3.17529 0,-6.35009 0,-9.52537 -4.053721,0 -8.107441,0 -12.161223,0 0,3.17528 0,6.35008 0,9.52537 z" /><path
                       id="path224"
                       style="fill:#e5a745;fill-opacity:1;fill-rule:nonzero;stroke:none"
                       d="m 37.527581,-110.81651 c 8.108478,0 16.21592,0 24.323422,0 0,-3.17528 0,-6.35008 0,-9.52537 -8.107502,0 -16.214944,0 -24.323422,0 0,3.17529 0,6.35009 0,9.52537 z" /><path
                       id="path226"
                       style="fill:#e6ae51;fill-opacity:1;fill-rule:nonzero;stroke:none"
                       d="m 37.527581,-120.34188 c 8.108478,0 16.21592,0 24.323422,0 0,-3.17529 0,-6.35009 0,-9.52537 -8.107502,0 -16.214944,0 -24.323422,0 0,3.17528 0,6.35008 0,9.52537 z" /><path
                       id="path228"
                       style="fill:#e3a23e;fill-opacity:1;fill-rule:nonzero;stroke:none"
                       d="m 61.851003,-110.81651 c 8.107441,0 16.214943,0 24.322384,0 0,-6.35008 0,-12.70066 0,-19.05074 -8.107441,0 -16.214943,0 -24.322384,0 0,6.35008 0,12.70066 0,19.05074 z" /><path
                       id="path230"
                       style="fill:#de9739;fill-opacity:1;fill-rule:nonzero;stroke:none"
                       d="m 86.173387,-110.81651 c 8.108479,0 16.215923,0 24.323423,0 0,-6.35008 0,-12.70066 0,-19.05074 -8.1075,0 -16.214944,0 -24.323423,0 0,6.35008 0,12.70066 0,19.05074 z" /><path
                       id="path232"
                       style="fill:#d88732;fill-opacity:1;fill-rule:nonzero;stroke:none"
                       d="m 110.49681,-110.81651 c 8.10744,0 16.21488,0 24.32244,0 0,-6.35008 0,-12.70066 0,-19.05074 -8.10756,0 -16.215,0 -24.32244,0 0,6.35008 0,12.70066 0,19.05074 z" /><path
                       id="path234"
                       style="fill:#cb742c;fill-opacity:1;fill-rule:nonzero;stroke:none"
                       d="m 134.81925,-110.81651 c 0,-6.35008 0,-12.70066 0,-19.05074 4.05373,0 8.10842,0 12.16214,0 0,6.35008 0,12.70066 0,19.05074 -4.05372,0 -8.10841,0 -12.16214,0 z" /><path
                       id="path236"
                       style="fill:#c46929;fill-opacity:1;fill-rule:nonzero;stroke:none"
                       d="m 146.98139,-110.81651 c 0,-6.35008 0,-12.70066 0,-19.05074 4.05372,0 8.10744,0 12.16116,0 0,6.35008 0,12.70066 0,19.05074 -4.05372,0 -8.10744,0 -12.16116,0 z" /><path
                       id="path238"
                       style="fill:#c16126;fill-opacity:1;fill-rule:nonzero;stroke:none"
                       d="m 159.14255,-110.81651 c 8.10757,0 16.21501,0 24.32245,0 0,-6.35008 0,-12.70066 0,-19.05074 -8.10744,0 -16.21488,0 -24.32245,0 0,6.35008 0,12.70066 0,19.05074 z" /><path
                       id="path240"
                       style="fill:#e29d39;fill-opacity:1;fill-rule:nonzero;stroke:none"
                       d="m -11.118226,-129.86725 c 0,-6.35009 0,-12.70066 0,-19.05075 4.0546976,0 8.1084792,0 12.1621997,0 0,6.35009 0,12.70066 0,19.05075 -4.0537205,0 -8.1075021,0 -12.1621997,0 z" /><path
                       id="path242"
                       style="fill:#e5a645;fill-opacity:1;fill-rule:nonzero;stroke:none"
                       d="m 1.0439737,-129.86725 c 0,-6.35009 0,-12.70066 0,-19.05075 4.0537206,0 8.1074411,0 12.1612223,0 0,6.35009 0,12.70066 0,19.05075 -4.0537812,0 -8.1075017,0 -12.1612223,0 z" /><path
                       id="path244"
                       style="fill:#e6ad4e;fill-opacity:1;fill-rule:nonzero;stroke:none"
                       d="m 13.205196,-129.86725 c 0,-6.35009 0,-12.70066 0,-19.05075 4.053721,0 8.107442,0 12.161162,0 0,6.35009 0,12.70066 0,19.05075 -4.05372,0 -8.107441,0 -12.161162,0 z" /><path
                       id="path246"
                       style="fill:#e7b257;fill-opacity:1;fill-rule:nonzero;stroke:none"
                       d="m 25.366358,-129.86725 c 4.053782,0 8.107502,0 12.161223,0 0,-3.17529 0,-6.35009 0,-9.52538 -4.053721,0 -8.107441,0 -12.161223,0 0,3.17529 0,6.35009 0,9.52538 z" /><path
                       id="path248"
                       style="fill:#e7b45d;fill-opacity:1;fill-rule:nonzero;stroke:none"
                       d="m 25.366358,-139.39263 c 4.053782,0 8.107502,0 12.161223,0 0,-3.17528 0,-6.35008 0,-9.52537 -4.053721,0 -8.107441,0 -12.161223,0 0,3.17529 0,6.35009 0,9.52537 z" /><path
                       id="path250"
                       style="fill:#e7b35c;fill-opacity:1;fill-rule:nonzero;stroke:none"
                       d="m 37.527581,-129.86725 c 8.108478,0 16.21592,0 24.323422,0 0,-3.17529 0,-6.35009 0,-9.52538 -8.107502,0 -16.214944,0 -24.323422,0 0,3.17529 0,6.35009 0,9.52538 z" /><path
                       id="path252"
                       style="fill:#e8b661;fill-opacity:1;fill-rule:nonzero;stroke:none"
                       d="m 37.527581,-139.39263 c 8.108478,0 16.21592,0 24.323422,0 0,-3.17528 0,-6.35008 0,-9.52537 -8.107502,0 -16.214944,0 -24.323422,0 0,3.17529 0,6.35009 0,9.52537 z" /><path
                       id="path254"
                       style="fill:#e6b156;fill-opacity:1;fill-rule:nonzero;stroke:none"
                       d="m 61.851003,-129.86725 c 0,-6.35009 0,-12.70066 0,-19.05075 4.05372,0 8.107441,0 12.161161,0 0,6.35009 0,12.70066 0,19.05075 -4.05372,0 -8.107441,0 -12.161161,0 z" /><path
                       id="path256"
                       style="fill:#e6ad4e;fill-opacity:1;fill-rule:nonzero;stroke:none"
                       d="m 74.012164,-129.86725 c 0,-6.35009 0,-12.70066 0,-19.05075 4.053782,0 8.107503,0 12.161223,0 0,6.35009 0,12.70066 0,19.05075 -4.05372,0 -8.107441,0 -12.161223,0 z" /><path
                       id="path258"
                       style="fill:#e5a846;fill-opacity:1;fill-rule:nonzero;stroke:none"
                       d="m 86.173387,-129.86725 c 0,-6.35009 0,-12.70066 0,-19.05075 4.053721,0 8.108479,0 12.1622,0 0,6.35009 0,12.70066 0,19.05075 -4.053721,0 -8.108479,0 -12.1622,0 z" /><path
                       id="path260"
                       style="fill:#e3a140;fill-opacity:1;fill-rule:nonzero;stroke:none"
                       d="m 98.335587,-129.86725 c 0,-6.35009 0,-12.70066 0,-19.05075 4.053723,0 8.107443,0 12.161223,0 0,6.35009 0,12.70066 0,19.05075 -4.05378,0 -8.1075,0 -12.161223,0 z" /><path
                       id="path262"
                       style="fill:#de973b;fill-opacity:1;fill-rule:nonzero;stroke:none"
                       d="m 110.49681,-129.86725 c 0,-6.35009 0,-12.70066 0,-19.05075 4.05372,0 8.10744,0 12.16116,0 0,6.35009 0,12.70066 0,19.05075 -4.05372,0 -8.10744,0 -12.16116,0 z" /><path
                       id="path264"
                       style="fill:#d88c36;fill-opacity:1;fill-rule:nonzero;stroke:none"
                       d="m 122.65797,-129.86725 c 0,-6.35009 0,-12.70066 0,-19.05075 4.05372,0 8.10744,0 12.16128,0 0,6.35009 0,12.70066 0,19.05075 -4.05384,0 -8.10756,0 -12.16128,0 z" /><path
                       id="path266"
                       style="fill:#d28032;fill-opacity:1;fill-rule:nonzero;stroke:none"
                       d="m 134.81925,-129.86725 c 0,-6.35009 0,-12.70066 0,-19.05075 4.05373,0 8.10842,0 12.16214,0 0,6.35009 0,12.70066 0,19.05075 -4.05372,0 -8.10841,0 -12.16214,0 z" /><path
                       id="path268"
                       style="fill:#c9742d;fill-opacity:1;fill-rule:nonzero;stroke:none"
                       d="m 146.98139,-129.86725 c 0,-6.35009 0,-12.70066 0,-19.05075 4.05372,0 8.10744,0 12.16116,0 0,6.35009 0,12.70066 0,19.05075 -4.05372,0 -8.10744,0 -12.16116,0 z" /><path
                       id="path270"
                       style="fill:#c2692a;fill-opacity:1;fill-rule:nonzero;stroke:none"
                       d="m 159.14255,-129.86725 c 0,-6.35009 0,-12.70066 0,-19.05075 4.05373,0 8.10757,0 12.16129,0 0,6.35009 0,12.70066 0,19.05075 -4.05372,0 -8.10756,0 -12.16129,0 z" /><path
                       id="path272"
                       style="fill:#c06327;fill-opacity:1;fill-rule:nonzero;stroke:none"
                       d="m 171.30384,-129.86725 c 0,-6.35009 0,-12.70066 0,-19.05075 4.05372,0 8.10744,0 12.16116,0 0,6.35009 0,12.70066 0,19.05075 -4.05372,0 -8.10744,0 -12.16116,0 z" /></g></g></g></g></g></g></g></g></g></svg>