<?xml version="1.0" encoding="UTF-8" standalone="no"?>
<svg
   xmlns:dc="http://purl.org/dc/elements/1.1/"
   xmlns:cc="http://creativecommons.org/ns#"
   xmlns:rdf="http://www.w3.org/1999/02/22-rdf-syntax-ns#"
   xmlns:svg="http://www.w3.org/2000/svg"
   xmlns="http://www.w3.org/2000/svg"
   viewBox="0 0 257.13333 281.34668"
   height="281.34668"
   width="257.13333"
   xml:space="preserve"
   id="svg2"
   version="1.1"><metadata
     id="metadata8"><rdf:RDF><cc:Work
         rdf:about=""><dc:format>image/svg+xml</dc:format><dc:type
           rdf:resource="http://purl.org/dc/dcmitype/StillImage" /></cc:Work></rdf:RDF></metadata><defs
     id="defs6"><clipPath
       id="clipPath22"
       clipPathUnits="userSpaceOnUse"><path
         id="path20"
         d="M 0,0 H 1928 V 2110 H 0 Z" /></clipPath><clipPath
       id="clipPath28"
       clipPathUnits="userSpaceOnUse"><path
         id="path26"
         d="m 628.297,1881.83 c 0,-111.67 91.422,-168.12 91.422,-168.12 0,0 -235,-92.03 -235,-339.91 0,-209.25 158.301,-366.92 362.621,-366.92 90.816,0 125.789,28.83 125.789,28.83 0,0 -29.445,-43.569 -66.887,-103.69 L 744.879,681.07 h 139.894 c 0,0 134.127,206.77 243.367,380.18 80.34,127.53 116.19,222.2 116.19,312.55 0,247.88 -236.22,339.91 -236.22,339.91 0,0 90.8,56.45 90.8,168.12 0,124.56 -105.543,228.26 -235,228.26 -128.855,0 -235.613,-103.7 -235.613,-228.26 m 119.043,-2.45 c 0,65.66 51.527,117.19 116.57,117.19 66.274,0 116.582,-51.53 116.582,-117.19 0,-63.2 -50.308,-117.81 -116.582,-117.81 -65.043,0 -116.57,54.61 -116.57,117.81 M 611.727,1373.8 c 0,138.04 111.671,251.56 252.183,251.56 141.13,0 249.73,-113.52 249.73,-251.56 0,-138.68 -108.6,-252.19 -249.73,-252.19 -140.512,0 -252.183,113.51 -252.183,252.19 m 706.233,381.63 v -118.42 h 397.6 l -397.6,-621.55 h 138.05 l 472.46,739.97 z m -1200.772,0 v -118.42 h 100.011 v -621.55 h 118.418 v 739.97 z" /></clipPath><clipPath
       id="clipPath34"
       clipPathUnits="userSpaceOnUse"><path
         id="path32"
         d="m 117.188,681.07 h 1811.27 V 2110.09 H 117.188 Z" /></clipPath><clipPath
       id="clipPath40"
       clipPathUnits="userSpaceOnUse"><path
         id="path38"
         d="m 117.188,681.07 h 1811.27 V 2110.09 H 117.188 Z" /></clipPath><clipPath
       id="clipPath46"
       clipPathUnits="userSpaceOnUse"><path
         id="path44"
         d="m 744,681 v 1 h 1 v 1 h 1 v 2 h 1 v 1 h 1 v 2 h 1 v 2 h 1 v 1 h 1 v 2 h 1 v 1 h 1 v 2 h 1 v 1 h 1 v 2 h 1 v 1 h 1 v 2 h 1 v 2 h 1 v 1 h 1 v 2 h 1 v 1 h 1 v 2 h 1 v 1 h 1 v 2 h 1 v 1 h 1 v 2 h 1 v 2 h 1 v 1 h 1 v 2 h 1 v 1 h 1 v 2 h 1 v 1 h 1 v 2 h 1 v 1 h 1 v 2 h 1 v 2 h 1 v 1 h 1 v 2 h 1 v 1 h 1 v 2 h 1 v 1 h 1 v 2 h 1 v 1 h 1 v 2 h 1 v 2 h 1 v 1 h 1 v 2 h 1 v 1 h 1 v 2 h 1 v 1 h 1 v 2 h 1 v 1 h 1 v 2 h 1 v 2 h 1 v 1 h 1 v 2 h 1 v 1 h 1 v 2 h 1 v 1 h 1 v 2 h 1 v 1 h 1 v 2 h 1 v 2 h 1 v 1 h 1 v 2 h 1 v 1 h 1 v 2 h 1 v 1 h 1 v 2 h 1 v 1 h 1 v 2 h 1 v 2 h 1 v 1 h 1 v 2 h 1 v 1 h 1 v 2 h 1 v 1 h 1 v 2 h 1 v 1 h 1 v 2 h 1 v 2 h 1 v 1 h 1 v 2 h 1 v 1 h 1 v 2 h 1 v 1 h 1 v 2 h 1 v 1 h 1 v 2 h 1 v 1 h 1 v 2 h 1 v 2 h 1 v 1 h 1 v 2 h 1 v 1 h 1 v 2 h 1 v 1 h 1 v 2 h 1 v 1 h 1 v 2 h 1 v 2 h 1 v 1 h 1 v 2 h 1 v 1 h 1 v 2 h 1 v 1 h 1 v 2 h 1 v 1 h 1 v 2 h 1 v 2 h 1 v 1 h 1 v 2 h 1 v 1 h 1 v 2 h 1 v 1 h 1 v 2 h 1 v 1 h 1 v 2 h 1 v 2 h 1 v 1 h 1 v 2 h 1 v 1 h 1 v 2 h 1 v 1 h 1 v 2 h 1 v 1 h 1 v 2 h 1 v 2 h 1 v 1 h 1 v 2 h 1 v 1 h 1 v 2 h 1 v 1 h 1 v 2 h 1 v 1 h 1 v 2 h 1 v 2 h 1 v 1 h 1 v 2 h 1 v 1 h 1 v 2 h 1 v 1 h 1 v 2 h 1 v 1 h 1 v 2 h 1 v 2 h 1 v 1 h 1 v 2 h 1 v 1 h 1 v 2 h 1 v 1 h 1 v 2 h 1 v 1 h 1 v 2 h 1 v 2 h 1 v 1 h 1 v 2 h 1 v 1 h 1 v 2 h 1 v 1 h 1 v 2 h 1 v 1 h 1 v 2 h 1 v 2 h 1 v 1 h 1 v 2 h 1 v 1 h 1 v 2 h 1 v 2 h 1 v 1 h 1 v 2 h 1 v 1 h 1 v 2 h 1 v 1 h 1 v 2 h 1 v 2 h 1 v 1 h 1 v 2 h 1 v 1 h 1 v 2 h 1 v 2 h 1 v 1 h 1 v 2 h 1 v 1 h 1 v 2 h 1 v 1 h 1 v 2 h 1 v 2 h 1 v 1 h 1 v 2 h 1 v 1 h 1 v 2 h 1 v 1 h 1 v 2 h 1 v 2 h 1 v 1 h 1 v 2 h 1 v 1 h 1 v 2 h 1 v 1 h 1 v 2 h 1 v 1 h 1 v 2 h 1 v 1 h 1 v 2 h 1 v 2 h 1 v 1 h 1 v 2 h 1 v 1 h 1 v 2 h 1 v 1 h 1 v 2 h 1 v 1 h 1 v 2 h 1 v 1 h 1 v 2 h 1 v 1 h 1 v 2 h 1 v 1 h 1 v 2 h 1 v 1 h 1 v 2 h 1 v 2 h 1 v 1 h 1 v 2 h 1 v 1 h 1 v 2 h 1 v 1 h 1 v 2 h -1 v -1 h -2 v -1 h -2 v -1 h -2 v -1 h -1 v -1 h -2 v -1 h -3 v -1 h -2 v -1 h -3 v -1 h -2 v -1 h -2 v -1 h -3 v -1 h -3 v -1 h -4 v -1 h -3 v -1 h -3 v -1 h -3 v -1 h -5 v -1 h -5 v -1 h -5 v -1 h -4 v -1 h -6 v -1 h -8 v -1 h -9 v -1 h -9 v -1 h -19 v -1 h -22 v 1 h -16 v 1 h -13 v 1 h -7 v 1 h -7 v 1 h -6 v 1 h -7 v 1 h -7 v 1 h -4 v 1 h -4 v 1 h -4 v 1 h -4 v 1 h -4 v 1 h -4 v 1 h -4 v 1 h -4 v 1 h -4 v 1 h -3 v 1 h -3 v 1 h -2 v 1 h -3 v 1 h -3 v 1 h -3 v 1 h -3 v 1 h -2 v 1 h -3 v 1 h -3 v 1 h -3 v 1 h -2 v 1 h -3 v 1 h -2 v 1 h -2 v 1 h -2 v 1 h -2 v 1 h -2 v 1 h -2 v 1 h -2 v 1 h -2 v 1 h -3 v 1 h -2 v 1 h -2 v 1 h -2 v 1 h -2 v 1 h -2 v 1 h -2 v 1 h -1 v 1 h -2 v 1 h -2 v 1 h -1 v 1 h -2 v 1 h -2 v 1 h -1 v 1 h -2 v 1 h -2 v 1 h -1 v 1 h -2 v 1 h -2 v 1 h -1 v 1 h -2 v 1 h -2 v 1 h -1 v 1 h -2 v 1 h -1 v 1 h -2 v 1 h -1 v 1 h -1 v 1 h -2 v 1 h -1 v 1 h -1 v 1 h -2 v 1 h -1 v 1 h -1 v 1 h -2 v 1 h -1 v 1 h -1 v 1 h -2 v 1 h -1 v 1 h -1 v 1 h -2 v 1 h -1 v 1 h -1 v 1 h -2 v 1 h -1 v 1 h -1 v 1 h -1 v 1 h -1 v 1 h -1 v 1 h -1 v 1 h -2 v 1 h -1 v 1 h -1 v 1 h -1 v 1 h -1 v 1 h -1 v 1 h -1 v 1 h -1 v 1 h -1 v 1 h -1 v 1 h -2 v 1 h -1 v 1 h -1 v 1 h -1 v 1 h -1 v 1 h -1 v 1 h -1 v 1 h -1 v 1 h -1 v 1 h -1 v 1 h -1 v 1 h -1 v 1 h -1 v 1 h -1 v 2 h -1 v 1 h -1 v 1 h -1 v 1 h -1 v 1 h -1 v 1 h -1 v 1 h -1 v 1 h -1 v 1 h -1 v 2 h -1 v 1 h -1 v 1 h -1 v 1 h -1 v 1 h -1 v 1 h -1 v 1 h -1 v 1 h -1 v 1 h -1 v 2 h -1 v 1 h -1 v 2 h -1 v 1 h -1 v 1 h -1 v 2 h -1 v 1 h -1 v 1 h -1 v 2 h -1 v 1 h -1 v 1 h -1 v 2 h -1 v 1 h -1 v 2 h -1 v 1 h -1 v 1 h -1 v 2 h -1 v 1 h -1 v 1 h -1 v 2 h -1 v 1 h -1 v 2 h -1 v 2 h -1 v 1 h -1 v 2 h -1 v 2 h -1 v 1 h -1 v 2 h -1 v 2 h -1 v 1 h -1 v 2 h -1 v 2 h -1 v 1 h -1 v 2 h -1 v 2 h -1 v 2 h -1 v 1 h -1 v 2 h -1 v 2 h -1 v 2 h -1 v 2 h -1 v 2 h -1 v 3 h -1 v 2 h -1 v 2 h -1 v 2 h -1 v 2 h -1 v 2 h -1 v 2 h -1 v 3 h -1 v 2 h -1 v 2 h -1 v 2 h -1 v 3 h -1 v 2 h -1 v 3 h -1 v 3 h -1 v 3 h -1 v 3 h -1 v 3 h -1 v 2 h -1 v 3 h -1 v 3 h -1 v 3 h -1 v 3 h -1 v 3 h -1 v 5 h -1 v 4 h -1 v 4 h -1 v 4 h -1 v 4 h -1 v 4 h -1 v 4 h -1 v 4 h -1 v 7 h -1 v 7 h -1 v 7 h -1 v 7 h -1 v 7 h -1 v 11 h -1 v 16 h -1 v 28 h 1 v 17 h 1 v 11 h 1 v 8 h 1 v 7 h 1 v 6 h 1 v 6 h 1 v 5 h 1 v 5 h 1 v 4 h 1 v 5 h 1 v 3 h 1 v 4 h 1 v 4 h 1 v 3 h 1 v 4 h 1 v 3 h 1 v 3 h 1 v 3 h 1 v 3 h 1 v 3 h 1 v 3 h 1 v 2 h 1 v 3 h 1 v 2 h 1 v 3 h 1 v 2 h 1 v 2 h 1 v 3 h 1 v 2 h 1 v 2 h 1 v 2 h 1 v 3 h 1 v 2 h 1 v 2 h 1 v 2 h 1 v 2 h 1 v 2 h 1 v 2 h 1 v 2 h 1 v 2 h 1 v 1 h 1 v 2 h 1 v 2 h 1 v 2 h 1 v 2 h 1 v 1 h 1 v 2 h 1 v 2 h 1 v 1 h 1 v 2 h 1 v 2 h 1 v 1 h 1 v 2 h 1 v 2 h 1 v 1 h 1 v 2 h 1 v 1 h 1 v 2 h 1 v 1 h 1 v 1 h 1 v 2 h 1 v 1 h 1 v 2 h 1 v 1 h 1 v 2 h 1 v 1 h 1 v 1 h 1 v 2 h 1 v 1 h 1 v 1 h 1 v 2 h 1 v 1 h 1 v 1 h 1 v 2 h 1 v 1 h 1 v 1 h 1 v 1 h 1 v 2 h 1 v 1 h 1 v 1 h 1 v 1 h 1 v 1 h 1 v 2 h 1 v 1 h 1 v 1 h 1 v 1 h 1 v 1 h 1 v 1 h 1 v 1 h 1 v 2 h 1 v 1 h 1 v 1 h 1 v 1 h 1 v 1 h 1 v 1 h 1 v 1 h 1 v 1 h 1 v 1 h 1 v 1 h 1 v 1 h 1 v 1 h 1 v 1 h 1 v 1 h 1 v 1 h 1 v 1 h 1 v 1 h 1 v 1 h 1 v 1 h 1 v 1 h 1 v 1 h 1 v 1 h 1 v 1 h 1 v 1 h 1 v 1 h 1 v 1 h 1 v 1 h 1 v 1 h 1 v 1 h 1 v 1 h 1 v 1 h 1 v 1 h 2 v 1 h 1 v 1 h 1 v 1 h 1 v 1 h 1 v 1 h 1 v 1 h 1 v 1 h 2 v 1 h 1 v 1 h 1 v 1 h 1 v 1 h 1 v 1 h 2 v 1 h 1 v 1 h 1 v 1 h 1 v 1 h 2 v 1 h 1 v 1 h 1 v 1 h 1 v 1 h 2 v 1 h 1 v 1 h 1 v 1 h 2 v 1 h 1 v 1 h 1 v 1 h 2 v 1 h 1 v 1 h 1 v 1 h 2 v 1 h 1 v 1 h 2 v 1 h 1 v 1 h 1 v 1 h 2 v 1 h 1 v 1 h 2 v 1 h 1 v 1 h 2 v 1 h 1 v 1 h 2 v 1 h 1 v 1 h 2 v 1 h 1 v 1 h 2 v 1 h 2 v 1 h 1 v 1 h 2 v 1 h 2 v 1 h 1 v 1 h 2 v 1 h 2 v 1 h 1 v 1 h 2 v 1 h 2 v 1 h 1 v 1 h 2 v 1 h 2 v 1 h 2 v 1 h 2 v 1 h 2 v 1 h 2 v 1 h 1 v 1 h 2 v 1 h 2 v 1 h 2 v 1 h 2 v 1 h 2 v 1 h 3 v 1 h 2 v 1 h 2 v 1 h 2 v 1 h 3 v 1 h -1 v 1 h -1 v 1 h -2 v 1 h -1 v 1 h -1 v 1 h -2 v 1 h -1 v 1 h -1 v 1 h -1 v 1 h -2 v 1 h -1 v 1 h -1 v 1 h -1 v 1 h -1 v 1 h -2 v 1 h -1 v 1 h -1 v 1 h -1 v 1 h -1 v 1 h -1 v 1 h -1 v 1 h -1 v 1 h -1 v 1 h -1 v 1 h -1 v 1 h -1 v 1 h -1 v 1 h -1 v 1 h -1 v 1 h -1 v 1 h -1 v 1 h -1 v 1 h -1 v 1 h -1 v 1 h -1 v 2 h -1 v 1 h -1 v 1 h -1 v 1 h -1 v 1 h -1 v 1 h -1 v 2 h -1 v 1 h -1 v 1 h -1 v 2 h -1 v 1 h -1 v 1 h -1 v 2 h -1 v 1 h -1 v 1 h -1 v 2 h -1 v 1 h -1 v 2 h -1 v 1 h -1 v 2 h -1 v 1 h -1 v 2 h -1 v 1 h -1 v 2 h -1 v 2 h -1 v 2 h -1 v 2 h -1 v 1 h -1 v 2 h -1 v 2 h -1 v 2 h -1 v 2 h -1 v 2 h -1 v 2 h -1 v 3 h -1 v 2 h -1 v 2 h -1 v 3 h -1 v 2 h -1 v 3 h -1 v 3 h -1 v 3 h -1 v 3 h -1 v 3 h -1 v 4 h -1 v 4 h -1 v 4 h -1 v 5 h -1 v 6 h -1 v 7 h -1 v 9 h -1 v 32 h 1 v 10 h 1 v 7 h 1 v 6 h 1 v 6 h 1 v 4 h 1 v 4 h 1 v 4 h 1 v 3 h 1 v 4 h 1 v 4 h 1 v 2 h 1 v 3 h 1 v 2 h 1 v 3 h 1 v 3 h 1 v 2 h 1 v 3 h 1 v 3 h 1 v 2 h 1 v 2 h 1 v 2 h 1 v 2 h 1 v 2 h 1 v 2 h 1 v 2 h 1 v 1 h 1 v 2 h 1 v 2 h 1 v 2 h 1 v 2 h 1 v 1 h 1 v 2 h 1 v 1 h 1 v 2 h 1 v 2 h 1 v 1 h 1 v 2 h 1 v 1 h 1 v 2 h 1 v 1 h 1 v 2 h 1 v 1 h 1 v 1 h 1 v 2 h 1 v 1 h 1 v 1 h 1 v 1 h 1 v 2 h 1 v 1 h 1 v 1 h 1 v 2 h 1 v 1 h 1 v 1 h 1 v 1 h 1 v 1 h 1 v 2 h 1 v 1 h 1 v 1 h 1 v 1 h 1 v 1 h 1 v 1 h 1 v 1 h 1 v 1 h 1 v 1 h 1 v 1 h 1 v 1 h 1 v 1 h 1 v 1 h 1 v 1 h 1 v 1 h 1 v 1 h 1 v 1 h 1 v 1 h 1 v 1 h 1 v 1 h 1 v 1 h 2 v 1 h 1 v 1 h 1 v 1 h 1 v 1 h 1 v 1 h 1 v 1 h 1 v 1 h 2 v 1 h 1 v 1 h 1 v 1 h 2 v 1 h 1 v 1 h 1 v 1 h 2 v 1 h 1 v 1 h 1 v 1 h 2 v 1 h 1 v 1 h 2 v 1 h 1 v 1 h 1 v 1 h 2 v 1 h 1 v 1 h 2 v 1 h 2 v 1 h 1 v 1 h 2 v 1 h 2 v 1 h 2 v 1 h 1 v 1 h 2 v 1 h 2 v 1 h 1 v 1 h 2 v 1 h 2 v 1 h 3 v 1 h 2 v 1 h 2 v 1 h 2 v 1 h 2 v 1 h 2 v 1 h 2 v 1 h 2 v 1 h 3 v 1 h 3 v 1 h 3 v 1 h 3 v 1 h 2 v 1 h 3 v 1 h 3 v 1 h 3 v 1 h 4 v 1 h 4 v 1 h 4 v 1 h 4 v 1 h 4 v 1 h 5 v 1 h 7 v 1 h 7 v 1 h 7 v 1 h 46 v -1 h 7 v -1 h 7 v -1 h 7 v -1 h 5 v -1 h 4 v -1 h 4 v -1 h 4 v -1 h 4 v -1 h 4 v -1 h 3 v -1 h 3 v -1 h 3 v -1 h 2 v -1 h 3 v -1 h 3 v -1 h 3 v -1 h 3 v -1 h 2 v -1 h 2 v -1 h 2 v -1 h 2 v -1 h 2 v -1 h 2 v -1 h 2 v -1 h 3 v -1 h 2 v -1 h 2 v -1 h 1 v -1 h 2 v -1 h 2 v -1 h 1 v -1 h 2 v -1 h 2 v -1 h 1 v -1 h 2 v -1 h 2 v -1 h 1 v -1 h 2 v -1 h 2 v -1 h 1 v -1 h 1 v -1 h 2 v -1 h 1 v -1 h 1 v -1 h 2 v -1 h 1 v -1 h 2 v -1 h 1 v -1 h 1 v -1 h 2 v -1 h 1 v -1 h 1 v -1 h 1 v -1 h 2 v -1 h 1 v -1 h 1 v -1 h 1 v -1 h 1 v -1 h 1 v -1 h 1 v -1 h 1 v -1 h 2 v -1 h 1 v -1 h 1 v -1 h 1 v -1 h 1 v -1 h 1 v -1 h 1 v -1 h 1 v -1 h 1 v -1 h 1 v -1 h 1 v -1 h 1 v -1 h 1 v -1 h 1 v -2 h 1 v -1 h 1 v -1 h 1 v -1 h 1 v -1 h 1 v -1 h 1 v -1 h 1 v -1 h 1 v -2 h 1 v -1 h 1 v -1 h 1 v -1 h 1 v -2 h 1 v -1 h 1 v -1 h 1 v -2 h 1 v -1 h 1 v -1 h 1 v -2 h 1 v -1 h 1 v -1 h 1 v -2 h 1 v -1 h 1 v -2 h 1 v -2 h 1 v -1 h 1 v -2 h 1 v -1 h 1 v -2 h 1 v -2 h 1 v -1 h 1 v -2 h 1 v -2 h 1 v -2 h 1 v -2 h 1 v -2 h 1 v -2 h 1 v -2 h 1 v -2 h 1 v -2 h 1 v -2 h 1 v -2 h 1 v -2 h 1 v -3 h 1 v -2 h 1 v -3 h 1 v -3 h 1 v -2 h 1 v -3 h 1 v -3 h 1 v -3 h 1 v -4 h 1 v -3 h 1 v -4 h 1 v -4 h 1 v -4 h 1 v -6 h 1 v -6 h 1 v -6 h 1 v -9 h 1 v -38 h -1 v -8 h -1 v -6 h -1 v -7 h -1 v -4 h -1 v -4 h -1 v -4 h -1 v -4 h -1 v -3 h -1 v -3 h -1 v -3 h -1 v -3 h -1 v -2 h -1 v -3 h -1 v -3 h -1 v -2 h -1 v -2 h -1 v -2 h -1 v -2 h -1 v -3 h -1 v -2 h -1 v -2 h -1 v -1 h -1 v -2 h -1 v -2 h -1 v -2 h -1 v -2 h -1 v -1 h -1 v -2 h -1 v -2 h -1 v -1 h -1 v -2 h -1 v -1 h -1 v -2 h -1 v -1 h -1 v -2 h -1 v -1 h -1 v -2 h -1 v -1 h -1 v -1 h -1 v -2 h -1 v -1 h -1 v -1 h -1 v -2 h -1 v -1 h -1 v -1 h -1 v -1 h -1 v -2 h -1 v -1 h -1 v -1 h -1 v -1 h -1 v -1 h -1 v -1 h -1 v -2 h -1 v -1 h -1 v -1 h -1 v -1 h -1 v -1 h -1 v -1 h -1 v -1 h -1 v -1 h -1 v -1 h -1 v -1 h -1 v -1 h -1 v -1 h -1 v -1 h -1 v -1 h -1 v -1 h -1 v -1 h -2 v -1 h -1 v -1 h -1 v -1 h -1 v -1 h -1 v -1 h -1 v -1 h -2 v -1 h -1 v -1 h -1 v -1 h -1 v -1 h -2 v -1 h -1 v -1 h -1 v -1 h -2 v -1 h -1 v -1 h -1 v -1 h -1 v -1 h 3 v -1 h 2 v -1 h 2 v -1 h 2 v -1 h 2 v -1 h 3 v -1 h 2 v -1 h 2 v -1 h 2 v -1 h 2 v -1 h 1 v -1 h 2 v -1 h 2 v -1 h 2 v -1 h 2 v -1 h 2 v -1 h 2 v -1 h 1 v -1 h 2 v -1 h 2 v -1 h 1 v -1 h 2 v -1 h 2 v -1 h 2 v -1 h 1 v -1 h 2 v -1 h 1 v -1 h 2 v -1 h 2 v -1 h 1 v -1 h 2 v -1 h 1 v -1 h 2 v -1 h 1 v -1 h 2 v -1 h 1 v -1 h 2 v -1 h 1 v -1 h 2 v -1 h 1 v -1 h 2 v -1 h 1 v -1 h 1 v -1 h 2 v -1 h 1 v -1 h 2 v -1 h 1 v -1 h 1 v -1 h 2 v -1 h 1 v -1 h 1 v -1 h 2 v -1 h 1 v -1 h 1 v -1 h 1 v -1 h 2 v -1 h 1 v -1 h 1 v -1 h 2 v -1 h 1 v -1 h 1 v -1 h 1 v -1 h 1 v -1 h 2 v -1 h 1 v -1 h 1 v -1 h 1 v -1 h 1 v -1 h 1 v -1 h 2 v -1 h 1 v -1 h 1 v -1 h 1 v -1 h 1 v -1 h 1 v -1 h 1 v -1 h 1 v -1 h 2 v -1 h 1 v -1 h 1 v -1 h 1 v -1 h 1 v -1 h 1 v -1 h 1 v -1 h 1 v -1 h 1 v -1 h 1 v -1 h 1 v -1 h 1 v -1 h 1 v -1 h 1 v -1 h 1 v -1 h 1 v -1 h 1 v -1 h 1 v -1 h 1 v -1 h 1 v -1 h 1 v -1 h 1 v -1 h 1 v -2 h 1 v -1 h 1 v -1 h 1 v -1 h 1 v -1 h 1 v -1 h 1 v -1 h 1 v -1 h 1 v -1 h 1 v -2 h 1 v -1 h 1 v -1 h 1 v -1 h 1 v -1 h 1 v -2 h 1 v -1 h 1 v -1 h 1 v -1 h 1 v -2 h 1 v -1 h 1 v -1 h 1 v -1 h 1 v -2 h 1 v -1 h 1 v -1 h 1 v -2 h 1 v -1 h 1 v -1 h 1 v -2 h 1 v -1 h 1 v -2 h 1 v -1 h 1 v -1 h 1 v -2 h 1 v -1 h 1 v -2 h 1 v -1 h 1 v -2 h 1 v -1 h 1 v -2 h 1 v -1 h 1 v -2 h 1 v -2 h 1 v -1 h 1 v -2 h 1 v -2 h 1 v -1 h 1 v -2 h 1 v -2 h 1 v -1 h 1 v -2 h 1 v -2 h 1 v -2 h 1 v -2 h 1 v -2 h 1 v -1 h 1 v -2 h 1 v -2 h 1 v -2 h 1 v -2 h 1 v -3 h 1 v -2 h 1 v -2 h 1 v -2 h 1 v -2 h 1 v -2 h 1 v -3 h 1 v -2 h 1 v -3 h 1 v -2 h 1 v -3 h 1 v -2 h 1 v -3 h 1 v -3 h 1 v -3 h 1 v -2 h 1 v -3 h 1 v -3 h 1 v -3 h 1 v -4 h 1 v -4 h 1 v -3 h 1 v -4 h 1 v -3 h 1 v -5 h 1 v -4 h 1 v -5 h 1 v -5 h 1 v -5 h 1 v -7 h 1 v -7 h 1 v -8 h 1 v -11 h 1 v -16 h 1 v -28 h -1 v -15 h -1 v -10 h -1 v -7 h -1 v -7 h -1 v -6 h -1 v -7 h -1 v -6 h -1 v -4 h -1 v -4 h -1 v -4 h -1 v -4 h -1 v -4 h -1 v -4 h -1 v -5 h -1 v -4 h -1 v -3 h -1 v -3 h -1 v -3 h -1 v -3 h -1 v -3 h -1 v -3 h -1 v -3 h -1 v -3 h -1 v -3 h -1 v -3 h -1 v -3 h -1 v -3 h -1 v -3 h -1 v -2 h -1 v -3 h -1 v -2 h -1 v -3 h -1 v -2 h -1 v -2 h -1 v -3 h -1 v -2 h -1 v -3 h -1 v -2 h -1 v -3 h -1 v -2 h -1 v -2 h -1 v -3 h -1 v -2 h -1 v -3 h -1 v -2 h -1 v -2 h -1 v -2 h -1 v -2 h -1 v -2 h -1 v -2 h -1 v -2 h -1 v -2 h -1 v -2 h -1 v -2 h -1 v -2 h -1 v -2 h -1 v -2 h -1 v -2 h -1 v -2 h -1 v -2 h -1 v -3 h -1 v -2 h -1 v -2 h -1 v -2 h -1 v -1 h -1 v -2 h -1 v -2 h -1 v -2 h -1 v -2 h -1 v -2 h -1 v -1 h -1 v -2 h -1 v -2 h -1 v -2 h -1 v -2 h -1 v -1 h -1 v -2 h -1 v -2 h -1 v -2 h -1 v -2 h -1 v -2 h -1 v -1 h -1 v -2 h -1 v -2 h -1 v -2 h -1 v -2 h -1 v -1 h -1 v -2 h -1 v -2 h -1 v -2 h -1 v -1 h -1 v -2 h -1 v -2 h -1 v -1 h -1 v -2 h -1 v -2 h -1 v -1 h -1 v -2 h -1 v -2 h -1 v -1 h -1 v -2 h -1 v -2 h -1 v -1 h -1 v -2 h -1 v -2 h -1 v -1 h -1 v -2 h -1 v -2 h -1 v -1 h -1 v -2 h -1 v -2 h -1 v -1 h -1 v -2 h -1 v -1 h -1 v -2 h -1 v -1 h -1 v -2 h -1 v -2 h -1 v -1 h -1 v -2 h -1 v -1 h -1 v -2 h -1 v -2 h -1 v -1 h -1 v -2 h -1 v -1 h -1 v -2 h -1 v -1 h -1 v -2 h -1 v -2 h -1 v -1 h -1 v -2 h -1 v -1 h -1 v -2 h -1 v -2 h -1 v -1 h -1 v -2 h -1 v -1 h -1 v -2 h -1 v -1 h -1 v -2 h -1 v -2 h -1 v -1 h -1 v -2 h -1 v -1 h -1 v -2 h -1 v -2 h -1 v -1 h -1 v -2 h -1 v -1 h -1 v -2 h -1 v -1 h -1 v -2 h -1 v -2 h -1 v -1 h -1 v -2 h -1 v -1 h -1 v -2 h -1 v -1 h -1 v -2 h -1 v -2 h -1 v -1 h -1 v -2 h -1 v -1 h -1 v -2 h -1 v -1 h -1 v -2 h -1 v -2 h -1 v -1 h -1 v -2 h -1 v -1 h -1 v -2 h -1 v -1 h -1 v -2 h -1 v -2 h -1 v -1 h -1 v -2 h -1 v -1 h -1 v -2 h -1 v -1 h -1 v -2 h -1 v -2 h -1 v -1 h -1 v -2 h -1 v -1 h -1 v -2 h -1 v -1 h -1 v -2 h -1 v -2 h -1 v -1 h -1 v -2 h -1 v -1 h -1 v -2 h -1 v -1 h -1 v -2 h -1 v -2 h -1 v -1 h -1 v -2 h -1 v -1 h -1 v -2 h -1 v -1 h -1 v -2 h -1 v -2 h -1 v -1 h -1 v -2 h -1 v -1 h -1 v -2 h -1 v -1 h -1 v -2 h -1 v -1 h -1 v -2 h -1 v -2 h -1 v -1 h -1 v -2 h -1 v -1 h -1 v -2 h -1 v -1 h -1 v -2 h -1 v -2 h -1 v -1 h -1 v -2 h -1 v -1 h -1 v -2 h -1 v -1 h -1 v -2 h -1 v -2 h -1 v -1 h -1 v -2 h -1 v -1 h -1 v -2 h -1 v -1 h -1 v -2 h -1 v -1 h -1 v -2 h -1 v -2 h -1 v -1 h -1 v -2 h -1 v -1 h -1 v -2 h -1 v -1 h -1 v -2 h -1 v -2 h -1 v -1 h -1 v -2 h -1 v -1 h -1 v -2 h -1 v -1 h -1 v -2 h -1 v -1 h -1 v -2 h -1 v -2 h -1 v -1 h -1 v -2 h -1 v -1 h -1 v -2 h -1 v -1 h -1 v -2 h -1 v -1 h -1 v -2 h -1 v -2 h -1 v -1 h -1 v -2 h -1 v -1 h -1 v -2 h -1 v -1 h -1 v -2 h -1 v -1 h -1 v -2 h -1 v -2 h -1 v -1 h -1 v -2 h -1 v -1 h -1 v -2 h -1 v -1 h -1 v -2 h -1 v -1 h -1 v -2 h -1 v -2 h -1 v -1 h -1 v -2 h -1 v -1 h -1 v -2 h -1 v -1 h -1 v -2 h -1 v -1 h -1 v -2 h -1 v -2 h -1 v -1 h -1 v -2 h -1 v -1 h -1 v -2 h -1 v -1 h -1 v -2 h -1 v -1 h -1 v -2 h -1 v -2 h -1 v -1 h -1 v -2 h -1 v -1 h -1 v -2 h -1 v -1 h -1 v -2 h -1 v -1 h -1 v -2 h -1 v -2 h -1 v -1 h -1 v -2 h -1 v -1 h -1 v -2 h -1 v -1 h -1 v -2 h -1 v -1 h -1 v -2 h -1 v -1 h -1 v -2 h -1 v -2 h -1 v -1 h -1 v -2 h -1 v -1 h -1 v -2 h -1 v -1 h -1 v -2 h -1 v -1 h -1 v -2 h -1 v -2 h -1 v -1 h -1 v -2 h -1 v -1 h -1 v -2 h -1 v -1 h -1 v -2 h -1 v -1 h -1 v -2 h -1 v -1 h -1 v -2 h -1 v -2 h -1 v -1 h -1 v -2 h -1 v -1 h -1 v -2 h -1 v -1 h -1 v -2 h -1 v -1 h -1 v -2 h -1 v -1 h -1 v -2 h -1 v -2 h -1 v -1 h -1 v -2 h -1 v -1 h -1 v -2 h -1 v -1 h -1 v -2 h -1 v -1 h -1 v -2 h -1 v -1 h -1 v -2 h -1 v -2 h -1 v -1 z m -527,334 v 622 H 117 v 119 h 219 v -741 z m 1100,0 v 1 h 1 v 2 h 1 v 1 h 1 v 2 h 1 v 1 h 1 v 2 h 1 v 1 h 1 v 2 h 1 v 2 h 1 v 1 h 1 v 2 h 1 v 1 h 1 v 2 h 1 v 1 h 1 v 2 h 1 v 1 h 1 v 2 h 1 v 2 h 1 v 1 h 1 v 2 h 1 v 1 h 1 v 2 h 1 v 1 h 1 v 2 h 1 v 2 h 1 v 1 h 1 v 2 h 1 v 1 h 1 v 2 h 1 v 1 h 1 v 2 h 1 v 1 h 1 v 2 h 1 v 2 h 1 v 1 h 1 v 2 h 1 v 1 h 1 v 2 h 1 v 1 h 1 v 2 h 1 v 2 h 1 v 1 h 1 v 2 h 1 v 1 h 1 v 2 h 1 v 1 h 1 v 2 h 1 v 1 h 1 v 2 h 1 v 2 h 1 v 1 h 1 v 2 h 1 v 1 h 1 v 2 h 1 v 1 h 1 v 2 h 1 v 2 h 1 v 1 h 1 v 2 h 1 v 1 h 1 v 2 h 1 v 1 h 1 v 2 h 1 v 2 h 1 v 1 h 1 v 2 h 1 v 1 h 1 v 2 h 1 v 1 h 1 v 2 h 1 v 1 h 1 v 2 h 1 v 2 h 1 v 1 h 1 v 2 h 1 v 1 h 1 v 2 h 1 v 1 h 1 v 2 h 1 v 2 h 1 v 1 h 1 v 2 h 1 v 1 h 1 v 2 h 1 v 1 h 1 v 2 h 1 v 1 h 1 v 2 h 1 v 2 h 1 v 1 h 1 v 2 h 1 v 1 h 1 v 2 h 1 v 1 h 1 v 2 h 1 v 2 h 1 v 1 h 1 v 2 h 1 v 1 h 1 v 2 h 1 v 1 h 1 v 2 h 1 v 1 h 1 v 2 h 1 v 2 h 1 v 1 h 1 v 2 h 1 v 1 h 1 v 2 h 1 v 1 h 1 v 2 h 1 v 2 h 1 v 1 h 1 v 2 h 1 v 1 h 1 v 2 h 1 v 1 h 1 v 2 h 1 v 1 h 1 v 2 h 1 v 2 h 1 v 1 h 1 v 2 h 1 v 1 h 1 v 2 h 1 v 1 h 1 v 2 h 1 v 2 h 1 v 1 h 1 v 2 h 1 v 1 h 1 v 2 h 1 v 1 h 1 v 2 h 1 v 1 h 1 v 2 h 1 v 2 h 1 v 1 h 1 v 2 h 1 v 1 h 1 v 2 h 1 v 1 h 1 v 2 h 1 v 2 h 1 v 1 h 1 v 2 h 1 v 1 h 1 v 2 h 1 v 1 h 1 v 2 h 1 v 2 h 1 v 1 h 1 v 2 h 1 v 1 h 1 v 2 h 1 v 1 h 1 v 2 h 1 v 1 h 1 v 2 h 1 v 2 h 1 v 1 h 1 v 2 h 1 v 1 h 1 v 2 h 1 v 1 h 1 v 2 h 1 v 2 h 1 v 1 h 1 v 2 h 1 v 1 h 1 v 2 h 1 v 1 h 1 v 2 h 1 v 1 h 1 v 2 h 1 v 2 h 1 v 1 h 1 v 2 h 1 v 1 h 1 v 2 h 1 v 1 h 1 v 2 h 1 v 2 h 1 v 1 h 1 v 2 h 1 v 1 h 1 v 2 h 1 v 1 h 1 v 2 h 1 v 1 h 1 v 2 h 1 v 2 h 1 v 1 h 1 v 2 h 1 v 1 h 1 v 2 h 1 v 1 h 1 v 2 h 1 v 2 h 1 v 1 h 1 v 2 h 1 v 1 h 1 v 2 h 1 v 1 h 1 v 2 h 1 v 1 h 1 v 2 h 1 v 2 h 1 v 1 h 1 v 2 h 1 v 1 h 1 v 2 h 1 v 1 h 1 v 2 h 1 v 2 h 1 v 1 h 1 v 2 h 1 v 1 h 1 v 2 h 1 v 1 h 1 v 2 h 1 v 1 h 1 v 2 h 1 v 2 h 1 v 1 h 1 v 2 h 1 v 1 h 1 v 2 h 1 v 1 h 1 v 2 h 1 v 2 h 1 v 1 h 1 v 2 h 1 v 1 h 1 v 2 h 1 v 1 h 1 v 2 h 1 v 2 h 1 v 1 h 1 v 2 h 1 v 1 h 1 v 2 h 1 v 1 h 1 v 2 h 1 v 1 h 1 v 2 h 1 v 2 h 1 v 1 h 1 v 2 h 1 v 1 h 1 v 2 h 1 v 1 h 1 v 2 h 1 v 2 h 1 v 1 h 1 v 2 h 1 v 1 h 1 v 2 h 1 v 1 h 1 v 2 h 1 v 1 h 1 v 2 h 1 v 2 h 1 v 1 h 1 v 2 h 1 v 1 h 1 v 2 h 1 v 1 h 1 v 2 h 1 v 2 h 1 v 1 h 1 v 2 h 1 v 1 h 1 v 2 h 1 v 1 h 1 v 2 h 1 v 1 h 1 v 2 h 1 v 2 h 1 v 1 h 1 v 2 h 1 v 1 h 1 v 2 h 1 v 1 h 1 v 2 h 1 v 2 h 1 v 1 h 1 v 2 h 1 v 1 h 1 v 2 h 1 v 1 h 1 v 2 h 1 v 1 h 1 v 2 h 1 v 2 h 1 v 1 h 1 v 2 h 1 v 1 h 1 v 2 h 1 v 1 h 1 v 2 h 1 v 2 h 1 v 1 h 1 v 2 h 1 v 1 h 1 v 2 h 1 v 1 h 1 v 2 h 1 v 2 h 1 v 1 h 1 v 2 h 1 v 1 h 1 v 2 h 1 v 1 h 1 v 2 h 1 v 1 h 1 v 2 h 1 v 2 h 1 v 1 h 1 v 2 h 1 v 1 h 1 v 2 h 1 v 1 h 1 v 2 h 1 v 2 h 1 v 1 h 1 v 2 h 1 v 1 h 1 v 2 h 1 v 1 h 1 v 2 h 1 v 1 h 1 v 2 h 1 v 2 h 1 v 1 h 1 v 2 h 1 v 1 h 1 v 2 h 1 v 1 h 1 v 2 h 1 v 2 h 1 v 1 h 1 v 2 h 1 v 1 h 1 v 2 h 1 v 1 h 1 v 2 h 1 v 1 h 1 v 2 h 1 v 2 h 1 v 1 h 1 v 2 h 1 v 1 h 1 v 2 h 1 v 1 h 1 v 2 h 1 v 2 h 1 v 1 h 1 v 2 h 1 v 1 h 1 v 2 h 1 v 1 h 1 v 2 h 1 v 1 h 1 v 2 h 1 v 2 h 1 v 1 h 1 v 2 h 1 v 1 h 1 v 2 h 1 v 1 h 1 v 2 h 1 v 2 h 1 v 1 h 1 v 2 h 1 v 1 h 1 v 2 h 1 v 1 h 1 v 2 h 1 v 1 h 1 v 2 h 1 v 2 h 1 v 1 h 1 v 2 h 1 v 1 h 1 v 2 h 1 v 1 h 1 v 2 h 1 v 2 h 1 v 1 h 1 v 2 h 1 v 1 h 1 v 2 h 1 v 1 h 1 v 2 h 1 v 2 h 1 v 1 h 1 v 2 h -397 v 119 h 611 v -3 h -1 v -2 h -1 v -1 h -1 v -2 h -1 v -2 h -1 v -1 h -1 v -2 h -1 v -1 h -1 v -2 h -1 v -1 h -1 v -2 h -1 v -2 h -1 v -1 h -1 v -2 h -1 v -1 h -1 v -2 h -1 v -1 h -1 v -2 h -1 v -2 h -1 v -1 h -1 v -2 h -1 v -1 h -1 v -2 h -1 v -1 h -1 v -2 h -1 v -2 h -1 v -1 h -1 v -2 h -1 v -1 h -1 v -2 h -1 v -1 h -1 v -2 h -1 v -1 h -1 v -2 h -1 v -2 h -1 v -1 h -1 v -2 h -1 v -1 h -1 v -2 h -1 v -1 h -1 v -2 h -1 v -2 h -1 v -1 h -1 v -2 h -1 v -1 h -1 v -2 h -1 v -1 h -1 v -2 h -1 v -2 h -1 v -1 h -1 v -2 h -1 v -1 h -1 v -2 h -1 v -1 h -1 v -2 h -1 v -2 h -1 v -1 h -1 v -2 h -1 v -1 h -1 v -2 h -1 v -1 h -1 v -2 h -1 v -1 h -1 v -2 h -1 v -2 h -1 v -1 h -1 v -2 h -1 v -1 h -1 v -2 h -1 v -1 h -1 v -2 h -1 v -2 h -1 v -1 h -1 v -2 h -1 v -1 h -1 v -2 h -1 v -1 h -1 v -2 h -1 v -2 h -1 v -1 h -1 v -2 h -1 v -1 h -1 v -2 h -1 v -1 h -1 v -2 h -1 v -1 h -1 v -2 h -1 v -2 h -1 v -1 h -1 v -2 h -1 v -1 h -1 v -2 h -1 v -1 h -1 v -2 h -1 v -2 h -1 v -1 h -1 v -2 h -1 v -1 h -1 v -2 h -1 v -1 h -1 v -2 h -1 v -2 h -1 v -1 h -1 v -2 h -1 v -1 h -1 v -2 h -1 v -1 h -1 v -2 h -1 v -2 h -1 v -1 h -1 v -2 h -1 v -1 h -1 v -2 h -1 v -1 h -1 v -2 h -1 v -1 h -1 v -2 h -1 v -2 h -1 v -1 h -1 v -2 h -1 v -1 h -1 v -2 h -1 v -1 h -1 v -2 h -1 v -2 h -1 v -1 h -1 v -2 h -1 v -1 h -1 v -2 h -1 v -1 h -1 v -2 h -1 v -2 h -1 v -1 h -1 v -2 h -1 v -1 h -1 v -2 h -1 v -1 h -1 v -2 h -1 v -1 h -1 v -2 h -1 v -2 h -1 v -1 h -1 v -2 h -1 v -1 h -1 v -2 h -1 v -1 h -1 v -2 h -1 v -2 h -1 v -1 h -1 v -2 h -1 v -1 h -1 v -2 h -1 v -1 h -1 v -2 h -1 v -2 h -1 v -1 h -1 v -2 h -1 v -1 h -1 v -2 h -1 v -1 h -1 v -2 h -1 v -2 h -1 v -1 h -1 v -2 h -1 v -1 h -1 v -2 h -1 v -1 h -1 v -2 h -1 v -1 h -1 v -2 h -1 v -2 h -1 v -1 h -1 v -2 h -1 v -1 h -1 v -2 h -1 v -1 h -1 v -2 h -1 v -2 h -1 v -1 h -1 v -2 h -1 v -1 h -1 v -2 h -1 v -1 h -1 v -2 h -1 v -2 h -1 v -1 h -1 v -2 h -1 v -1 h -1 v -2 h -1 v -1 h -1 v -2 h -1 v -2 h -1 v -1 h -1 v -2 h -1 v -1 h -1 v -2 h -1 v -1 h -1 v -2 h -1 v -1 h -1 v -2 h -1 v -2 h -1 v -1 h -1 v -2 h -1 v -1 h -1 v -2 h -1 v -1 h -1 v -2 h -1 v -2 h -1 v -1 h -1 v -2 h -1 v -1 h -1 v -2 h -1 v -1 h -1 v -2 h -1 v -2 h -1 v -1 h -1 v -2 h -1 v -1 h -1 v -2 h -1 v -1 h -1 v -2 h -1 v -1 h -1 v -2 h -1 v -2 h -1 v -1 h -1 v -2 h -1 v -1 h -1 v -2 h -1 v -1 h -1 v -2 h -1 v -2 h -1 v -1 h -1 v -2 h -1 v -1 h -1 v -2 h -1 v -1 h -1 v -2 h -1 v -2 h -1 v -1 h -1 v -2 h -1 v -1 h -1 v -2 h -1 v -1 h -1 v -2 h -1 v -2 h -1 v -1 h -1 v -2 h -1 v -1 h -1 v -2 h -1 v -1 h -1 v -2 h -1 v -1 h -1 v -2 h -1 v -2 h -1 v -1 h -1 v -2 h -1 v -1 h -1 v -2 h -1 v -1 h -1 v -2 h -1 v -2 h -1 v -1 h -1 v -2 h -1 v -1 h -1 v -2 h -1 v -1 h -1 v -2 h -1 v -2 h -1 v -1 h -1 v -2 h -1 v -1 h -1 v -2 h -1 v -1 h -1 v -2 h -1 v -2 h -1 v -1 h -1 v -2 h -1 v -1 h -1 v -2 h -1 v -1 h -1 v -2 h -1 v -1 h -1 v -2 h -1 v -2 h -1 v -1 h -1 v -2 h -1 v -1 h -1 v -2 h -1 v -1 h -1 v -2 h -1 v -2 h -1 v -1 h -1 v -2 h -1 v -1 h -1 v -2 h -1 v -1 h -1 v -2 h -1 v -2 h -1 v -1 h -1 v -2 h -1 v -1 h -1 v -2 h -1 v -1 h -1 v -2 h -1 v -1 h -1 v -2 h -1 v -2 h -1 v -1 h -1 v -2 h -1 v -1 h -1 v -2 h -1 v -1 h -1 v -2 h -1 v -2 h -1 v -1 h -1 v -2 h -1 v -1 h -1 v -2 h -1 v -1 h -1 v -2 h -1 v -2 h -1 v -1 h -1 v -2 h -1 v -1 h -1 v -2 h -1 v -1 h -1 v -2 h -1 v -2 h -1 v -1 h -1 v -2 h -1 v -1 h -1 v -2 h -1 v -1 h -1 v -2 h -1 v -1 h -1 v -2 h -1 v -2 h -1 v -1 h -1 v -2 h -1 v -1 h -1 v -2 h -1 v -1 h -1 v -2 h -1 v -2 h -1 v -1 h -1 v -2 h -1 v -1 h -1 v -2 h -1 v -1 h -1 v -2 h -1 v -2 h -1 v -1 h -1 v -2 h -1 v -1 h -1 v -2 h -1 v -1 h -1 v -2 h -1 v -2 h -1 v -1 h -1 v -2 h -1 v -1 h -1 v -2 h -1 v -1 h -1 v -2 h -1 v -1 h -1 v -2 h -1 v -2 h -1 v -1 h -1 v -2 h -1 v -1 h -1 v -2 h -1 v -1 h -1 v -2 h -1 v -2 h -1 v -1 h -1 v -2 h -1 v -1 h -1 v -2 h -1 v -1 h -1 v -2 h -1 v -2 h -1 v -1 h -1 v -2 h -1 v -1 h -1 v -2 h -1 v -1 h -1 v -2 h -1 v -1 h -1 v -2 h -1 v -2 h -1 v -1 h -1 v -2 h -1 v -1 h -1 v -2 h -1 v -1 h -1 v -2 h -1 v -2 h -1 v -1 h -1 v -2 h -1 v -1 h -1 v -2 h -1 v -1 h -1 v -2 h -1 v -2 h -1 v -1 h -1 v -2 h -1 v -1 h -1 v -2 h -1 v -1 h -1 v -2 h -1 v -2 h -1 v -1 h -1 v -2 h -1 v -1 h -1 v -2 h -1 v -1 h -1 v -2 h -1 v -1 h -1 v -2 h -1 v -2 h -1 v -1 h -1 v -2 h -1 v -1 h -1 v -2 h -1 v -1 h -1 v -2 h -1 v -2 h -1 v -1 h -1 v -2 h -1 v -1 h -1 v -2 h -1 v -1 h -1 v -2 h -1 v -2 h -1 v -1 h -1 v -2 h -1 v -1 h -1 v -2 h -1 v -1 h -1 v -2 h -1 v -2 h -1 v -1 h -1 v -2 h -1 v -1 h -1 v -2 h -1 v -1 h -1 v -2 h -1 v -1 h -1 v -2 h -1 v -2 h -1 v -1 h -1 v -2 h -1 v -1 h -1 v -2 h -1 v -1 h -1 v -2 h -1 v -2 h -1 v -1 h -1 v -2 h -1 v -1 h -1 v -2 h -1 v -1 h -1 v -2 h -1 v -2 h -1 v -1 h -1 v -2 h -1 v -1 h -1 v -2 h -1 v -1 h -1 v -2 h -1 v -1 h -1 v -2 z m -465,108 v -1 h 24 v 1 h 14 v 1 h 7 v 1 h 6 v 1 h 7 v 1 h 6 v 1 h 4 v 1 h 3 v 1 h 4 v 1 h 4 v 1 h 4 v 1 h 4 v 1 h 3 v 1 h 2 v 1 h 3 v 1 h 3 v 1 h 2 v 1 h 3 v 1 h 3 v 1 h 3 v 1 h 2 v 1 h 2 v 1 h 2 v 1 h 2 v 1 h 2 v 1 h 2 v 1 h 2 v 1 h 2 v 1 h 2 v 1 h 2 v 1 h 3 v 1 h 1 v 1 h 2 v 1 h 1 v 1 h 2 v 1 h 2 v 1 h 1 v 1 h 2 v 1 h 2 v 1 h 1 v 1 h 2 v 1 h 1 v 1 h 2 v 1 h 2 v 1 h 1 v 1 h 1 v 1 h 2 v 1 h 1 v 1 h 1 v 1 h 2 v 1 h 1 v 1 h 1 v 1 h 2 v 1 h 1 v 1 h 1 v 1 h 1 v 1 h 2 v 1 h 1 v 1 h 1 v 1 h 1 v 1 h 1 v 1 h 1 v 1 h 2 v 1 h 1 v 1 h 1 v 1 h 1 v 1 h 1 v 1 h 1 v 1 h 1 v 1 h 1 v 1 h 1 v 1 h 1 v 1 h 1 v 1 h 1 v 1 h 1 v 1 h 1 v 1 h 1 v 1 h 1 v 1 h 1 v 1 h 1 v 1 h 1 v 1 h 1 v 1 h 1 v 2 h 1 v 1 h 1 v 1 h 1 v 1 h 1 v 1 h 1 v 1 h 1 v 1 h 1 v 1 h 1 v 2 h 1 v 1 h 1 v 1 h 1 v 2 h 1 v 1 h 1 v 1 h 1 v 2 h 1 v 1 h 1 v 2 h 1 v 1 h 1 v 1 h 1 v 2 h 1 v 1 h 1 v 1 h 1 v 2 h 1 v 2 h 1 v 1 h 1 v 2 h 1 v 2 h 1 v 1 h 1 v 2 h 1 v 2 h 1 v 1 h 1 v 2 h 1 v 2 h 1 v 1 h 1 v 2 h 1 v 2 h 1 v 2 h 1 v 2 h 1 v 3 h 1 v 2 h 1 v 2 h 1 v 2 h 1 v 2 h 1 v 2 h 1 v 2 h 1 v 3 h 1 v 3 h 1 v 3 h 1 v 2 h 1 v 3 h 1 v 3 h 1 v 3 h 1 v 3 h 1 v 3 h 1 v 4 h 1 v 4 h 1 v 4 h 1 v 4 h 1 v 4 h 1 v 5 h 1 v 6 h 1 v 7 h 1 v 7 h 1 v 12 h 1 v 31 h -1 v 12 h -1 v 7 h -1 v 7 h -1 v 7 h -1 v 5 h -1 v 4 h -1 v 4 h -1 v 4 h -1 v 4 h -1 v 4 h -1 v 3 h -1 v 3 h -1 v 2 h -1 v 3 h -1 v 3 h -1 v 3 h -1 v 3 h -1 v 2 h -1 v 3 h -1 v 2 h -1 v 2 h -1 v 2 h -1 v 2 h -1 v 2 h -1 v 3 h -1 v 2 h -1 v 2 h -1 v 2 h -1 v 2 h -1 v 2 h -1 v 1 h -1 v 2 h -1 v 2 h -1 v 1 h -1 v 2 h -1 v 2 h -1 v 2 h -1 v 1 h -1 v 2 h -1 v 2 h -1 v 1 h -1 v 2 h -1 v 1 h -1 v 1 h -1 v 2 h -1 v 1 h -1 v 2 h -1 v 1 h -1 v 1 h -1 v 2 h -1 v 1 h -1 v 1 h -1 v 2 h -1 v 1 h -1 v 1 h -1 v 2 h -1 v 1 h -1 v 1 h -1 v 1 h -1 v 1 h -1 v 1 h -1 v 1 h -1 v 2 h -1 v 1 h -1 v 1 h -1 v 1 h -1 v 1 h -1 v 1 h -1 v 1 h -1 v 1 h -1 v 2 h -2 v 1 h -1 v 1 h -1 v 1 h -1 v 1 h -1 v 1 h -1 v 1 h -1 v 1 h -1 v 1 h -1 v 1 h -1 v 1 h -1 v 1 h -1 v 1 h -1 v 1 h -2 v 1 h -1 v 1 h -1 v 1 h -1 v 1 h -1 v 1 h -2 v 1 h -1 v 1 h -1 v 1 h -1 v 1 h -2 v 1 h -1 v 1 h -1 v 1 h -2 v 1 h -1 v 1 h -1 v 1 h -2 v 1 h -1 v 1 h -1 v 1 h -2 v 1 h -2 v 1 h -1 v 1 h -2 v 1 h -1 v 1 h -2 v 1 h -2 v 1 h -1 v 1 h -2 v 1 h -2 v 1 h -1 v 1 h -2 v 1 h -2 v 1 h -2 v 1 h -2 v 1 h -2 v 1 h -2 v 1 h -2 v 1 h -2 v 1 h -2 v 1 h -2 v 1 h -2 v 1 h -2 v 1 h -2 v 1 h -3 v 1 h -3 v 1 h -3 v 1 h -2 v 1 h -3 v 1 h -3 v 1 h -2 v 1 h -3 v 1 h -4 v 1 h -4 v 1 h -4 v 1 h -4 v 1 h -4 v 1 h -4 v 1 h -5 v 1 h -7 v 1 h -7 v 1 h -6 v 1 h -15 v 1 h -23 v -1 h -14 v -1 h -7 v -1 h -6 v -1 h -7 v -1 h -6 v -1 h -4 v -1 h -3 v -1 h -4 v -1 h -4 v -1 h -4 v -1 h -4 v -1 h -3 v -1 h -2 v -1 h -3 v -1 h -3 v -1 h -3 v -1 h -2 v -1 h -3 v -1 h -3 v -1 h -2 v -1 h -2 v -1 h -2 v -1 h -2 v -1 h -3 v -1 h -2 v -1 h -2 v -1 h -2 v -1 h -2 v -1 h -2 v -1 h -2 v -1 h -2 v -1 h -1 v -1 h -2 v -1 h -2 v -1 h -1 v -1 h -2 v -1 h -2 v -1 h -1 v -1 h -2 v -1 h -1 v -1 h -2 v -1 h -2 v -1 h -1 v -1 h -2 v -1 h -1 v -1 h -1 v -1 h -2 v -1 h -1 v -1 h -1 v -1 h -2 v -1 h -1 v -1 h -1 v -1 h -2 v -1 h -1 v -1 h -1 v -1 h -2 v -1 h -1 v -1 h -1 v -1 h -1 v -1 h -1 v -1 h -1 v -1 h -2 v -1 h -1 v -1 h -1 v -1 h -1 v -1 h -1 v -1 h -1 v -1 h -1 v -1 h -1 v -1 h -1 v -1 h -1 v -1 h -2 v -1 h -1 v -1 h -1 v -1 h -1 v -1 h -1 v -2 h -1 v -1 h -1 v -1 h -1 v -1 h -1 v -1 h -1 v -1 h -1 v -1 h -1 v -1 h -1 v -1 h -1 v -2 h -1 v -1 h -1 v -1 h -1 v -1 h -1 v -1 h -1 v -1 h -1 v -2 h -1 v -1 h -1 v -1 h -1 v -2 h -1 v -1 h -1 v -1 h -1 v -2 h -1 v -1 h -1 v -1 h -1 v -2 h -1 v -1 h -1 v -1 h -1 v -2 h -1 v -1 h -1 v -2 h -1 v -2 h -1 v -1 h -1 v -2 h -1 v -1 h -1 v -2 h -1 v -2 h -1 v -1 h -1 v -2 h -1 v -2 h -1 v -1 h -1 v -2 h -1 v -2 h -1 v -2 h -1 v -2 h -1 v -2 h -1 v -2 h -1 v -3 h -1 v -2 h -1 v -2 h -1 v -2 h -1 v -2 h -1 v -2 h -1 v -3 h -1 v -3 h -1 v -2 h -1 v -3 h -1 v -3 h -1 v -3 h -1 v -2 h -1 v -3 h -1 v -4 h -1 v -4 h -1 v -4 h -1 v -4 h -1 v -4 h -1 v -3 h -1 v -6 h -1 v -7 h -1 v -7 h -1 v -6 h -1 v -15 h -1 v -20 h 1 v -15 h 1 v -7 h 1 v -7 h 1 v -6 h 1 v -6 h 1 v -4 h 1 v -4 h 1 v -4 h 1 v -4 h 1 v -4 h 1 v -4 h 1 v -2 h 1 v -3 h 1 v -3 h 1 v -3 h 1 v -2 h 1 v -3 h 1 v -3 h 1 v -3 h 1 v -2 h 1 v -2 h 1 v -2 h 1 v -2 h 1 v -2 h 1 v -2 h 1 v -2 h 1 v -3 h 1 v -2 h 1 v -2 h 1 v -2 h 1 v -1 h 1 v -2 h 1 v -2 h 1 v -1 h 1 v -2 h 1 v -2 h 1 v -1 h 1 v -2 h 1 v -2 h 1 v -1 h 1 v -2 h 1 v -2 h 1 v -1 h 1 v -2 h 1 v -1 h 1 v -1 h 1 v -2 h 1 v -1 h 1 v -1 h 1 v -2 h 1 v -1 h 1 v -1 h 1 v -2 h 1 v -1 h 1 v -1 h 1 v -2 h 1 v -1 h 1 v -1 h 1 v -1 h 1 v -1 h 1 v -1 h 1 v -1 h 1 v -2 h 1 v -1 h 1 v -1 h 1 v -1 h 1 v -1 h 1 v -1 h 1 v -1 h 1 v -1 h 1 v -1 h 1 v -2 h 1 v -1 h 1 v -1 h 1 v -1 h 2 v -1 h 1 v -1 h 1 v -1 h 1 v -1 h 1 v -1 h 1 v -1 h 1 v -1 h 1 v -1 h 1 v -1 h 1 v -1 h 2 v -1 h 1 v -1 h 1 v -1 h 1 v -1 h 1 v -1 h 1 v -1 h 2 v -1 h 1 v -1 h 1 v -1 h 2 v -1 h 1 v -1 h 1 v -1 h 2 v -1 h 1 v -1 h 1 v -1 h 2 v -1 h 1 v -1 h 1 v -1 h 2 v -1 h 1 v -1 h 2 v -1 h 2 v -1 h 1 v -1 h 2 v -1 h 1 v -1 h 2 v -1 h 2 v -1 h 1 v -1 h 2 v -1 h 2 v -1 h 1 v -1 h 2 v -1 h 2 v -1 h 2 v -1 h 2 v -1 h 2 v -1 h 2 v -1 h 2 v -1 h 2 v -1 h 3 v -1 h 2 v -1 h 2 v -1 h 2 v -1 h 3 v -1 h 3 v -1 h 2 v -1 h 3 v -1 h 3 v -1 h 2 v -1 h 3 v -1 h 3 v -1 h 4 v -1 h 4 v -1 h 4 v -1 h 3 v -1 h 4 v -1 h 4 v -1 h 6 v -1 h 7 v -1 h 6 v -1 h 7 v -1 z m 3,640 v -1 h 18 v 1 h 8 v 1 h 6 v 1 h 4 v 1 h 4 v 1 h 4 v 1 h 2 v 1 h 3 v 1 h 3 v 1 h 2 v 1 h 2 v 1 h 2 v 1 h 2 v 1 h 2 v 1 h 2 v 1 h 2 v 1 h 2 v 1 h 1 v 1 h 2 v 1 h 2 v 1 h 1 v 1 h 1 v 1 h 2 v 1 h 1 v 1 h 1 v 1 h 2 v 1 h 1 v 1 h 1 v 1 h 1 v 1 h 1 v 1 h 1 v 1 h 2 v 1 h 1 v 1 h 1 v 1 h 1 v 1 h 1 v 1 h 1 v 1 h 1 v 2 h 1 v 1 h 1 v 1 h 1 v 1 h 1 v 1 h 1 v 1 h 1 v 2 h 1 v 1 h 1 v 2 h 1 v 1 h 1 v 1 h 1 v 2 h 1 v 1 h 1 v 2 h 1 v 2 h 1 v 1 h 1 v 2 h 1 v 2 h 1 v 2 h 1 v 2 h 1 v 2 h 1 v 3 h 1 v 2 h 1 v 3 h 1 v 3 h 1 v 2 h 1 v 4 h 1 v 4 h 1 v 4 h 1 v 6 h 1 v 7 h 1 v 21 h -1 v 7 h -1 v 7 h -1 v 4 h -1 v 4 h -1 v 3 h -1 v 3 h -1 v 3 h -1 v 3 h -1 v 2 h -1 v 2 h -1 v 2 h -1 v 3 h -1 v 2 h -1 v 2 h -1 v 1 h -1 v 2 h -1 v 2 h -1 v 1 h -1 v 2 h -1 v 1 h -1 v 2 h -1 v 1 h -1 v 1 h -1 v 2 h -1 v 1 h -1 v 1 h -1 v 1 h -1 v 2 h -1 v 1 h -1 v 1 h -1 v 1 h -1 v 1 h -1 v 1 h -1 v 1 h -1 v 1 h -1 v 1 h -1 v 1 h -1 v 1 h -1 v 1 h -1 v 1 h -2 v 1 h -1 v 1 h -1 v 1 h -1 v 1 h -2 v 1 h -1 v 1 h -2 v 1 h -1 v 1 h -2 v 1 h -1 v 1 h -2 v 1 h -2 v 1 h -1 v 1 h -2 v 1 h -2 v 1 h -2 v 1 h -2 v 1 h -2 v 1 h -3 v 1 h -3 v 1 h -2 v 1 h -3 v 1 h -4 v 1 h -4 v 1 h -4 v 1 h -6 v 1 h -7 v 1 h -22 v -1 h -7 v -1 h -6 v -1 h -4 v -1 h -4 v -1 h -4 v -1 h -2 v -1 h -3 v -1 h -3 v -1 h -2 v -1 h -2 v -1 h -2 v -1 h -3 v -1 h -2 v -1 h -1 v -1 h -2 v -1 h -2 v -1 h -1 v -1 h -2 v -1 h -2 v -1 h -1 v -1 h -1 v -1 h -2 v -1 h -1 v -1 h -1 v -1 h -2 v -1 h -1 v -1 h -1 v -1 h -1 v -1 h -1 v -1 h -2 v -1 h -1 v -1 h -1 v -1 h -1 v -1 h -1 v -1 h -1 v -1 h -1 v -1 h -1 v -2 h -1 v -1 h -1 v -1 h -1 v -1 h -1 v -1 h -1 v -2 h -1 v -1 h -1 v -1 h -1 v -2 h -1 v -1 h -1 v -1 h -1 v -2 h -1 v -2 h -1 v -1 h -1 v -2 h -1 v -2 h -1 v -1 h -1 v -3 h -1 v -2 h -1 v -2 h -1 v -2 h -1 v -2 h -1 v -3 h -1 v -3 h -1 v -3 h -1 v -3 h -1 v -4 h -1 v -4 h -1 v -6 h -1 v -7 h -1 v -23 h 1 v -7 h 1 v -6 h 1 v -3 h 1 v -4 h 1 v -4 h 1 v -3 h 1 v -2 h 1 v -3 h 1 v -2 h 1 v -3 h 1 v -2 h 1 v -2 h 1 v -2 h 1 v -2 h 1 v -1 h 1 v -2 h 1 v -2 h 1 v -1 h 1 v -2 h 1 v -1 h 1 v -2 h 1 v -1 h 1 v -2 h 1 v -1 h 1 v -1 h 1 v -2 h 1 v -1 h 1 v -1 h 1 v -1 h 1 v -1 h 1 v -1 h 1 v -1 h 1 v -1 h 1 v -1 h 1 v -1 h 1 v -1 h 1 v -1 h 1 v -1 h 1 v -1 h 1 v -1 h 1 v -1 h 1 v -1 h 1 v -1 h 2 v -1 h 1 v -1 h 1 v -1 h 2 v -1 h 1 v -1 h 1 v -1 h 2 v -1 h 1 v -1 h 2 v -1 h 2 v -1 h 1 v -1 h 2 v -1 h 2 v -1 h 2 v -1 h 2 v -1 h 2 v -1 h 2 v -1 h 3 v -1 h 2 v -1 h 3 v -1 h 3 v -1 h 3 v -1 h 4 v -1 h 4 v -1 h 6 v -1" /></clipPath></defs><g
     transform="matrix(1.3333333,0,0,-1.3333333,0,281.34667)"
     id="g10"><g
       transform="scale(0.1)"
       id="g12"><path
         id="path14"
         style="fill:#133a50;fill-opacity:1;fill-rule:nonzero;stroke:none"
         d="M 357.098,477.98 236.227,504.352 C 172.418,518.469 135.59,559.57 135.59,617.859 c 0,74.243 65.656,130.09 152.168,130.09 82.226,0 141.125,-27 180.394,-66.277 l 57.68,90.816 c -53.375,47.242 -119.648,83.453 -240.516,83.453 -147.89,0 -272.4293,-112.902 -272.4293,-246.05 0,-116.582 73.625,-198.801 201.8633,-227.02 l 115.352,-25.16 c 73.632,-15.961 117.183,-61.359 117.183,-121.492 0,-60.129 -42.32,-124.559 -161.969,-124.559 -106.152,0 -173.644,44.18 -227.0191,93.27 L 0,113.512 C 60.1289,57.0508 147.258,0 286.527,0 c 161.989,0 284.711,105.531 284.711,245.422 0,117.797 -77.925,203.098 -214.14,232.558" /><g
         id="g16"><g
           clip-path="url(#clipPath22)"
           id="g18"><g
             clip-path="url(#clipPath28)"
             id="g24"><g
               clip-path="url(#clipPath34)"
               id="g30"><g
                 clip-path="url(#clipPath40)"
                 id="g36"><g
                   clip-path="url(#clipPath46)"
                   id="g42"><g
                     transform="matrix(9.99744,0,0,-9.99744,117.186,681.07)"
                     id="g48"><path
                       id="path50"
                       style="fill:#c0571f;fill-opacity:1;fill-rule:nonzero;stroke:none"
                       d="m -11.118226,3.488404 c 4.0546976,0 8.1084792,0 12.1621997,0 0,-3.17528726 0,-6.3505746 0,-9.5253733 -4.0537205,0 -8.1075021,0 -12.1621997,0 0,3.1747987 0,6.35008604 0,9.5253733 z" /><path
                       id="path52"
                       style="fill:#b8541e;fill-opacity:1;fill-rule:nonzero;stroke:none"
                       d="m -11.118226,-6.0369693 c 4.0546976,0 8.1084792,0 12.1621997,0 0,-3.1752873 0,-6.3505747 0,-9.5253737 -4.0537205,0 -8.1075021,0 -12.1621997,0 0,3.174799 0,6.3500864 0,9.5253737 z" /><path
                       id="path54"
                       style="fill:#c35c20;fill-opacity:1;fill-rule:nonzero;stroke:none"
                       d="m 1.0439737,3.488404 c 4.0537206,0 8.1074411,0 12.1612223,0 0,-3.17528726 0,-6.3505746 0,-9.5253733 -4.0537812,0 -8.1075017,0 -12.1612223,0 0,3.1747987 0,6.35008604 0,9.5253733 z" /><path
                       id="path56"
                       style="fill:#ba551f;fill-opacity:1;fill-rule:nonzero;stroke:none"
                       d="m 1.0439737,-6.0369693 c 4.0537206,0 8.1074411,0 12.1612223,0 0,-3.1752873 0,-6.3505747 0,-9.5253737 -4.0537812,0 -8.1075017,0 -12.1612223,0 0,3.174799 0,6.3500864 0,9.5253737 z" /><path
                       id="path58"
                       style="fill:#c55e20;fill-opacity:1;fill-rule:nonzero;stroke:none"
                       d="m 13.205196,3.488404 c 8.107442,0 16.214944,0 24.322385,0 0,-3.17528726 0,-6.3505746 0,-9.5253733 -8.107441,0 -16.214943,0 -24.322385,0 0,3.1747987 0,6.35008604 0,9.5253733 z" /><path
                       id="path60"
                       style="fill:#bc561f;fill-opacity:1;fill-rule:nonzero;stroke:none"
                       d="m 13.205196,-6.0369693 c 8.107442,0 16.214944,0 24.322385,0 0,-3.1752873 0,-6.3505747 0,-9.5253737 -8.107441,0 -16.214943,0 -24.322385,0 0,3.174799 0,6.3500864 0,9.5253737 z" /><path
                       id="path62"
                       style="fill:#cb6120;fill-opacity:1;fill-rule:nonzero;stroke:none"
                       d="m 37.527581,3.488404 c 8.108478,0 16.21592,0 24.323422,0 0,-3.17528726 0,-6.3505746 0,-9.5253733 -8.107502,0 -16.214944,0 -24.323422,0 0,3.1747987 0,6.35008604 0,9.5253733 z" /><path
                       id="path64"
                       style="fill:#c45d20;fill-opacity:1;fill-rule:nonzero;stroke:none"
                       d="m 37.527581,-6.0369693 c 8.108478,0 16.21592,0 24.323422,0 0,-3.1752873 0,-6.3505747 0,-9.5253737 -8.107502,0 -16.214944,0 -24.323422,0 0,3.174799 0,6.3500864 0,9.5253737 z" /><path
                       id="path66"
                       style="fill:#cf6921;fill-opacity:1;fill-rule:nonzero;stroke:none"
                       d="m 61.851003,3.488404 c 8.107441,0 16.214943,0 24.322384,0 0,-3.17528726 0,-6.3505746 0,-9.5253733 -8.107441,0 -16.214943,0 -24.322384,0 0,3.1747987 0,6.35008604 0,9.5253733 z" /><path
                       id="path68"
                       style="fill:#c96221;fill-opacity:1;fill-rule:nonzero;stroke:none"
                       d="m 61.851003,-6.0369693 c 8.107441,0 16.214943,0 24.322384,0 0,-3.1752873 0,-6.3505747 0,-9.5253737 -8.107441,0 -16.214943,0 -24.322384,0 0,3.174799 0,6.3500864 0,9.5253737 z" /><path
                       id="path70"
                       style="fill:#d67123;fill-opacity:1;fill-rule:nonzero;stroke:none"
                       d="m 86.173387,3.488404 c 4.053721,0 8.108479,0 12.1622,0 0,-3.17528726 0,-6.3505746 0,-9.5253733 -4.053721,0 -8.108479,0 -12.1622,0 0,3.1747987 0,6.35008604 0,9.5253733 z" /><path
                       id="path72"
                       style="fill:#ce6622;fill-opacity:1;fill-rule:nonzero;stroke:none"
                       d="m 86.173387,-6.0369693 c 4.053721,0 8.108479,0 12.1622,0 0,-3.1752873 0,-6.3505747 0,-9.5253737 -4.053721,0 -8.108479,0 -12.1622,0 0,3.174799 0,6.3500864 0,9.5253737 z" /><path
                       id="path74"
                       style="fill:#da7624;fill-opacity:1;fill-rule:nonzero;stroke:none"
                       d="m 98.335587,3.488404 c 4.053723,0 8.107443,0 12.161223,0 0,-3.17528726 0,-6.3505746 0,-9.5253733 -4.05378,0 -8.1075,0 -12.161223,0 0,3.1747987 0,6.35008604 0,9.5253733 z" /><path
                       id="path76"
                       style="fill:#d26b22;fill-opacity:1;fill-rule:nonzero;stroke:none"
                       d="m 98.335587,-6.0369693 c 4.053723,0 8.107443,0 12.161223,0 0,-3.1752873 0,-6.3505747 0,-9.5253737 -4.05378,0 -8.1075,0 -12.161223,0 0,3.174799 0,6.3500864 0,9.5253737 z" /><path
                       id="path78"
                       style="fill:#db7923;fill-opacity:1;fill-rule:nonzero;stroke:none"
                       d="m 110.49681,3.488404 c 8.10744,0 16.21488,0 24.32244,0 0,-6.3505746 0,-12.7006606 0,-19.050747 -8.10756,0 -16.215,0 -24.32244,0 0,6.3500864 0,12.7001724 0,19.050747 z" /><path
                       id="path80"
                       style="fill:#d97523;fill-opacity:1;fill-rule:nonzero;stroke:none"
                       d="m 134.81925,3.488404 c 8.10842,0 16.21586,0 24.3233,0 0,-6.3505746 0,-12.7006606 0,-19.050747 -8.10744,0 -16.21488,0 -24.3233,0 0,6.3500864 0,12.7001724 0,19.050747 z" /><path
                       id="path82"
                       style="fill:#d67123;fill-opacity:1;fill-rule:nonzero;stroke:none"
                       d="m 159.14255,3.488404 c 0,-6.3505746 0,-12.7006606 0,-19.050747 4.05373,0 8.10757,0 12.16129,0 0,6.3500864 0,12.7001724 0,19.050747 -4.05372,0 -8.10756,0 -12.16129,0 z" /><path
                       id="path84"
                       style="fill:#d77523;fill-opacity:1;fill-rule:nonzero;stroke:none"
                       d="m 171.30384,3.488404 c 0,-6.3505746 0,-12.7006606 0,-19.050747 4.05372,0 8.10744,0 12.16116,0 0,6.3500864 0,12.7001724 0,19.050747 -4.05372,0 -8.10744,0 -12.16116,0 z" /><path
                       id="path86"
                       style="fill:#b5521e;fill-opacity:1;fill-rule:nonzero;stroke:none"
                       d="m -11.118226,-15.562343 c 8.1084792,0 16.2159203,0 24.323422,0 0,-3.175257 0,-6.350544 0,-9.525831 -8.1075017,0 -16.2149428,0 -24.323422,0 0,3.175287 0,6.350574 0,9.525831 z" /><path
                       id="path88"
                       style="fill:#b6551f;fill-opacity:1;fill-rule:nonzero;stroke:none"
                       d="m -11.118226,-25.088174 c 8.1084792,0 16.2159203,0 24.323422,0 0,-3.174799 0,-6.350087 0,-9.525374 -8.1075017,0 -16.2149428,0 -24.323422,0 0,3.175287 0,6.350575 0,9.525374 z" /><path
                       id="path90"
                       style="fill:#b9541f;fill-opacity:1;fill-rule:nonzero;stroke:none"
                       d="m 13.205196,-15.562343 c 8.107442,0 16.214944,0 24.322385,0 0,-6.350544 0,-12.70063 0,-19.051205 -8.107441,0 -16.214943,0 -24.322385,0 0,6.350575 0,12.700661 0,19.051205 z" /><path
                       id="path92"
                       style="fill:#c05b20;fill-opacity:1;fill-rule:nonzero;stroke:none"
                       d="m 37.527581,-15.562343 c 8.108478,0 16.21592,0 24.323422,0 0,-6.350544 0,-12.70063 0,-19.051205 -8.107502,0 -16.214944,0 -24.323422,0 0,6.350575 0,12.700661 0,19.051205 z" /><path
                       id="path94"
                       style="fill:#c55e21;fill-opacity:1;fill-rule:nonzero;stroke:none"
                       d="m 61.851003,-15.562343 c 8.107441,0 16.214943,0 24.322384,0 0,-3.175257 0,-6.350544 0,-9.525831 -8.107441,0 -16.214943,0 -24.322384,0 0,3.175287 0,6.350574 0,9.525831 z" /><path
                       id="path96"
                       style="fill:#bf5c21;fill-opacity:1;fill-rule:nonzero;stroke:none"
                       d="m 61.851003,-25.088174 c 8.107441,0 16.214943,0 24.322384,0 0,-3.174799 0,-6.350087 0,-9.525374 -8.107441,0 -16.214943,0 -24.322384,0 0,3.175287 0,6.350575 0,9.525374 z" /><path
                       id="path98"
                       style="fill:#c86021;fill-opacity:1;fill-rule:nonzero;stroke:none"
                       d="m 86.173387,-15.562343 c 8.108479,0 16.215923,0 24.323423,0 0,-3.175257 0,-6.350544 0,-9.525831 -8.1075,0 -16.214944,0 -24.323423,0 0,3.175287 0,6.350574 0,9.525831 z" /><path
                       id="path100"
                       style="fill:#c35d21;fill-opacity:1;fill-rule:nonzero;stroke:none"
                       d="m 86.173387,-25.088174 c 8.108479,0 16.215923,0 24.323423,0 0,-3.174799 0,-6.350087 0,-9.525374 -8.1075,0 -16.214944,0 -24.323423,0 0,3.175287 0,6.350575 0,9.525374 z" /><path
                       id="path102"
                       style="fill:#ce6721;fill-opacity:1;fill-rule:nonzero;stroke:none"
                       d="m 110.49681,-15.562343 c 8.10744,0 16.21488,0 24.32244,0 0,-6.350544 0,-12.70063 0,-19.051205 -8.10756,0 -16.215,0 -24.32244,0 0,6.350575 0,12.700661 0,19.051205 z" /><path
                       id="path104"
                       style="fill:#d26c22;fill-opacity:1;fill-rule:nonzero;stroke:none"
                       d="m 134.81925,-15.562343 c 8.10842,0 16.21586,0 24.3233,0 0,-6.350544 0,-12.70063 0,-19.051205 -8.10744,0 -16.21488,0 -24.3233,0 0,6.350575 0,12.700661 0,19.051205 z" /><path
                       id="path106"
                       style="fill:#d16a22;fill-opacity:1;fill-rule:nonzero;stroke:none"
                       d="m 159.14255,-15.562343 c 0,-6.350544 0,-12.70063 0,-19.051205 4.05373,0 8.10757,0 12.16129,0 0,6.350575 0,12.700661 0,19.051205 -4.05372,0 -8.10756,0 -12.16129,0 z" /><path
                       id="path108"
                       style="fill:#d36e24;fill-opacity:1;fill-rule:nonzero;stroke:none"
                       d="m 171.30384,-15.562343 c 4.05372,0 8.10744,0 12.16116,0 0,-3.175257 0,-6.350544 0,-9.525831 -4.05372,0 -8.10744,0 -12.16116,0 0,3.175287 0,6.350574 0,9.525831 z" /><path
                       id="path110"
                       style="fill:#d16d23;fill-opacity:1;fill-rule:nonzero;stroke:none"
                       d="m 171.30384,-25.088174 c 4.05372,0 8.10744,0 12.16116,0 0,-3.174799 0,-6.350087 0,-9.525374 -4.05372,0 -8.10744,0 -12.16116,0 0,3.175287 0,6.350575 0,9.525374 z" /><path
                       id="path112"
                       style="fill:#b65920;fill-opacity:1;fill-rule:nonzero;stroke:none"
                       d="m -11.118226,-34.613548 c 8.1084792,0 16.2159203,0 24.323422,0 0,-6.350086 0,-12.700172 0,-19.050747 -8.1075017,0 -16.2149428,0 -24.323422,0 0,6.350575 0,12.700661 0,19.050747 z" /><path
                       id="path114"
                       style="fill:#b95821;fill-opacity:1;fill-rule:nonzero;stroke:none"
                       d="m 13.205196,-34.613548 c 8.107442,0 16.214944,0 24.322385,0 0,-6.350086 0,-12.700172 0,-19.050747 -8.107441,0 -16.214943,0 -24.322385,0 0,6.350575 0,12.700661 0,19.050747 z" /><path
                       id="path116"
                       style="fill:#bc5d21;fill-opacity:1;fill-rule:nonzero;stroke:none"
                       d="m 37.527581,-34.613548 c 8.108478,0 16.21592,0 24.323422,0 0,-3.174799 0,-6.350086 0,-9.525373 -8.107502,0 -16.214944,0 -24.323422,0 0,3.175287 0,6.350574 0,9.525373 z" /><path
                       id="path118"
                       style="fill:#be5f23;fill-opacity:1;fill-rule:nonzero;stroke:none"
                       d="m 37.527581,-44.138921 c 8.108478,0 16.21592,0 24.323422,0 0,-3.174799 0,-6.350087 0,-9.525374 -8.107502,0 -16.214944,0 -24.323422,0 0,3.175287 0,6.350575 0,9.525374 z" /><path
                       id="path120"
                       style="fill:#bd5a21;fill-opacity:1;fill-rule:nonzero;stroke:none"
                       d="m 61.851003,-34.613548 c 8.107441,0 16.214943,0 24.322384,0 0,-3.174799 0,-6.350086 0,-9.525373 -8.107441,0 -16.214943,0 -24.322384,0 0,3.175287 0,6.350574 0,9.525373 z" /><path
                       id="path122"
                       style="fill:#bf5f23;fill-opacity:1;fill-rule:nonzero;stroke:none"
                       d="m 61.851003,-44.138921 c 8.107441,0 16.214943,0 24.322384,0 0,-3.174799 0,-6.350087 0,-9.525374 -8.107441,0 -16.214943,0 -24.322384,0 0,3.175287 0,6.350575 0,9.525374 z" /><path
                       id="path124"
                       style="fill:#c15c21;fill-opacity:1;fill-rule:nonzero;stroke:none"
                       d="m 86.173387,-34.613548 c 8.108479,0 16.215923,0 24.323423,0 0,-3.174799 0,-6.350086 0,-9.525373 -8.1075,0 -16.214944,0 -24.323423,0 0,3.175287 0,6.350574 0,9.525373 z" /><path
                       id="path126"
                       style="fill:#c15e22;fill-opacity:1;fill-rule:nonzero;stroke:none"
                       d="m 86.173387,-44.138921 c 8.108479,0 16.215923,0 24.323423,0 0,-3.174799 0,-6.350087 0,-9.525374 -8.1075,0 -16.214944,0 -24.323423,0 0,3.175287 0,6.350575 0,9.525374 z" /><path
                       id="path128"
                       style="fill:#c55e21;fill-opacity:1;fill-rule:nonzero;stroke:none"
                       d="m 110.49681,-34.613548 c 8.10744,0 16.21488,0 24.32244,0 0,-3.174799 0,-6.350086 0,-9.525373 -8.10756,0 -16.215,0 -24.32244,0 0,3.175287 0,6.350574 0,9.525373 z" /><path
                       id="path130"
                       style="fill:#c05c21;fill-opacity:1;fill-rule:nonzero;stroke:none"
                       d="m 110.49681,-44.138921 c 8.10744,0 16.21488,0 24.32244,0 0,-3.174799 0,-6.350087 0,-9.525374 -8.10756,0 -16.215,0 -24.32244,0 0,3.175287 0,6.350575 0,9.525374 z" /><path
                       id="path132"
                       style="fill:#c96221;fill-opacity:1;fill-rule:nonzero;stroke:none"
                       d="m 134.81925,-34.613548 c 8.10842,0 16.21586,0 24.3233,0 0,-6.350086 0,-12.700172 0,-19.050747 -8.10744,0 -16.21488,0 -24.3233,0 0,6.350575 0,12.700661 0,19.050747 z" /><path
                       id="path134"
                       style="fill:#cb6621;fill-opacity:1;fill-rule:nonzero;stroke:none"
                       d="m 159.14255,-34.613548 c 8.10757,0 16.21501,0 24.32245,0 0,-6.350086 0,-12.700172 0,-19.050747 -8.10744,0 -16.21488,0 -24.32245,0 0,6.350575 0,12.700661 0,19.050747 z" /><path
                       id="path136"
                       style="fill:#ba5f25;fill-opacity:1;fill-rule:nonzero;stroke:none"
                       d="m -11.118226,-53.664295 c 8.1084792,0 16.2159203,0 24.323422,0 0,-6.350086 0,-12.700172 0,-19.050717 -8.1075017,0 -16.2149428,0 -24.323422,0 0,6.350545 0,12.700631 0,19.050717 z" /><path
                       id="path138"
                       style="fill:#c06726;fill-opacity:1;fill-rule:nonzero;stroke:none"
                       d="m 13.205196,-53.664295 c 8.107442,0 16.214944,0 24.322385,0 0,-6.350086 0,-12.700172 0,-19.050717 -8.107441,0 -16.214943,0 -24.322385,0 0,6.350545 0,12.700631 0,19.050717 z" /><path
                       id="path140"
                       style="fill:#c36425;fill-opacity:1;fill-rule:nonzero;stroke:none"
                       d="m 37.527581,-53.664295 c 8.108478,0 16.21592,0 24.323422,0 0,-6.350086 0,-12.700172 0,-19.050717 -8.107502,0 -16.214944,0 -24.323422,0 0,6.350545 0,12.700631 0,19.050717 z" /><path
                       id="path142"
                       style="fill:#c36726;fill-opacity:1;fill-rule:nonzero;stroke:none"
                       d="m 61.851003,-53.664295 c 8.107441,0 16.214943,0 24.322384,0 0,-6.350086 0,-12.700172 0,-19.050717 -8.107441,0 -16.214943,0 -24.322384,0 0,6.350545 0,12.700631 0,19.050717 z" /><path
                       id="path144"
                       style="fill:#c26324;fill-opacity:1;fill-rule:nonzero;stroke:none"
                       d="m 86.173387,-53.664295 c 8.108479,0 16.215923,0 24.323423,0 0,-6.350086 0,-12.700172 0,-19.050717 -8.1075,0 -16.214944,0 -24.323423,0 0,6.350545 0,12.700631 0,19.050717 z" /><path
                       id="path146"
                       style="fill:#be5c21;fill-opacity:1;fill-rule:nonzero;stroke:none"
                       d="m 110.49681,-53.664295 c 8.10744,0 16.21488,0 24.32244,0 0,-6.350086 0,-12.700172 0,-19.050717 -8.10756,0 -16.215,0 -24.32244,0 0,6.350545 0,12.700631 0,19.050717 z" /><path
                       id="path148"
                       style="fill:#c35f21;fill-opacity:1;fill-rule:nonzero;stroke:none"
                       d="m 134.81925,-53.664295 c 8.10842,0 16.21586,0 24.3233,0 0,-6.350086 0,-12.700172 0,-19.050717 -8.10744,0 -16.21488,0 -24.3233,0 0,6.350545 0,12.700631 0,19.050717 z" /><path
                       id="path150"
                       style="fill:#c86221;fill-opacity:1;fill-rule:nonzero;stroke:none"
                       d="m 159.14255,-53.664295 c 8.10757,0 16.21501,0 24.32245,0 0,-6.350086 0,-12.700172 0,-19.050717 -8.10744,0 -16.21488,0 -24.32245,0 0,6.350545 0,12.700631 0,19.050717 z" /><path
                       id="path152"
                       style="fill:#c9722a;fill-opacity:1;fill-rule:nonzero;stroke:none"
                       d="m -11.118226,-72.715012 c 0,-6.350086 0,-12.700172 0,-19.050747 4.0546976,0 8.1084792,0 12.1621997,0 0,6.350575 0,12.700661 0,19.050747 -4.0537205,0 -8.1075021,0 -12.1621997,0 z" /><path
                       id="path154"
                       style="fill:#cb742b;fill-opacity:1;fill-rule:nonzero;stroke:none"
                       d="m 1.0439737,-72.715012 c 0,-6.350086 0,-12.700172 0,-19.050747 4.0537206,0 8.1074411,0 12.1612223,0 0,6.350575 0,12.700661 0,19.050747 -4.0537812,0 -8.1075017,0 -12.1612223,0 z" /><path
                       id="path156"
                       style="fill:#cd772b;fill-opacity:1;fill-rule:nonzero;stroke:none"
                       d="m 13.205196,-72.715012 c 8.107442,0 16.214944,0 24.322385,0 0,-6.350086 0,-12.700172 0,-19.050747 -8.107441,0 -16.214943,0 -24.322385,0 0,6.350575 0,12.700661 0,19.050747 z" /><path
                       id="path158"
                       style="fill:#d07b2c;fill-opacity:1;fill-rule:nonzero;stroke:none"
                       d="m 37.527581,-72.715012 c 8.108478,0 16.21592,0 24.323422,0 0,-6.350086 0,-12.700172 0,-19.050747 -8.107502,0 -16.214944,0 -24.323422,0 0,6.350575 0,12.700661 0,19.050747 z" /><path
                       id="path160"
                       style="fill:#cc742b;fill-opacity:1;fill-rule:nonzero;stroke:none"
                       d="m 61.851003,-72.715012 c 0,-6.350086 0,-12.700172 0,-19.050747 4.05372,0 8.107441,0 12.161161,0 0,6.350575 0,12.700661 0,19.050747 -4.05372,0 -8.107441,0 -12.161161,0 z" /><path
                       id="path162"
                       style="fill:#c9722a;fill-opacity:1;fill-rule:nonzero;stroke:none"
                       d="m 74.012164,-72.715012 c 0,-6.350086 0,-12.700172 0,-19.050747 4.053782,0 8.107503,0 12.161223,0 0,6.350575 0,12.700661 0,19.050747 -4.05372,0 -8.107441,0 -12.161223,0 z" /><path
                       id="path164"
                       style="fill:#c87028;fill-opacity:1;fill-rule:nonzero;stroke:none"
                       d="m 86.173387,-72.715012 c 8.108479,0 16.215923,0 24.323423,0 0,-6.350086 0,-12.700172 0,-19.050747 -8.1075,0 -16.214944,0 -24.323423,0 0,6.350575 0,12.700661 0,19.050747 z" /><path
                       id="path166"
                       style="fill:#c46726;fill-opacity:1;fill-rule:nonzero;stroke:none"
                       d="m 110.49681,-72.715012 c 8.10744,0 16.21488,0 24.32244,0 0,-6.350086 0,-12.700172 0,-19.050747 -8.10756,0 -16.215,0 -24.32244,0 0,6.350575 0,12.700661 0,19.050747 z" /><path
                       id="path168"
                       style="fill:#c06023;fill-opacity:1;fill-rule:nonzero;stroke:none"
                       d="m 134.81925,-72.715012 c 0,-6.350086 0,-12.700172 0,-19.050747 4.05373,0 8.10842,0 12.16214,0 0,6.350575 0,12.700661 0,19.050747 -4.05372,0 -8.10841,0 -12.16214,0 z" /><path
                       id="path170"
                       style="fill:#c15e22;fill-opacity:1;fill-rule:nonzero;stroke:none"
                       d="m 146.98139,-72.715012 c 0,-6.350086 0,-12.700172 0,-19.050747 4.05372,0 8.10744,0 12.16116,0 0,6.350575 0,12.700661 0,19.050747 -4.05372,0 -8.10744,0 -12.16116,0 z" /><path
                       id="path172"
                       style="fill:#c45f22;fill-opacity:1;fill-rule:nonzero;stroke:none"
                       d="m 159.14255,-72.715012 c 0,-6.350086 0,-12.700172 0,-19.050747 4.05373,0 8.10757,0 12.16129,0 0,6.350575 0,12.700661 0,19.050747 -4.05372,0 -8.10756,0 -12.16129,0 z" /><path
                       id="path174"
                       style="fill:#c86222;fill-opacity:1;fill-rule:nonzero;stroke:none"
                       d="m 171.30384,-72.715012 c 0,-6.350086 0,-12.700172 0,-19.050747 4.05372,0 8.10744,0 12.16116,0 0,6.350575 0,12.700661 0,19.050747 -4.05372,0 -8.10744,0 -12.16116,0 z" /><path
                       id="path176"
                       style="fill:#d3812d;fill-opacity:1;fill-rule:nonzero;stroke:none"
                       d="m -11.118226,-91.765759 c 0,-6.350086 0,-12.700171 0,-19.050751 4.0546976,0 8.1084792,0 12.1621997,0 0,6.35058 0,12.700665 0,19.050751 -4.0537205,0 -8.1075021,0 -12.1621997,0 z" /><path
                       id="path178"
                       style="fill:#d88931;fill-opacity:1;fill-rule:nonzero;stroke:none"
                       d="m 1.0439737,-91.765759 c 0,-6.350086 0,-12.700171 0,-19.050751 4.0537206,0 8.1074411,0 12.1612223,0 0,6.35058 0,12.700665 0,19.050751 -4.0537812,0 -8.1075017,0 -12.1612223,0 z" /><path
                       id="path180"
                       style="fill:#dd9033;fill-opacity:1;fill-rule:nonzero;stroke:none"
                       d="m 13.205196,-91.765759 c 8.107442,0 16.214944,0 24.322385,0 0,-6.350086 0,-12.700171 0,-19.050751 -8.107441,0 -16.214943,0 -24.322385,0 0,6.35058 0,12.700665 0,19.050751 z" /><path
                       id="path182"
                       style="fill:#dd9235;fill-opacity:1;fill-rule:nonzero;stroke:none"
                       d="m 37.527581,-91.765759 c 8.108478,0 16.21592,0 24.323422,0 0,-6.350086 0,-12.700171 0,-19.050751 -8.107502,0 -16.214944,0 -24.323422,0 0,6.35058 0,12.700665 0,19.050751 z" /><path
                       id="path184"
                       style="fill:#db9033;fill-opacity:1;fill-rule:nonzero;stroke:none"
                       d="m 61.851003,-91.765759 c 0,-6.350086 0,-12.700171 0,-19.050751 4.05372,0 8.107441,0 12.161161,0 0,6.35058 0,12.700665 0,19.050751 -4.05372,0 -8.107441,0 -12.161161,0 z" /><path
                       id="path186"
                       style="fill:#d88931;fill-opacity:1;fill-rule:nonzero;stroke:none"
                       d="m 74.012164,-91.765759 c 0,-6.350086 0,-12.700171 0,-19.050751 4.053782,0 8.107503,0 12.161223,0 0,6.35058 0,12.700665 0,19.050751 -4.05372,0 -8.107441,0 -12.161223,0 z" /><path
                       id="path188"
                       style="fill:#d57f2f;fill-opacity:1;fill-rule:nonzero;stroke:none"
                       d="m 86.173387,-91.765759 c 8.108479,0 16.215923,0 24.323423,0 0,-6.350086 0,-12.700171 0,-19.050751 -8.1075,0 -16.214944,0 -24.323423,0 0,6.35058 0,12.700665 0,19.050751 z" /><path
                       id="path190"
                       style="fill:#cd752c;fill-opacity:1;fill-rule:nonzero;stroke:none"
                       d="m 110.49681,-91.765759 c 8.10744,0 16.21488,0 24.32244,0 0,-6.350086 0,-12.700171 0,-19.050751 -8.10756,0 -16.215,0 -24.32244,0 0,6.35058 0,12.700665 0,19.050751 z" /><path
                       id="path192"
                       style="fill:#c56827;fill-opacity:1;fill-rule:nonzero;stroke:none"
                       d="m 134.81925,-91.765759 c 0,-6.350086 0,-12.700171 0,-19.050751 4.05373,0 8.10842,0 12.16214,0 0,6.35058 0,12.700665 0,19.050751 -4.05372,0 -8.10841,0 -12.16214,0 z" /><path
                       id="path194"
                       style="fill:#c26225;fill-opacity:1;fill-rule:nonzero;stroke:none"
                       d="m 146.98139,-91.765759 c 0,-6.350086 0,-12.700171 0,-19.050751 4.05372,0 8.10744,0 12.16116,0 0,6.35058 0,12.700665 0,19.050751 -4.05372,0 -8.10744,0 -12.16116,0 z" /><path
                       id="path196"
                       style="fill:#c25f23;fill-opacity:1;fill-rule:nonzero;stroke:none"
                       d="m 159.14255,-91.765759 c 0,-6.350086 0,-12.700171 0,-19.050751 4.05373,0 8.10757,0 12.16129,0 0,6.35058 0,12.700665 0,19.050751 -4.05372,0 -8.10756,0 -12.16129,0 z" /><path
                       id="path198"
                       style="fill:#c36122;fill-opacity:1;fill-rule:nonzero;stroke:none"
                       d="m 171.30384,-91.765759 c 0,-6.350086 0,-12.700171 0,-19.050751 4.05372,0 8.10744,0 12.16116,0 0,6.35058 0,12.700665 0,19.050751 -4.05372,0 -8.10744,0 -12.16116,0 z" /><path
                       id="path200"
                       style="fill:#dd9233;fill-opacity:1;fill-rule:nonzero;stroke:none"
                       d="m -11.118226,-110.81651 c 8.1084792,0 16.2159203,0 24.323422,0 0,-6.35008 0,-12.70066 0,-19.05074 -8.1075017,0 -16.2149428,0 -24.323422,0 0,6.35008 0,12.70066 0,19.05074 z" /><path
                       id="path202"
                       style="fill:#e4a33e;fill-opacity:1;fill-rule:nonzero;stroke:none"
                       d="m 13.205196,-110.81651 c 0,-6.35008 0,-12.70066 0,-19.05074 4.053721,0 8.107442,0 12.161162,0 0,6.35008 0,12.70066 0,19.05074 -4.05372,0 -8.107441,0 -12.161162,0 z" /><path
                       id="path204"
                       style="fill:#e5a642;fill-opacity:1;fill-rule:nonzero;stroke:none"
                       d="m 25.366358,-110.81651 c 4.053782,0 8.107502,0 12.161223,0 0,-3.17528 0,-6.35008 0,-9.52537 -4.053721,0 -8.107441,0 -12.161223,0 0,3.17529 0,6.35009 0,9.52537 z" /><path
                       id="path206"
                       style="fill:#e6ac4d;fill-opacity:1;fill-rule:nonzero;stroke:none"
                       d="m 25.366358,-120.34188 c 4.053782,0 8.107502,0 12.161223,0 0,-3.17529 0,-6.35009 0,-9.52537 -4.053721,0 -8.107441,0 -12.161223,0 0,3.17528 0,6.35008 0,9.52537 z" /><path
                       id="path208"
                       style="fill:#e5a745;fill-opacity:1;fill-rule:nonzero;stroke:none"
                       d="m 37.527581,-110.81651 c 8.108478,0 16.21592,0 24.323422,0 0,-3.17528 0,-6.35008 0,-9.52537 -8.107502,0 -16.214944,0 -24.323422,0 0,3.17529 0,6.35009 0,9.52537 z" /><path
                       id="path210"
                       style="fill:#e6ae51;fill-opacity:1;fill-rule:nonzero;stroke:none"
                       d="m 37.527581,-120.34188 c 8.108478,0 16.21592,0 24.323422,0 0,-3.17529 0,-6.35009 0,-9.52537 -8.107502,0 -16.214944,0 -24.323422,0 0,3.17528 0,6.35008 0,9.52537 z" /><path
                       id="path212"
                       style="fill:#e3a23e;fill-opacity:1;fill-rule:nonzero;stroke:none"
                       d="m 61.851003,-110.81651 c 8.107441,0 16.214943,0 24.322384,0 0,-6.35008 0,-12.70066 0,-19.05074 -8.107441,0 -16.214943,0 -24.322384,0 0,6.35008 0,12.70066 0,19.05074 z" /><path
                       id="path214"
                       style="fill:#de9739;fill-opacity:1;fill-rule:nonzero;stroke:none"
                       d="m 86.173387,-110.81651 c 8.108479,0 16.215923,0 24.323423,0 0,-6.35008 0,-12.70066 0,-19.05074 -8.1075,0 -16.214944,0 -24.323423,0 0,6.35008 0,12.70066 0,19.05074 z" /><path
                       id="path216"
                       style="fill:#d88732;fill-opacity:1;fill-rule:nonzero;stroke:none"
                       d="m 110.49681,-110.81651 c 8.10744,0 16.21488,0 24.32244,0 0,-6.35008 0,-12.70066 0,-19.05074 -8.10756,0 -16.215,0 -24.32244,0 0,6.35008 0,12.70066 0,19.05074 z" /><path
                       id="path218"
                       style="fill:#cb742c;fill-opacity:1;fill-rule:nonzero;stroke:none"
                       d="m 134.81925,-110.81651 c 0,-6.35008 0,-12.70066 0,-19.05074 4.05373,0 8.10842,0 12.16214,0 0,6.35008 0,12.70066 0,19.05074 -4.05372,0 -8.10841,0 -12.16214,0 z" /><path
                       id="path220"
                       style="fill:#c46929;fill-opacity:1;fill-rule:nonzero;stroke:none"
                       d="m 146.98139,-110.81651 c 0,-6.35008 0,-12.70066 0,-19.05074 4.05372,0 8.10744,0 12.16116,0 0,6.35008 0,12.70066 0,19.05074 -4.05372,0 -8.10744,0 -12.16116,0 z" /><path
                       id="path222"
                       style="fill:#c16126;fill-opacity:1;fill-rule:nonzero;stroke:none"
                       d="m 159.14255,-110.81651 c 8.10757,0 16.21501,0 24.32245,0 0,-6.35008 0,-12.70066 0,-19.05074 -8.10744,0 -16.21488,0 -24.32245,0 0,6.35008 0,12.70066 0,19.05074 z" /><path
                       id="path224"
                       style="fill:#e29d39;fill-opacity:1;fill-rule:nonzero;stroke:none"
                       d="m -11.118226,-129.86725 c 0,-6.35009 0,-12.70066 0,-19.05075 4.0546976,0 8.1084792,0 12.1621997,0 0,6.35009 0,12.70066 0,19.05075 -4.0537205,0 -8.1075021,0 -12.1621997,0 z" /><path
                       id="path226"
                       style="fill:#e5a645;fill-opacity:1;fill-rule:nonzero;stroke:none"
                       d="m 1.0439737,-129.86725 c 0,-6.35009 0,-12.70066 0,-19.05075 4.0537206,0 8.1074411,0 12.1612223,0 0,6.35009 0,12.70066 0,19.05075 -4.0537812,0 -8.1075017,0 -12.1612223,0 z" /><path
                       id="path228"
                       style="fill:#e6ad4e;fill-opacity:1;fill-rule:nonzero;stroke:none"
                       d="m 13.205196,-129.86725 c 0,-6.35009 0,-12.70066 0,-19.05075 4.053721,0 8.107442,0 12.161162,0 0,6.35009 0,12.70066 0,19.05075 -4.05372,0 -8.107441,0 -12.161162,0 z" /><path
                       id="path230"
                       style="fill:#e7b257;fill-opacity:1;fill-rule:nonzero;stroke:none"
                       d="m 25.366358,-129.86725 c 4.053782,0 8.107502,0 12.161223,0 0,-3.17529 0,-6.35009 0,-9.52538 -4.053721,0 -8.107441,0 -12.161223,0 0,3.17529 0,6.35009 0,9.52538 z" /><path
                       id="path232"
                       style="fill:#e7b45d;fill-opacity:1;fill-rule:nonzero;stroke:none"
                       d="m 25.366358,-139.39263 c 4.053782,0 8.107502,0 12.161223,0 0,-3.17528 0,-6.35008 0,-9.52537 -4.053721,0 -8.107441,0 -12.161223,0 0,3.17529 0,6.35009 0,9.52537 z" /><path
                       id="path234"
                       style="fill:#e7b35c;fill-opacity:1;fill-rule:nonzero;stroke:none"
                       d="m 37.527581,-129.86725 c 8.108478,0 16.21592,0 24.323422,0 0,-3.17529 0,-6.35009 0,-9.52538 -8.107502,0 -16.214944,0 -24.323422,0 0,3.17529 0,6.35009 0,9.52538 z" /><path
                       id="path236"
                       style="fill:#e8b661;fill-opacity:1;fill-rule:nonzero;stroke:none"
                       d="m 37.527581,-139.39263 c 8.108478,0 16.21592,0 24.323422,0 0,-3.17528 0,-6.35008 0,-9.52537 -8.107502,0 -16.214944,0 -24.323422,0 0,3.17529 0,6.35009 0,9.52537 z" /><path
                       id="path238"
                       style="fill:#e6b156;fill-opacity:1;fill-rule:nonzero;stroke:none"
                       d="m 61.851003,-129.86725 c 0,-6.35009 0,-12.70066 0,-19.05075 4.05372,0 8.107441,0 12.161161,0 0,6.35009 0,12.70066 0,19.05075 -4.05372,0 -8.107441,0 -12.161161,0 z" /><path
                       id="path240"
                       style="fill:#e6ad4e;fill-opacity:1;fill-rule:nonzero;stroke:none"
                       d="m 74.012164,-129.86725 c 0,-6.35009 0,-12.70066 0,-19.05075 4.053782,0 8.107503,0 12.161223,0 0,6.35009 0,12.70066 0,19.05075 -4.05372,0 -8.107441,0 -12.161223,0 z" /><path
                       id="path242"
                       style="fill:#e5a846;fill-opacity:1;fill-rule:nonzero;stroke:none"
                       d="m 86.173387,-129.86725 c 0,-6.35009 0,-12.70066 0,-19.05075 4.053721,0 8.108479,0 12.1622,0 0,6.35009 0,12.70066 0,19.05075 -4.053721,0 -8.108479,0 -12.1622,0 z" /><path
                       id="path244"
                       style="fill:#e3a140;fill-opacity:1;fill-rule:nonzero;stroke:none"
                       d="m 98.335587,-129.86725 c 0,-6.35009 0,-12.70066 0,-19.05075 4.053723,0 8.107443,0 12.161223,0 0,6.35009 0,12.70066 0,19.05075 -4.05378,0 -8.1075,0 -12.161223,0 z" /><path
                       id="path246"
                       style="fill:#de973b;fill-opacity:1;fill-rule:nonzero;stroke:none"
                       d="m 110.49681,-129.86725 c 0,-6.35009 0,-12.70066 0,-19.05075 4.05372,0 8.10744,0 12.16116,0 0,6.35009 0,12.70066 0,19.05075 -4.05372,0 -8.10744,0 -12.16116,0 z" /><path
                       id="path248"
                       style="fill:#d88c36;fill-opacity:1;fill-rule:nonzero;stroke:none"
                       d="m 122.65797,-129.86725 c 0,-6.35009 0,-12.70066 0,-19.05075 4.05372,0 8.10744,0 12.16128,0 0,6.35009 0,12.70066 0,19.05075 -4.05384,0 -8.10756,0 -12.16128,0 z" /><path
                       id="path250"
                       style="fill:#d28032;fill-opacity:1;fill-rule:nonzero;stroke:none"
                       d="m 134.81925,-129.86725 c 0,-6.35009 0,-12.70066 0,-19.05075 4.05373,0 8.10842,0 12.16214,0 0,6.35009 0,12.70066 0,19.05075 -4.05372,0 -8.10841,0 -12.16214,0 z" /><path
                       id="path252"
                       style="fill:#c9742d;fill-opacity:1;fill-rule:nonzero;stroke:none"
                       d="m 146.98139,-129.86725 c 0,-6.35009 0,-12.70066 0,-19.05075 4.05372,0 8.10744,0 12.16116,0 0,6.35009 0,12.70066 0,19.05075 -4.05372,0 -8.10744,0 -12.16116,0 z" /><path
                       id="path254"
                       style="fill:#c2692a;fill-opacity:1;fill-rule:nonzero;stroke:none"
                       d="m 159.14255,-129.86725 c 0,-6.35009 0,-12.70066 0,-19.05075 4.05373,0 8.10757,0 12.16129,0 0,6.35009 0,12.70066 0,19.05075 -4.05372,0 -8.10756,0 -12.16129,0 z" /><path
                       id="path256"
                       style="fill:#c06327;fill-opacity:1;fill-rule:nonzero;stroke:none"
                       d="m 171.30384,-129.86725 c 0,-6.35009 0,-12.70066 0,-19.05075 4.05372,0 8.10744,0 12.16116,0 0,6.35009 0,12.70066 0,19.05075 -4.05372,0 -8.10744,0 -12.16116,0 z" /></g></g></g></g></g></g></g></g></g></svg>