<svg width="148" height="434" viewBox="0 0 148 434" fill="none" xmlns="http://www.w3.org/2000/svg">
<path fill-rule="evenodd" clip-rule="evenodd" d="M53.2093 0.786686C44.6644 2.04282 43.2186 3.45159 41.5855 12.1086C41.1392 14.474 41.3433 14.8394 43.5413 15.6101C44.8908 16.083 45.9948 17.0222 45.9948 17.6961C45.9948 18.3709 46.2212 19.5161 46.4983 20.2417C46.8184 21.08 46.5522 21.5613 45.7692 21.5613C45.0915 21.5613 44.0564 22.7298 43.4683 24.1569C42.5144 26.4724 42.6048 27.133 44.3052 30.2625L46.2121 33.7723L44.3848 49.1445C40.7427 79.7972 35.4467 116.441 32.6681 130.225C30.4236 141.356 28.311 146.637 23.1211 154.091C3.78748 181.857 1.86067 186.624 0.3602 210.402C-0.685735 226.979 0.755847 401.05 2.01163 409.816C3.04513 417.028 6.52217 424.24 10.1195 426.634C18.2589 432.05 56.7204 435.216 94.2231 433.559C120.387 432.403 133.414 430.106 139.443 425.583C144.533 421.767 146.494 410.987 147.546 381.052C148.287 359.957 148.068 217.616 147.276 206.311C145.969 187.616 142.023 178.099 127.156 157.782C121.999 150.734 118.366 143.35 116.559 136.248C114.744 129.112 110.745 105.114 108.636 88.7052C107.929 83.2002 106.26 70.814 104.929 61.1804C101.12 33.6305 101.077 32.879 103.135 30.2474C105.105 27.7277 105.334 25.6308 103.926 22.9851C102.988 21.2226 102.951 21.2185 102.325 22.8307C101.886 23.9601 101.666 23.131 101.626 20.2059C101.57 16.073 101.653 15.9137 104.147 15.4124C106.471 14.9453 106.671 14.6667 106.175 12.5973C103.747 2.48322 103.321 2.07618 93.8357 0.76917C86.3326 -0.265097 60.2796 -0.253419 53.2093 0.786686Z" fill="#D8E7EC"/>
</svg>
